SplineFontDB: 3.0
FontName: FantasqueSansMono-Bold
FullName: Fantasque Sans Mono Bold
FamilyName: Fantasque Sans Mono
Weight: Bold
Copyright: Created by Jany Belluz with FontForge 2.0 (http://fontforge.sf.net)
UComments: "2013-9-13: Created."
Version: 1.7.1
ItalicAngle: 0
UnderlinePosition: -77
UnderlineWidth: 213
Ascent: 1650
Descent: 398
InvalidEm: 0
LayerCount: 2
Layer: 0 0 "Back" 1
Layer: 1 0 "Fore" 0
XUID: [1021 607 50037791 3178130]
FSType: 8
OS2Version: 3
OS2_WeightWidthSlopeOnly: 0
OS2_UseTypoMetrics: 1
CreationTime: 1379052706
ModificationTime: 1459706343
PfmFamily: 49
TTFWeight: 700
TTFWidth: 5
LineGap: 50
VLineGap: 0
Panose: 2 11 8 9 2 2 4 3 2 4
OS2TypoAscent: 1650
OS2TypoAOffset: 0
OS2TypoDescent: -398
OS2TypoDOffset: 0
OS2TypoLinegap: 100
OS2WinAscent: 1750
OS2WinAOffset: 0
OS2WinDescent: 398
OS2WinDOffset: 0
HheadAscent: 1700
HheadAOffset: 0
HheadDescent: -398
HheadDOffset: 0
OS2FamilyClass: 2057
OS2Vendor: 'PfEd'
Lookup: 1 0 0 "'ss01' Stylistic Set 1 - No loop k" { "'ss01' Stylistic Set 1 - No loop k-1" ("noloop") } ['ss01' ('DFLT' <'dflt' > 'cyrl' <'dflt' > 'grek' <'dflt' > 'latn' <'dflt' > ) ]
Lookup: 260 0 0 "'mark' Placement de signe diacritique lookups1" { "'mark' Placement de signe diacritique lookups1-1"  "'mark' Placement de signe diacritique lookups1-2"  } ['mark' ('DFLT' <'dflt' > 'cyrl' <'dflt' > 'grek' <'dflt' > 'latn' <'dflt' > ) ]
MarkAttachClasses: 1
DEI: 91125

StartChar: a
Encoding: 97 97 0
Width: 1060
VWidth: 6
Flags: W
HStem: -11 200<343.627 572.837> 470 200<369.749 625.784> 820 208<290.067 600.727>
VStem: 56 262<217.581 419.927> 661 256<275.679 431.841 623 758.896>
AnchorPoint: "above_accent" 493 1107 basechar 0
LayerCount: 2
Fore
SplineSet
318 317 m 0
 318 219 387 189 451 189 c 0
 561 189 643 291 661 347 c 1
 661 394 l 1
 625 436 557 470 493 470 c 0
 427 470 318 427 318 317 c 0
917 316 m 2
 917 224 936 172 993 127 c 1
 868 -22 l 1
 816 18 782 29 740 101 c 1
 664 23 582 -11 400 -11 c 0
 229 -11 56 120 56 302 c 0
 56 392 86 479 145 540 c 0
 240 637 351 670 493 670 c 0
 557 670 623 649 661 623 c 1
 661 789 545 820 485 820 c 0
 370 820 276 787 202 709 c 1
 80 917 l 1
 254 1027 315 1025 493 1028 c 1
 718 1028 917 893 917 655 c 0
 917 316 l 2
EndSplineSet
Validated: 1
EndChar

StartChar: b
Encoding: 98 98 1
Width: 1060
VWidth: -2
Flags: W
HStem: -7 180<451.995 630.895> 813 200<426.383 620.479>
VStem: 112 245<274.508 742.95 933.593 1399.8> 688 255<235.51 731.081>
LayerCount: 2
Fore
SplineSet
688 478 m 0
 688 741 615 813 523 813 c 0
 451 813 390 738 357 683 c 1
 357 349 l 1
 408 247 479 173 540 173 c 0
 648 173 688 288 688 478 c 0
943 459 m 0
 943 152 825 -7 574 -7 c 0
 450 -7 371 40 333 93 c 1
 333 51 289 -13 289 -13 c 1
 93 7 l 1
 103 73 112 160 112 243 c 0
 112 251 112 259 112 267 c 0
 112 516 111 877 111 1157 c 0
 111 1251 103 1335 96 1403 c 1
 343 1412 l 1
 352 1339 357 1243 357 1152 c 3
 357 1062 351 1007 333 930 c 1
 370 958 444 1013 558 1013 c 0
 830 1013 943 831 943 459 c 0
EndSplineSet
Validated: 1
EndChar

StartChar: c
Encoding: 99 99 2
Width: 1060
VWidth: 4
Flags: W
HStem: -7 210<420.442 668.896> 807 211<424.386 691.653>
VStem: 71 261<305.761 702.322>
AnchorPoint: "above_accent" 542 1107 basechar 0
LayerCount: 2
Fore
SplineSet
332 528 m 0
 332 209 495 203 542 203 c 2
 554 203 l 2
 654 203 708 269 756 350 c 1
 982 216 l 1
 914 66 782 -7 564 -7 c 0
 460 -7 337 1 241 73 c 1
 111 174 71 328 71 527 c 0
 71 867 249 1018 564 1018 c 0
 659 1018 756 999 819 957 c 0
 879 917 925 858 947 806 c 1
 727 704 l 1
 717 742 686 807 546 807 c 0
 399 807 332 671 332 528 c 0
EndSplineSet
Validated: 1
EndChar

StartChar: d
Encoding: 100 100 3
Width: 1060
VWidth: -2
Flags: W
HStem: -7 209<391.381 602.357> 813 209<406.834 608.902>
VStem: 74 255<268.211 722.141> 678 245<279.559 742.95 933.593 1399.8>
LayerCount: 2
Fore
SplineSet
329 478 m 0
 329 288 388 202 496 202 c 0
 557 202 627 247 678 349 c 1
 678 683 l 1
 645 738 584 813 512 813 c 0
 420 813 329 741 329 478 c 0
74 459 m 0
 74 840 215 1022 478 1022 c 0
 592 1022 665 958 702 930 c 1
 684 1007 678 1062 678 1152 c 3
 678 1243 683 1339 692 1412 c 1
 940 1403 l 1
 933 1335 925 1251 925 1157 c 0
 925 877 923 516 923 267 c 0
 923 259 923 251 923 243 c 0
 923 160 933 73 943 7 c 1
 747 -13 l 1
 747 -13 702 51 702 93 c 1
 664 40 585 -7 461 -7 c 0
 210 -7 74 152 74 459 c 0
EndSplineSet
Validated: 1
EndChar

StartChar: e
Encoding: 101 101 4
Width: 1060
VWidth: 32
Flags: W
HStem: -10 206<423.72 684.274> 434 196<404.825 676> 818 203<407.494 621.802>
VStem: 78 258<289.863 403.211 606 738.031> 676 261<630 763.58>
AnchorPoint: "above_accent" 526 1107 basechar 0
LayerCount: 2
Fore
SplineSet
336 606 m 1
 449 626 543 630 676 630 c 1
 671 761 599 818 511 818 c 0
 409 818 342 722 336 606 c 1
509 1021 m 0
 828 1021 937 813 937 477 c 1
 937 457 936 434 936 434 c 1
 651 430 438 416 336 396 c 1
 352 285 440 196 532 196 c 1
 638 196 686 232 754 306 c 1
 932 150 l 1
 831 38 765 -10 526 -10 c 1
 240 -10 78 203 78 516 c 0
 78 802 226 1021 509 1021 c 0
EndSplineSet
Validated: 1
EndChar

StartChar: f
Encoding: 102 102 5
Width: 1060
VWidth: -2
Flags: W
HStem: -0 21G<242 499> 807 205<99 242 499 814.016> 1217 201<524.522 789.055>
VStem: 242 257<0 807 1012 1188.92>
LayerCount: 2
Fore
SplineSet
641 1217 m 0
 509 1217 498 1143 498 1083 c 3
 498 1056 499 1012 499 1012 c 1
 567 1012 610 1012 683 1012 c 1
 788 1012 829 1000 859 991 c 1
 815 794 l 1
 794 801 773 807 717 807 c 2
 498 807 l 1
 499 0 l 1
 242 -0 l 1
 242 807 l 1
 99 807 l 1
 99 1012 l 1
 242 1012 l 1
 242 1028 242 1045 242 1064 c 0
 242 1194 308 1418 624 1418 c 0
 820 1418 949 1376 1027 1221 c 1
 815 1124 l 1
 789 1206 731 1217 641 1217 c 0
EndSplineSet
Validated: 1
EndChar

StartChar: g
Encoding: 103 103 6
Width: 1060
VWidth: 14
Flags: W
HStem: -384 200<339.615 652.97> 57 191<338.696 724.022> 399 200<357.688 614.884> 822 204<350.865 631.639 872.14 987>
VStem: 80 247<264.955 410.248 626.114 795.11> 80 228<-146.996 55.8752> 645 246<628.611 804.056> 734 250<-110.144 45.3598>
AnchorPoint: "above_accent" 496 1104 basechar 0
LayerCount: 2
Back
SplineSet
237 -76 m 4xf9
 237 -202 312 -232 444 -232 c 4
 455 -232 539 -232 549 -232 c 4
 664 -232 803 -191 803 -25 c 4
 803 60 654 71 533 71 c 4
 524 71 467 71 321 69 c 5
 265 47 237 -13 237 -76 c 4xf9
476 557 m 4
 605 557 704 609 704 706 c 4
 704 835 619 874 492 874 c 4
 356 874 253 801 253 709 c 4xf6
 253 593 346 557 476 557 c 4
95 699 m 4
 95 909 246 1026 492 1026 c 4
 607 1026 681 1006 746 966 c 5
 802 1018 855 1028 965 1028 c 5
 965 864 l 5
 953 866 931 869 921 869 c 4
 886 869 847 864 830 847 c 5
 856 800 860 758 860 710 c 4xf6
 860 521 706 407 481 407 c 4
 410 407 347 414 282 439 c 5
 263 417 239 382 239 341 c 4
 239 265 293 223 419 223 c 4
 445 223 573 225 600 225 c 4
 788 225 961 166 961 -24 c 4
 961 -283 787 -388 543 -388 c 7
 500 -388 487 -388 440 -388 c 4
 229 -388 80 -291 80 -82 c 4xf9
 80 18 112 89 167 137 c 5
 110 179 82 250 82 328 c 4
 82 419 114 479 156 527 c 5
 122 565 95 627 95 699 c 4
EndSplineSet
Fore
SplineSet
541 -184 m 2xf5
 603 -184 734 -114 734 -16 c 0
 734 25 712 58 598 58 c 0
 331 57 l 1
 308 27 308 -29 308 -73 c 0
 308 -135 382 -184 451 -184 c 2
 541 -184 l 2xf5
645 726 m 0xfa
 645 812 570 822 484 822 c 0
 396 822 327 792 327 717 c 0
 327 627 395 599 485 599 c 0
 603 599 645 651 645 726 c 0xfa
870 819 m 1
 870 819 891 797 891 716 c 0
 891 540 787 399 507 399 c 2
 504 399 l 2
 429 399 371 406 357 412 c 1
 338 390 327 363 327 333 c 0xfa
 327 298 350 248 456 248 c 0
 635 248 l 0
 788 248 984 202 984 1 c 0
 984 -222 768 -384 595 -384 c 3
 534 -384 522 -384 440 -384 c 0
 236 -384 80 -293 80 -78 c 0xf5
 80 23 114 96 167 143 c 1
 120 178 80 257 80 343 c 0
 80 444 119 492 156 533 c 1
 117 583 80 620 80 694 c 0
 80 929 241 1026 495 1026 c 0
 595 1026 691 1012 767 965 c 1
 816 1011 871 1026 987 1026 c 1
 987 822 l 1
 975 824 956 827 946 827 c 0
 912 827 894 825 870 819 c 1
EndSplineSet
Validated: 1
EndChar

StartChar: p
Encoding: 112 112 7
Width: 1060
VWidth: -2
Flags: W
HStem: -8 201<401.543 614.96> 811 200<416.354 636.024> 1002 20G<124.615 304.5>
VStem: 94 246<-394.801 58.1271 255.451 734.217> 681 256<261.255 768.3>
LayerCount: 2
Fore
SplineSet
681 531 m 0xd8
 681 724 644 811 556 811 c 0
 427 811 383 744 338 656 c 1
 340 311 l 1
 378 253 432 193 507 193 c 0
 622 193 681 264 681 531 c 0xd8
94 739 m 1
 94 765 l 2
 94 848 82 931 72 996 c 1
 300 1022 l 1xb8
 309 998 316 960 320 921 c 1
 376 983 460 1011 572 1011 c 0
 847 1011 937 819 937 551 c 0
 937 215 864 -8 502 -8 c 0
 402 -8 355 29 326 60 c 1
 330 20 337 -17 340 -61 c 1
 340 -152 l 2
 340 -246 347 -330 354 -398 c 1
 106 -405 l 1
 97 -332 92 -237 92 -146 c 2
 94 739 l 1
EndSplineSet
Validated: 1
EndChar

StartChar: h
Encoding: 104 104 8
Width: 1060
VWidth: -2
Flags: W
HStem: 0 21G<88 333> 813 200<405.174 632.052> 1391 20G<72 324.5>
VStem: 88 245<0 742.223 932.593 1398.8> 696 246<41.7051 738.438>
AnchorPoint: "above_accent" 199 1400 basechar 0
LayerCount: 2
Fore
SplineSet
942 566 m 1
 942 218 l 3
 942 136 961 76 986 40 c 1
 760 -40 l 1
 737 -8 696 66 696 176 c 0
 696 491 l 1
 696 800 600 813 508 813 c 0
 431 813 366 737 333 682 c 1
 333 0 l 1
 88 0 l 1
 88 1156 l 0
 88 1250 79 1334 72 1402 c 1
 320 1411 l 1
 329 1338 334 1242 334 1151 c 3
 334 1061 328 1006 310 929 c 1
 347 957 423 1013 542 1013 c 0
 792 1013 942 888 942 566 c 1
EndSplineSet
Validated: 1
EndChar

StartChar: k
Encoding: 107 107 11
Width: 1060
VWidth: -2
Flags: W
HStem: 0 21G<134 383 766 854.415> 398 199<383.84 550.435> 813 204<496.154 669.449>
VStem: 134 249<0 398 617.945 719.977 898.492 1381.07> 679 255<609.816 804.907>
AnchorPoint: "cedilla_accent" 525 -0 basechar 0
AnchorPoint: "above_accent" 253 1413 basechar 0
LayerCount: 2
Fore
SplineSet
578 597 m 4
 668 597 679 657 679 730 c 4
 679 766 661 813 604 813 c 4
 531 813 383 685 383 685 c 5
 383 626 l 5
 399 623 539 597 578 597 c 4
383 0 m 5
 134 0 l 5
 134 1228 l 6
 134 1289 124 1342 111 1383 c 5
 355 1427 l 5
 364 1404 383 1359 383 1293 c 6
 383 1070 l 5
 383 1012 372 949 353 896 c 5
 353 896 470 1017 613 1017 c 4
 813 1017 934 929 934 734 c 4
 934 611 907 527 763 458 c 5
 866 422 895 348 927 242 c 4
 940 198 990 161 1023 137 c 5
 831 -27 l 5
 701 23 667 129 631 255 c 4
 591 394 404 398 385 398 c 4
 383 398 l 5
 383 0 l 5
EndSplineSet
Validated: 1
Substitution2: "'ss01' Stylistic Set 1 - No loop k-1" k.noloop
EndChar

StartChar: l
Encoding: 108 108 12
Width: 1060
VWidth: -2
Flags: W
HStem: -18 200<618.352 874.717> 1201 200<101.523 355>
VStem: 355 256<191.813 274 274.62 1201>
AnchorPoint: "cedilla_accent" 645 0 basechar 0
AnchorPoint: "above_accent" 475 1400 basechar 0
LayerCount: 2
Fore
SplineSet
355 1401 m 2
 609 1401 l 1
 609 1128 611 274 611 274 c 1
 611 210 627 182 719 182 c 0
 812 182 872 215 932 273 c 1
 1029 83 l 1
 943 12 792 -18 668 -18 c 0
 583 -18 492 -4 448 20 c 0
 363 67 355 147 355 206 c 1
 355 433 354 674 354 901 c 0
 354 1015 354 1097 355 1201 c 1
 345 1201 331 1201 315 1201 c 0
 258 1201 173 1199 98 1182 c 1
 69 1368 l 1
 163 1396 275 1401 355 1401 c 2
EndSplineSet
Validated: 1
EndChar

StartChar: m
Encoding: 109 109 13
Width: 1060
VWidth: 4
Flags: W
HStem: -11 11G<19.9501 244 383 608.067 916.5 963.605> 813 207<310.935 452.476 669.056 735.448> 1024 20G<138.939 212.5>
VStem: 20 224<0 732.127> 383 225<1 731.814> 736 220<158.258 811.262>
LayerCount: 2
Back
SplineSet
765 1026 m 7
 910 1026 935 834 935 739 c 6
 935 216 l 6
 935 165 986 128 1027 112 c 5
 966 -21 l 5
 895 -7 795 50 795 191 c 6
 795 193 l 5
 795 760 l 6
 795 764 795 768 795 773 c 4
 795 808 791 873 731 873 c 4
 683 873 630 827 568 692 c 5
 569 0 l 5
 428 0 l 5
 428 806 l 5
 428 834 426 873 380 873 c 4
 332 873 263 827 201 691 c 5
 201 0 l 5
 60 0 l 5
 57 815 l 6
 57 908 44 958 27 1007 c 5
 177 1047 l 5
 192 1015 206 923 208 877 c 5
 254 957 341 1026 414 1026 c 5
 511 1026 568 947 568 877 c 5
 611 956 673 1026 765 1026 c 7
EndSplineSet
Fore
SplineSet
952 -32 m 1
 881 -18 736 22 736 228 c 2
 736 230 l 1
 736 759 l 17
 734 801 728 813 698 813 c 1
 676 813 624 656 610 600 c 1
 608 0 l 1
 383 1 l 1
 383 761 l 1
 383 798 381 813 355 813 c 1
 331 813 266 715 244 609 c 1
 244 0 l 1
 20 0 l 1
 18 802 l 2
 18 895 4 929 -13 978 c 1
 205 1044 l 1
 220 1012 224 948 231 911 c 1
 260 949 323 1020 412 1020 c 0
 522 1020 564 917 573 846 c 1
 615 928 677 1020 768 1020 c 2
 776 1020 l 2
 900 1020 956 881 956 739 c 2
 956 226 l 2
 956 175 1005 146 1046 130 c 1
 952 -32 l 1
EndSplineSet
Validated: 1
EndChar

StartChar: o
Encoding: 111 111 14
Width: 1060
VWidth: 6
Flags: W
HStem: -6 203<400.251 610.825> 830 202<403 623.518>
VStem: 72 252<282.644 737.435> 685 256<277.821 760.797>
AnchorPoint: "above_accent" 510 1107 basechar 0
LayerCount: 2
Fore
SplineSet
625 247 m 1
 672 299 685 403 685 530 c 0
 685 536 685 540 685 546 c 0
 683 703 648 830 520 830 c 0
 369 830 324 690 324 482 c 0
 324 316 387 197 508 197 c 1
 563 198 589 211 625 247 c 1
507 -6 m 1
 197 -6 72 184 72 464 c 0
 72 835 213 1032 505 1032 c 0
 702 1032 812 963 882 831 c 0
 923 752 941 639 941 543 c 0
 941 258 845 -6 509 -6 c 2
 507 -6 l 1
EndSplineSet
Validated: 1
EndChar

StartChar: n
Encoding: 110 110 15
Width: 1060
VWidth: 6
Flags: W
HStem: 0 21G<100 351> 819 207<452.395 676.483> 1032 20G<203.333 305>
VStem: 100 251<0 737.647> 687 251<200.331 811.089>
AnchorPoint: "cedilla_accent" 534 0 basechar 0
AnchorPoint: "above_accent" 518 1107 basechar 0
LayerCount: 2
Fore
SplineSet
338 927 m 1
 394 977 528 1026 638 1026 c 0
 802 1026 938 960 938 796 c 2
 938 278 l 2
 938 212 988 190 1044 160 c 1
 928 -40 l 1
 833 -10 687 64 687 222 c 2
 687 699 l 2
 687 773 672 819 605 819 c 0
 542 819 436 781 351 707 c 1
 351 0 l 1
 100 0 l 1
 100 706 l 2
 100 884 92 910 68 1004 c 1
 300 1052 l 1
 310 1028 331 976 338 927 c 1
EndSplineSet
Validated: 1
EndChar

StartChar: q
Encoding: 113 113 16
Width: 1060
VWidth: -2
Flags: W
HStem: -8 201<394.04 607.743> 811 200<373.786 593.396> 1002 20G<704.5 884.385>
VStem: 72 256<261.255 768.3> 670 247<-391.314 58.1272 255.451 730.944> 690 247<-394.792 47.5938 923.319 997.635>
LayerCount: 2
Fore
SplineSet
328 531 m 0xd8
 328 264 387 193 502 193 c 0
 577 193 632 253 670 311 c 1
 671 656 l 1
 626 744 583 811 454 811 c 0
 366 811 328 724 328 531 c 0xd8
916 739 m 1
 917 -146 l 2
 917 -175 l 0
 917 -260 918 -358 933 -393 c 1
 697 -423 l 1
 678 -371 670 -246 670 -152 c 2
 670 -61 l 1
 673 -17 679 20 683 60 c 1
 654 29 607 -8 507 -8 c 0
 145 -8 72 215 72 551 c 0
 72 819 163 1011 438 1011 c 0xd8
 550 1011 634 983 690 921 c 1
 694 960 700 998 709 1022 c 1
 937 996 l 1xb4
 927 931 916 848 916 765 c 2
 916 739 l 1
EndSplineSet
Validated: 1
EndChar

StartChar: r
Encoding: 114 114 17
Width: 1060
VWidth: 4
Flags: W
HStem: 0 21G<216 468> 818 202<615.93 760.722> 1024 20G<238.086 284.5>
VStem: 216 252<0 638.664> 766 250<698 810.564>
AnchorPoint: "cedilla_accent" 332 0 basechar 0
AnchorPoint: "above_accent" 538 1107 basechar 0
LayerCount: 2
Fore
SplineSet
404 864 m 1
 479 962 583 1020 744 1020 c 0
 911 1020 1016 918 1016 728 c 0
 1016 698 l 1
 764 696 l 1
 765 707 766 723 766 740 c 0
 766 777 756 818 700 818 c 1
 644 818 564 745 468 560 c 1
 468 0 l 1
 216 0 l 1
 216 704 l 2
 216 761 168 803 106 858 c 1
 254 1044 l 1
 315 995 370 967 404 864 c 1
EndSplineSet
Validated: 1
EndChar

StartChar: s
Encoding: 115 115 18
Width: 1060
VWidth: 6
Flags: W
HStem: -20 202<379.399 647.558> 829 200<399.317 666.781>
VStem: 94 253<211.251 330> 142 254<700.474 817.573> 676 254<213.604 394.387>
AnchorPoint: "cedilla_accent" 522 0 basechar 0
AnchorPoint: "above_accent" 490 1107 basechar 0
LayerCount: 2
Fore
SplineSet
279 549 m 0xe8
 197 589 142 670 142 781 c 0
 142 967 332 1029 507 1029 c 0
 646 1029 799 1014 910 893 c 1
 733 730 l 1
 679 788 606 829 510 829 c 0
 428 829 396 807 396 768 c 0xd8
 396 739 402 719 430 701 c 1
 686 597 930 562 930 278 c 0
 930 116 786 28 679 0 c 1
 623 -13 563 -20 506 -20 c 0
 250 -20 94 115 94 330 c 1
 347 330 l 1
 347 222 395 182 504 182 c 0
 563 182 676 202 676 290 c 0
 676 349 655 382 606 415 c 1
 537 459 372 504 279 549 c 0xe8
EndSplineSet
Validated: 1
EndChar

StartChar: t
Encoding: 116 116 19
Width: 1060
VWidth: 0
Flags: W
HStem: -6 202<472.235 760.078> 805 204<439 867>
VStem: 178 252<236.379 805 1013 1244>
AnchorPoint: "cedilla_accent" 579 0 basechar 0
AnchorPoint: "above_accent" 533 1275 basechar 0
LayerCount: 2
Fore
SplineSet
430 436 m 1
 430 396 l 2
 430 262 469 214 553 200 c 0
 571 198 605 196 618 196 c 0
 683 196 713 210 738 224 c 0
 790 252 801 320 808 340 c 1
 1016 240 l 1
 1006 212 952 100 840 36 c 0
 782 2 705 -6 620 -6 c 0
 436 -6 288 16 217 164 c 0
 182 236 178 312 178 398 c 2
 178 440 l 1
 180 530 182 641 187 805 c 1
 173 805 l 2
 145 805 117 801 91 793 c 1
 74 997 l 1
 98 1005 143 1009 176 1009 c 2
 191 1009 l 1
 191 1079 192 1180 192 1250 c 1
 443 1244 l 1
 443 1178 442 1081 441 1013 c 1
 550 1013 862 1009 870 1009 c 1
 867 805 l 1
 730 805 572 807 439 807 c 1
 433 641 434 536 430 436 c 1
EndSplineSet
Validated: 1
EndChar

StartChar: u
Encoding: 117 117 20
Width: 1060
VWidth: 6
Flags: W
HStem: -17 21G<861 908.628> 2 204<344.099 591.094> 1000 13G<130.571 323 667 918>
VStem: 79 251<220.841 885.496> 667 251<278.168 1013>
AnchorPoint: "above_accent" 496 1107 basechar 0
LayerCount: 2
Fore
SplineSet
893 -17 m 1xb8
 829 12 787 58 766 108 c 1
 691 31 576 5 426 2 c 1
 417 2 l 2
 265 2 79 53 79 229 c 3
 79 311 80 408 80 504 c 0
 80 720 77 935 58 992 c 1
 312 1020 l 1
 334 928 328 664 330 298 c 1
 342 231 361 206 446 206 c 1x78
 598 213 667 291 667 418 c 1
 667 1013 l 1
 918 1013 l 1
 918 306 l 1
 920 254 985 187 1036 166 c 1
 893 -17 l 1xb8
EndSplineSet
Validated: 1
EndChar

StartChar: v
Encoding: 118 118 21
Width: 1060
VWidth: 6
Flags: W
HStem: -8 21G<342 446>
VStem: 690 254<481.986 1013>
LayerCount: 2
Fore
SplineSet
216 1076 m 1
 386 793 470 508 538 251 c 1
 662 394 683 609 689 816 c 0
 690 835 690 860 690 885 c 0
 690 931 689 979 687 1013 c 1
 938 1013 l 1
 941 997 944 880 944 822 c 0
 944 505 840 212 658 66 c 0
 587 9 550 -8 342 -8 c 1
 342 250 130 763 4 946 c 1
 216 1076 l 1
EndSplineSet
Validated: 1
EndChar

StartChar: w
Encoding: 119 119 22
Width: 1060
VWidth: 4
Flags: W
HStem: 0 214<307 386.006 651 717.235> 993 20G<757 1004>
VStem: 123 212<210.565 551.123> 443 215<276.459 835> 771 234<279.057 1013>
AnchorPoint: "above_accent" 533 1107 basechar 0
LayerCount: 2
Fore
SplineSet
17 984 m 1
 266 1056 l 1
 336 848 334 660 335 488 c 0
 335 477 335 467 335 457 c 0
 335 363 318 241 307 209 c 1
 395 209 443 352 443 463 c 0
 443 835 l 1
 653 836 l 1
 653 836 658 758 658 593 c 0
 658 497 656 371 651 214 c 1
 653 214 654 214 656 214 c 0
 734 214 771 361 771 613 c 0
 771 787 767 904 757 1013 c 1
 1003 1013 l 1
 1005 981 1005 960 1005 916 c 0
 1005 886 1005 856 1005 829 c 0
 1005 676 1004 468 963 279 c 0
 927 115 799 0 580 0 c 2
 546 0 l 1
 546 0 528 66 522 153 c 1
 488 81 392 -12 195 -12 c 2
 189 -12 l 1
 143 -11 137 -6 123 0 c 1
 113 82 126 521 63 835 c 0
 52 889 40 943 17 984 c 1
EndSplineSet
Validated: 1
EndChar

StartChar: x
Encoding: 120 120 23
Width: 1060
VWidth: 4
Flags: W
HStem: -4 229<856.331 980> 1025 20G<208.184 249.591>
VStem: 736 238<883.264 1013>
LayerCount: 2
Fore
SplineSet
934 839 m 0
 894 751 748 590 658 504 c 1
 738 401 862 256 884 243 c 0
 888 240 896 225 930 225 c 0
 948 225 966 228 982 231 c 1
 980 2 l 1
 962 -1 938 -4 920 -4 c 0
 878 -4 820 6 780 34 c 1
 708 81 602 213 516 331 c 1
 184 -42 l 1
 14 119 l 1
 378 513 l 1
 52 904 l 1
 234 1045 l 1
 524 673 l 1
 584 741 632 777 702 900 c 0
 722 935 732 997 736 1014 c 1
 974 1013 l 1
 968 964 958 893 934 839 c 0
EndSplineSet
Validated: 1
EndChar

StartChar: y
Encoding: 121 121 24
Width: 1060
VWidth: 14
Flags: W
HStem: -376 212<298.407 422.094> -20 20G<42 278> 751 262<56.7511 199.549>
VStem: 42 236<-155.58 0> 716 256<565.814 1013>
AnchorPoint: "above_accent" 490 1107 basechar 0
LayerCount: 2
Fore
SplineSet
352 -164 m 0
 404 -164 518 -24 538 70 c 1
 267 681 198 751 101 751 c 3
 81 751 67 751 57 750 c 1
 56 1011 l 1
 56 1011 98 1013 132 1013 c 3
 324 1013 388 899 657 325 c 1
 708 612 716 735 716 1013 c 1
 972 1013 l 1
 972 953 971 868 957 747 c 0
 920 424 792 0 662 -174 c 0
 541 -335 459 -376 312 -376 c 1
 98 -376 46 -173 42 0 c 1
 278 0 l 1
 278 -114 304 -164 352 -164 c 0
EndSplineSet
Validated: 1
EndChar

StartChar: z
Encoding: 122 122 25
Width: 1060
VWidth: 6
Flags: W
HStem: -22 21G<903.5 930.56> 0 203<402 923.912> 803 208<124 600>
AnchorPoint: "above_accent" 535 1107 basechar 0
LayerCount: 2
Fore
SplineSet
93 815 m 1
 124 1017 l 1
 170 1012 281 1011 405 1011 c 0
 591 1011 807 1014 877 1016 c 1
 954 826 l 1
 921 793 454 384 402 197 c 1
 802 203 l 2
 804 203 806 203 808 203 c 0
 862 203 911 190 970 171 c 1
 926 -22 l 1
 881 -9 865 0 800 0 c 2
 71 0 l 1
 71 20 l 2
 71 93 76 143 93 189 c 0
 172 403 400 642 600 806 c 1
 532 805 499 803 398 803 c 0
 273 803 150 806 93 815 c 1
EndSplineSet
Validated: 1
EndChar

StartChar: A
Encoding: 65 65 26
Width: 1060
VWidth: 0
Flags: W
HStem: 0 21G<6 267.5 750 1026> 281 223<390.856 651> 1305 20G<411.503 648.179>
VStem: 6 260<0 174.195> 750 276<0 224.965>
AnchorPoint: "above_accent" 513 1322 basechar 0
LayerCount: 2
Fore
SplineSet
651 504 m 1
 625 647 526 844 525 998 c 1
 519 830 426 625 388 486 c 1
 448 499 568 499 651 504 c 1
418 1325 m 1
 642 1325 l 1
 976 244 l 2
 1000 163 1026 79 1026 0 c 1
 750 0 l 1
 750 59 740 114 725 167 c 2
 693 281 l 1
 541 278 456 282 336 252 c 1
 306 162 l 2
 286 101 269 43 266 0 c 1
 6 0 l 1
 10 61 34 143 60 223 c 2
 418 1325 l 1
EndSplineSet
Validated: 1
EndChar

StartChar: B
Encoding: 66 66 27
Width: 1060
VWidth: 0
Flags: W
HStem: -5 197<312 625.988> 636 198<318 490.223> 1123 202<318.305 507.082>
VStem: 66 253<194.783 636 834 1116.36> 531 258<873.486 1099.27> 711 258<278.47 564.007>
LayerCount: 2
Fore
SplineSet
66 837 m 0xf4
 66 1014 63 1178 54 1308 c 1
 135 1314 277 1325 390 1325 c 0
 396 1325 402 1325 408 1325 c 0
 630 1325 789 1234 789 1014 c 0xf8
 789 870 737 824 662 783 c 1
 825 738 969 634 969 408 c 0
 969 106 793 23 626 3 c 0
 587 -2 546 -5 507 -5 c 0
 433 -5 375 0 290 0 c 0
 278 0 266 0 252 0 c 2
 58 0 l 1
 58 198 66 413 66 837 c 0xf4
531 1012 m 2
 531 1120 445 1123 422 1123 c 0
 418 1123 l 2
 402 1123 l 2
 363 1123 346 1121 316 1118 c 1
 319 1083 319 1045 319 1004 c 0
 319 950 318 892 318 834 c 1
 329 834 342 834 356 834 c 0
 429 834 531 846 531 1004 c 2
 531 1012 l 2
479 638 m 0
 430 638 433 636 360 636 c 2
 316 636 l 1
 314 394 313 276 312 198 c 1
 361 195 400 192 438 192 c 0
 468 192 498 194 533 198 c 0
 565 202 711 238 711 420 c 0xf4
 711 592 599 638 479 638 c 0
EndSplineSet
Validated: 1
EndChar

StartChar: C
Encoding: 67 67 28
Width: 1060
VWidth: 0
Flags: W
HStem: -3 201<441.541 679.357> 1128 204<456.612 683.073>
VStem: 56 262<370.861 936.313>
AnchorPoint: "above_accent" 561 1322 basechar 0
LayerCount: 2
Fore
SplineSet
566 1128 m 0
 451 1128 318 992 318 628 c 0
 318 354 434 198 540 198 c 2
 554 198 l 1
 678 198 716 262 764 392 c 1
 1010 255 l 1
 936 97 765 -3 575 -3 c 2
 572 -3 l 2
 461 -3 329 22 235 116 c 1
 115 241 56 408 56 636 c 0
 56 895 137 1054 189 1132 c 0
 261 1240 397 1332 572 1332 c 0
 712 1332 886 1269 974 1107 c 1
 742 982 l 1
 692 1106 652 1128 566 1128 c 0
EndSplineSet
Validated: 1
EndChar

StartChar: D
Encoding: 68 68 29
Width: 1060
VWidth: 0
Flags: W
HStem: -10 205<324 581.38> 1127 204<328 519.494>
VStem: 76 252<198 1123.7> 702 267<323.211 863.414>
AnchorPoint: "above_accent" 442 1322 basechar 0
LayerCount: 2
Fore
SplineSet
403 1127 m 2
 373 1127 l 2
 357 1127 345 1127 328 1124 c 1
 329 1098 329 1068 329 1037 c 0
 329 974 328 953 328 884 c 0
 328 578 325 296 324 198 c 1
 412 195 363 195 423 195 c 0
 426 195 l 0
 466 195 609 197 675 353 c 0
 694 398 702 489 702 544 c 0
 702 925 559 1127 403 1127 c 2
70 128 m 1
 70 183 76 580 76 901 c 2
 76 977 l 2
 76 1106 72 1229 63 1317 c 1
 144 1325 189 1331 288 1331 c 0
 583 1331 705 1260 838 1066 c 1
 922 939 969 761 969 580 c 0
 969 249 800 20 559 -3 c 0
 504 -8 453 -10 398 -10 c 0
 314 -10 181 -3 67 -3 c 1
 67 31 67 30 70 128 c 1
EndSplineSet
Validated: 1
EndChar

StartChar: E
Encoding: 69 69 30
Width: 1060
VWidth: 0
Flags: W
HStem: -0 204<358 898.95> 646 203<360 698> 1118 205<360 889>
VStem: 102 258<204 646 849 1118>
AnchorPoint: "above_accent" 474 1322 basechar 0
LayerCount: 2
Fore
SplineSet
102 1319 m 1
 158 1323 228 1323 306 1323 c 0
 337 1323 370 1323 404 1323 c 2
 514 1323 l 2
 663 1323 799 1320 873 1320 c 2
 889 1320 l 1
 889 1118 l 1
 360 1118 l 1
 360 849 l 1
 698 849 l 1
 698 646 l 1
 360 646 l 1
 360 615 l 2
 360 408 358 283 358 204 c 1
 774 206 l 2
 830 206 899 233 899 233 c 1
 971 34 l 1
 923 21 882 0 784 -0 c 2
 102 -0 l 1
 102 1319 l 1
EndSplineSet
Validated: 1
EndChar

StartChar: F
Encoding: 70 70 31
Width: 1060
VWidth: 0
Flags: W
HStem: 0 21G<116 382> 642 216<377 708.256> 1115 209<377 902.784>
VStem: 116 261<3 640 856 1114>
LayerCount: 2
Fore
SplineSet
382 0 m 1
 116 3 l 1
 116 1324 l 1
 801 1324 l 1
 903 1324 948 1307 982 1290 c 1
 904 1087 l 1
 878 1101 856 1114 758 1115 c 1
 688 1115 l 2
 584 1115 560 1115 377 1114 c 1
 377 856 l 1
 497 856 459 858 581 858 c 0
 671 858 738 840 778 822 c 1
 710 620 l 1
 673 637 623 642 578 642 c 0
 536 642 513 642 493 642 c 0
 463 642 442 642 377 640 c 1
 377 517 382 95 382 0 c 1
EndSplineSet
Validated: 1
EndChar

StartChar: G
Encoding: 71 71 32
Width: 1060
VWidth: 0
Flags: W
HStem: -8 206<400.046 648.579> 567 207<438.203 728> 1121 207<422.686 683.89>
VStem: 20 261<349.796 931.188> 728 264<291.71 568>
AnchorPoint: "above_accent" 544 1322 basechar 0
LayerCount: 2
Fore
SplineSet
861 772 m 0
 907 772 950 775 992 779 c 1
 992 586 l 2
 992 142 869 50 691 3 c 1
 646 -7 582 -8 540 -8 c 0
 176 -8 20 286 20 641 c 0
 20 883 73 1080 204 1210 c 1
 304 1300 418 1328 533 1328 c 2
 553 1328 l 1
 767 1323 915 1237 990 1071 c 1
 756 955 l 1
 720 1073 672 1121 540 1121 c 0
 372 1121 281 919 281 630 c 0
 281 366 358 198 530 198 c 0
 702 198 728 374 728 568 c 1
 664 567 l 0
 593 567 524 562 434 528 c 1
 394 731 l 1
 490 768 594 774 695 774 c 0
 751 774 807 772 861 772 c 0
EndSplineSet
Validated: 1
EndChar

StartChar: H
Encoding: 72 72 33
Width: 1060
VWidth: 0
Flags: W
HStem: 0 21G<60 318 675 930> 599 215<321.491 675> 1302 15G<60 316.963 674 930>
VStem: 60 256<0 578.711 785 1320> 675 255<0 599 814 1317>
AnchorPoint: "above_accent" 494 1322 basechar 0
LayerCount: 2
Fore
SplineSet
317 1322 m 1
 316 785 l 1
 408 806 468 814 588 814 c 2
 675 814 l 1
 675 1094 674 1152 674 1317 c 1
 930 1317 l 1
 930 0 l 1
 675 0 l 1
 675 599 l 1
 643 599 l 0
 497 599 434 596 316 570 c 1
 316 220 318 185 318 0 c 1
 60 0 l 1
 60 1320 l 1
 317 1322 l 1
EndSplineSet
Validated: 1
EndChar

StartChar: K
Encoding: 75 75 34
Width: 1060
VWidth: 0
Flags: W
HStem: -11 11G<84 342 787 847.46> 1315 20G<84 342 787.5 828.147>
VStem: 84 258<0 519.312 871 1335>
AnchorPoint: "cedilla_accent" 503 0 basechar 0
AnchorPoint: "above_accent" 491 1322 basechar 0
LayerCount: 2
Fore
SplineSet
588 782 m 1
 708 663 995 232 1046 94 c 1
 810 -32 l 1
 764 79 558 445 428 574 c 1
 428 574 372 512 342 440 c 1
 342 0 l 1
 84 0 l 1
 84 1335 l 1
 342 1335 l 1
 342 871 l 1
 445 1016 769 1339 806 1376 c 1
 1002 1199 l 1
 820 1064 648 856 588 782 c 1
EndSplineSet
Validated: 1
EndChar

StartChar: L
Encoding: 76 76 35
Width: 1060
VWidth: 0
Flags: W
HStem: -3 210<413 950.961> 1305 20G<157 413>
VStem: 157 256<207 1325>
AnchorPoint: "cedilla_accent" 538 0 basechar 0
AnchorPoint: "above_accent" 279 1322 basechar 0
LayerCount: 2
Fore
SplineSet
157 -3 m 1
 157 1325 l 1
 413 1325 l 1
 413 207 l 1
 839 207 l 2
 898 210 909 213 953 228 c 1
 1025 31 l 1
 978 15 916 -3 841 -3 c 2
 157 -3 l 1
EndSplineSet
Validated: 1
EndChar

StartChar: M
Encoding: 77 77 36
Width: 1060
VWidth: 32
Flags: W
HStem: 0 21G<62 312 700.933 948> 1303 20G<62 304 689.5 946>
VStem: 62 250<0 897.863> 701 247<0 897.856>
LayerCount: 2
Fore
SplineSet
62 1323 m 1
 266 1323 l 1
 342 1209 440 1020 502 834 c 1
 556 1016 649 1190 730 1323 c 1
 946 1323 l 1
 946 925 948 0 948 0 c 1
 701 0 l 1
 699 596 l 2
 699 700 724 898 724 898 c 1
 661 775 591 588 580 551 c 1
 430 549 l 1
 430 549 328 817 280 898 c 1
 280 898 312 709 312 596 c 2
 312 0 l 1
 62 0 l 1
 62 1323 l 1
EndSplineSet
Validated: 1
EndChar

StartChar: N
Encoding: 78 78 37
Width: 1060
VWidth: 0
Flags: W
HStem: 0 21G<75 321 646 940> 1305 20G<75 286 696.5 945>
VStem: 75 245<-3 778> 696 245<0 98.8086 504 1328>
AnchorPoint: "cedilla_accent" 507 0 basechar 0
AnchorPoint: "above_accent" 490 1322 basechar 0
LayerCount: 2
Fore
SplineSet
691 0 m 1
 601 259 454 559 320 778 c 1
 320 570 l 2
 320 271 321 152 321 -3 c 1
 75 -3 l 1
 75 1325 l 1
 286 1318 l 1
 412 1130 646 738 696 504 c 1
 689 778 l 0
 689 968 692 1155 701 1329 c 1
 945 1328 l 1
 939 1213 937 1061 937 895 c 0
 937 664 941 405 941 170 c 0
 941 112 940 54 940 0 c 1
 691 0 l 1
EndSplineSet
Validated: 1
EndChar

StartChar: O
Encoding: 79 79 38
Width: 1060
VWidth: 0
Flags: W
HStem: -16 203<387.94 609.054> 1147 203<415.193 616.501>
VStem: 36 261<295.851 964.02> 718 261<341.03 985.544>
AnchorPoint: "above_accent" 515 1322 basechar 0
LayerCount: 2
Fore
SplineSet
522 1350 m 1
 683 1350 974 1277 979 647 c 1
 979 636 l 2
 979 469 948 312 900 217 c 0
 825 70 675 -16 510 -16 c 0
 388 -16 239 25 158 127 c 0
 68 239 36 395 36 579 c 0
 36 931 96 1090 166 1187 c 0
 232 1279 366 1347 522 1350 c 1
351 277 m 0
 398 203 436 187 510 187 c 0
 589 187 638 249 669 326 c 1
 696 385 717 541 718 640 c 1
 718 657 l 2
 718 764 709 913 673 1009 c 0
 633 1115 581 1147 521 1147 c 0
 456 1147 418 1122 378 1051 c 0
 331 968 297 835 297 592 c 0
 297 495 310 342 351 277 c 0
EndSplineSet
Validated: 1
EndChar

StartChar: P
Encoding: 80 80 39
Width: 1060
VWidth: 0
Flags: W
HStem: 0 21G<104 354> 439 208<354 626.875> 1117 211<356 662.942>
VStem: 104 250<0 442 649 1112> 714 262<734.34 1067.46>
LayerCount: 2
Fore
SplineSet
714 909 m 0
 714 1113 597 1117 515 1117 c 0
 506 1117 l 1
 445 1117 401 1113 356 1112 c 1
 356 1041 l 2
 356 854 354 649 354 649 c 1
 390 648 425 647 458 647 c 0
 574 647 714 676 714 909 c 0
354 0 m 1
 104 0 l 1
 104 1320 l 1
 222 1320 260 1328 393 1328 c 0
 618 1328 789 1315 904 1174 c 0
 958 1108 976 1016 976 924 c 0
 976 600 852 439 508 439 c 0
 460 439 408 440 354 442 c 1
 354 174 354 159 354 0 c 1
EndSplineSet
Validated: 1
EndChar

StartChar: Q
Encoding: 81 81 40
Width: 1060
VWidth: 0
Flags: W
HStem: -183 216<780.576 973> -3 201<390.138 565.199> 319 217<378.483 547.031> 1115 216<389.714 600.35>
VStem: 50 244<433.612 989.619> 703 239<409.373 989.753>
LayerCount: 2
Fore
SplineSet
890 -183 m 0xbc
 775 -183 616 -122 590 8 c 1
 561 0 541 -3 501 -3 c 0x7c
 385 -3 277 40 198 123 c 0
 98 229 50 416 50 642 c 0
 50 853 79 1048 174 1173 c 0
 267 1295 366 1331 489 1331 c 0
 656 1331 772 1265 851 1121 c 0
 937 965 942 806 942 693 c 0
 942 473 904 216 770 116 c 1
 781 42 798 34 878 33 c 1
 889 33 l 2
 926 33 949 38 973 44 c 1
 974 -177 l 1
 952 -182 935 -183 890 -183 c 0xbc
487 536 m 0
 602 536 658 477 690 404 c 1
 702 444 703 538 703 683 c 0
 703 691 703 698 703 706 c 0
 703 799 701 902 654 1001 c 0
 621 1070 564 1115 492 1115 c 0
 363 1115 294 965 294 706 c 0
 294 686 294 663 294 640 c 0
 294 590 295 482 317 428 c 1
 356 495 415 536 487 536 c 0
566 211 m 1
 566 211 566 214 566 215 c 0
 566 249 543 319 473 319 c 0
 441 319 401 308 374 270 c 1
 389 218 452 198 490 198 c 0
 497 198 502 198 507 198 c 0
 526 198 549 202 566 211 c 1
EndSplineSet
Validated: 1
EndChar

StartChar: R
Encoding: 82 82 41
Width: 1060
VWidth: 0
Flags: W
HStem: 0 21G<90 333> 1124 205<333 617.608>
VStem: 90 243<0 558 751.032 1123> 706 262<769.263 1045.69>
AnchorPoint: "cedilla_accent" 529 0 basechar 0
AnchorPoint: "above_accent" 514 1322 basechar 0
LayerCount: 2
Fore
SplineSet
699 552 m 1
 777 428 880 277 936 211 c 1
 954 195 1002 159 1044 148 c 1
 922 -44 l 1
 864 -35 804 15 770 58 c 1
 673 167 506 434 450 530 c 1
 414 533 377 540 333 558 c 1
 333 0 l 1
 90 0 l 1
 90 1136 l 2
 90 1204 89 1252 85 1314 c 1
 127 1318 242 1329 303 1329 c 0
 553 1329 772 1321 894 1168 c 0
 942 1108 968 1014 968 928 c 0
 968 704 843 573 699 552 c 1
706 906 m 0
 706 1076 590 1124 396 1124 c 0
 370 1124 362 1124 333 1123 c 1
 333 768 l 1
 397 741 456 726 499 726 c 0
 502 726 504 726 507 726 c 1
 677 726 706 804 706 906 c 0
EndSplineSet
Validated: 1
EndChar

StartChar: S
Encoding: 83 83 42
Width: 1060
VWidth: 0
Flags: W
HStem: -9 209<366.479 662.456> 1118 210<346.951 608.654>
VStem: 27 266<269.235 420> 51 268<907.748 1084.68> 717 258<255.85 506.106>
AnchorPoint: "cedilla_accent" 507 0 basechar 0
AnchorPoint: "above_accent" 494 1322 basechar 0
LayerCount: 2
Fore
SplineSet
231 702 m 1xe8
 121 752 51 844 51 1006 c 0
 51 1226 215 1328 470 1328 c 0
 473 1328 476 1328 479 1328 c 0
 719 1328 915 1246 960 1078 c 1
 687 976 l 1
 641 1077 555 1118 485 1118 c 1
 399 1118 319 1082 319 1014 c 1xd8
 319 916 375 892 433 870 c 0
 556 822 627 813 759 752 c 1
 867 699 975 594 975 396 c 0
 975 96 761 -9 521 -9 c 2
 502 -9 l 1
 149 0 27 194 27 422 c 1
 293 420 l 1
 293 277 355 200 507 200 c 0
 615 200 717 236 717 382 c 0
 717 491 646 547 567 582 c 0
 451 633 364 641 231 702 c 1xe8
EndSplineSet
Validated: 1
EndChar

StartChar: T
Encoding: 84 84 43
Width: 1060
VWidth: 0
Flags: W
HStem: 0 21G<355 615> 1118 207<39 355 615 909.962>
VStem: 355 260<0 1118>
AnchorPoint: "cedilla_accent" 472 0 basechar 0
AnchorPoint: "above_accent" 472 1322 basechar 0
LayerCount: 2
Fore
SplineSet
355 0 m 1
 355 1118 l 1
 157 1118 115 1117 39 1117 c 1
 39 1324 l 1
 161 1324 615 1325 803 1325 c 0
 876 1325 946 1316 970 1309 c 1
 910 1106 l 1
 910 1106 858 1118 798 1118 c 2
 615 1118 l 1
 615 0 l 1
 355 0 l 1
EndSplineSet
Validated: 1
EndChar

StartChar: U
Encoding: 85 85 44
Width: 1060
VWidth: 0
Flags: W
HStem: -10 210<393.874 605.877> 1329 1G<67 328 696 881.714>
VStem: 68 252<291.203 1329> 693 256<306.506 1323.05>
AnchorPoint: "above_accent" 502 1323 basechar 0
LayerCount: 2
Fore
SplineSet
701 1350 m 1
 954 1322 l 1
 947 1272 946 1237 946 1195 c 0
 946 1186 946 1176 946 1166 c 0
 946 1018 949 888 949 775 c 2
 949 716 l 2
 949 479 944 253 832 121 c 0
 750 24 621 -5 492 -10 c 1
 184 -10 86 159 68 456 c 0
 63 533 61 657 61 795 c 0
 61 970 64 1168 70 1329 c 1
 328 1329 l 1
 324 1161 320 932 320 743 c 0
 320 693 320 645 320 602 c 0
 320 538 321 485 326 448 c 0
 340 354 350 204 490 200 c 1
 690 209 693 431 693 718 c 0
 693 844 688 993 688 1166 c 0
 688 1238 691 1287 701 1350 c 1
EndSplineSet
Validated: 1
EndChar

StartChar: V
Encoding: 86 86 45
Width: 1060
VWidth: 0
Flags: W
HStem: 0 21G<356 678> 1335 20G<186.966 290.5 742.5 850.468>
VStem: 368 301<0 208.172>
LayerCount: 2
Fore
SplineSet
368 0 m 1
 344 196 98 1038 4 1266 c 1
 240 1355 l 1
 341 1098 426 707 524 331 c 1
 598 651 692 1095 793 1348 c 1
 1020 1269 l 1
 922 1033 687 204 669 0 c 1
 368 0 l 1
EndSplineSet
Validated: 1
EndChar

StartChar: W
Encoding: 87 87 46
Width: 1060
VWidth: 0
Flags: W
HStem: 0 21G<132.5 397.5 622 884.5> 1321 20G<85.2414 261 785.5 921.895>
VStem: 12 236<929.111 1313.76> 154 241<0 199.957>
AnchorPoint: "above_accent" 516 1322 basechar 0
LayerCount: 2
Back
SplineSet
332 0 m 5
 201 0 l 5
 158 170 52 1035 6 1286 c 5
 160 1318 l 5
 280 675 246 608 290 298 c 5
 360 528 429 886 435 957 c 5
 480 957 568 957 602 969 c 5
 638 778 686 485 744 300 c 5
 777 585 741 624 868 1315 c 5
 1023 1281 l 5
 971 1030 868 178 835 0 c 5
 699 0 l 5
 699 0 553 429 521 613 c 5
 474 388 340 22 332 0 c 5
EndSplineSet
Fore
SplineSet
395 0 m 1xd0
 154 0 l 1xd0
 111 173 58 1056 12 1312 c 1
 248 1341 l 1xe0
 274 1148 276 1050 279 986 c 0
 290 740 288 412 298 316 c 1
 298 316 417 916 423 988 c 1
 444 988 476 985 509 985 c 0
 548 985 590 989 619 1004 c 1
 648 786 739 319 739 319 c 1
 756 458 751 726 766 962 c 0
 770 1027 767 1154 804 1343 c 1
 1028 1305 l 1
 976 1049 901 182 868 0 c 1
 622 0 l 1
 622 0 552 397 520 585 c 1
 473 355 400 12 395 0 c 1xd0
EndSplineSet
Validated: 1
EndChar

StartChar: X
Encoding: 88 88 47
Width: 1060
VWidth: 0
Flags: W
HStem: 1351 22G<165.355 255 777.151 824.556>
LayerCount: 2
Fore
SplineSet
789 1371 m 1
 997 1254 l 1
 651 688 l 1
 822 416 865 252 1007 112 c 1
 841 -45 l 1
 689 105 665 207 513 454 c 1
 229 -54 l 1
 19 78 l 1
 365 670 l 1
 245 878 139 1059 -1 1218 c 1
 190 1373 l 1
 320 1224 404 1070 507 895 c 1
 789 1371 l 1
EndSplineSet
Validated: 1
EndChar

StartChar: Y
Encoding: 89 89 48
Width: 1060
VWidth: 0
Flags: W
HStem: 0 21G<368 618> 1343 20G<201.936 253 745 797.529>
VStem: 368 250<0 654.188>
AnchorPoint: "above_accent" 500 1322 basechar 0
LayerCount: 2
Fore
SplineSet
368 0 m 1
 368 138 l 2
 368 230 375 492 375 613 c 1
 296 726 65 1114 14 1222 c 1
 233 1363 l 1
 273 1284 424 992 511 852 c 1
 609 994 726 1287 764 1376 c 1
 992 1240 l 1
 945 1144 695 702 625 602 c 1
 625 554 623 505 623 450 c 1
 620 315 618 171 618 128 c 2
 618 0 l 1
 368 0 l 1
EndSplineSet
Validated: 1
EndChar

StartChar: Z
Encoding: 90 90 49
Width: 1060
VWidth: 0
Flags: W
HStem: 0 217<396 923.981> 1119 209<89 672>
AnchorPoint: "above_accent" 516 1322 basechar 0
LayerCount: 2
Fore
SplineSet
123 0 m 1
 28 136 l 1
 672 1119 l 1
 458 1119 203 1114 89 1114 c 1
 88 1324 l 1
 208 1324 630 1328 818 1328 c 0
 893 1328 939 1315 958 1312 c 1
 958 1310 958 1308 958 1305 c 0
 958 1266 974 1160 974 1126 c 0
 974 1123 974 1120 974 1118 c 1
 396 217 l 1
 750 216 l 2
 835 216 862 221 927 242 c 1
 998 27 l 1
 953 11 884 0 809 0 c 0
 639 0 197 0 130 0 c 2
 123 0 l 1
EndSplineSet
Validated: 1
EndChar

StartChar: I
Encoding: 73 73 50
Width: 1060
VWidth: 0
Flags: W
HStem: -3 221<134 366 622 848> 1112 212<138 366 622 852>
VStem: 366 256<219 1119>
AnchorPoint: "above_accent" 491 1322 basechar 0
LayerCount: 2
Fore
SplineSet
132 1324 m 1
 288 1328 389 1329 485 1329 c 0
 590 1329 690 1328 853 1326 c 1
 852 1115 l 1
 729 1115 717 1120 622 1120 c 1
 622 219 l 1
 668 219 653 220 704 220 c 0
 749 220 796 219 848 216 c 1
 849 -1 l 1
 764 4 702 5 639 5 c 0
 592 5 543 4 484 4 c 0
 410 4 289 -3 134 -3 c 1
 134 213 l 1
 219 217 257 218 314 218 c 2
 366 218 l 1
 366 1119 l 1
 300 1118 244 1118 138 1112 c 1
 132 1324 l 1
EndSplineSet
Validated: 1
EndChar

StartChar: J
Encoding: 74 74 51
Width: 1060
VWidth: 0
Flags: W
HStem: -8 212<336.058 501.189> 1108 216<297.255 546.489 809 953>
VStem: 22 260<263.288 434> 572 260<299.714 1100.45>
AnchorPoint: "above_accent" 591 1322 basechar 0
LayerCount: 2
Fore
SplineSet
414 -8 m 0
 139 -8 24 215 22 435 c 1
 282 434 l 1
 288 281 342 204 408 204 c 0
 526 204 572 333 572 672 c 0
 572 769 555 966 543 1106 c 1
 494 1106 476 1108 439 1108 c 1
 335 1105 323 1096 296 1090 c 1
 259 1302 l 1
 289 1309 320 1321 438 1324 c 1
 583 1324 800 1323 956 1323 c 1
 953 1106 l 1
 905 1106 859 1110 809 1110 c 1
 825 928 832 784 832 658 c 0
 832 297 744 -8 414 -8 c 0
EndSplineSet
Validated: 1
EndChar

StartChar: zero
Encoding: 48 48 52
Width: 1060
VWidth: 0
Flags: W
HStem: -17 208<418.679 588.668> 1105 207<431.419 590.919>
VStem: 91 255<583.085 996.493> 666 254<289.984 719.397>
LayerCount: 2
Fore
SplineSet
348 581 m 1
 629 970 l 1
 598 1070 584 1105 513 1105 c 0
 359 1105 346 814 346 631 c 0
 346 608 348 581 348 581 c 1
665 726 m 1
 377 332 l 1
 403 237 431 191 499 191 c 0
 656 191 666 442 666 677 c 0
 666 705 665 726 665 726 c 1
515 1312 m 0
 842 1312 920 976 920 660 c 0
 920 336 848 -17 512 -17 c 0
 167 -17 91 286 91 616 c 0
 91 951 158 1312 515 1312 c 0
EndSplineSet
Validated: 1
EndChar

StartChar: period
Encoding: 46 46 53
Width: 1060
VWidth: 26
Flags: W
HStem: 0 313<344 659>
VStem: 344 315<0 313>
LayerCount: 2
Fore
SplineSet
344 313 m 1
 659 313 l 1
 659 0 l 1
 344 0 l 1
 344 313 l 1
EndSplineSet
Validated: 1
EndChar

StartChar: comma
Encoding: 44 44 54
Width: 1060
VWidth: 26
Flags: W
VStem: 336 323<5 309> 449 210<-166.501 6>
LayerCount: 2
Fore
SplineSet
332 309 m 1x80
 658 311 l 1
 659 11 l 1
 659 8 l 2x80
 659 -189 572 -358 405 -434 c 1
 307 -253 l 1
 399 -202 449 -132 449 6 c 1x40
 336 5 l 1
 332 309 l 1x80
EndSplineSet
Validated: 1
EndChar

StartChar: ae
Encoding: 230 230 65
Width: 1060
VWidth: 6
Flags: W
HStem: 0 208<655.512 793.522> 4 158<273.037 389.008> 447 207<648 789.924> 508 153<279.122 416.124> 808 210<223.801 396.892 658.059 770.841>
VStem: 23 233<170.1 501.996> 418 230<213.337 447 654 789.913>
AnchorPoint: "above_accent" 515 1107 basechar 0
LayerCount: 2
Fore
SplineSet
648 675 m 2x2e
 648 654 l 1
 686 654 748 654 792 660 c 1
 786 764 761 808 702 808 c 0
 662 808 648 760 648 675 c 2x2e
256 322 m 0
 256 214 284 162 322 162 c 0
 412 162 407 299 418 327 c 1
 418 474 l 1
 375 499 368 508 314 508 c 0x5e
 281 508 256 423 256 322 c 0
722 0 m 0xae
 564 0 526 75 505 97 c 1
 475 63 415 4 312 4 c 0
 249 4 184 19 130 57 c 0
 49 114 23 211 23 309 c 0
 23 476 87 661 291 661 c 0x5e
 368 661 380 645 418 629 c 1
 418 726 413 808 307 808 c 2
 298 808 l 2
 245 808 227 788 198 702 c 1
 0 784 l 1
 70 970 182 1018 300 1018 c 0
 356 1018 402 1015 463 968 c 1
 482 952 501 928 513 909 c 1
 530 935 589 1018 691 1018 c 1
 892 1018 990 796 998 570 c 1
 998 454 l 1
 900 450 762 447 680 447 c 0
 668 447 657 447 648 447 c 1
 646 274 l 1
 662 232 673 208 712 208 c 0
 787 208 800 244 806 290 c 1
 996 218 l 1
 996 218 947 0 722 0 c 0xae
EndSplineSet
Validated: 1
EndChar

StartChar: exclam
Encoding: 33 33 68
Width: 1060
VWidth: 0
Flags: W
HStem: 0 270<350 700> 1321 20G<367 682>
VStem: 350 350<0 270> 367 315<525.64 1341> 383 283<431 1246.15>
LayerCount: 2
Fore
SplineSet
682 1341 m 1xd0
 666 431 l 1
 383 429 l 1xc8
 367 1341 l 1
 682 1341 l 1xd0
350 270 m 1xe0
 700 270 l 1
 700 0 l 1
 350 0 l 1
 350 270 l 1xe0
EndSplineSet
Validated: 1
EndChar

StartChar: quotesingle
Encoding: 39 39 70
Width: 1060
VWidth: -25
Flags: W
HStem: 804 660
VStem: 372 279<1052.05 1464>
LayerCount: 2
Fore
SplineSet
372 1464 m 1
 651 1464 l 1
 651 1181 642 1005 608 804 c 1
 386 821 l 1
 396 876 406 980 406 1048 c 0
 406 1135 395 1184 372 1230 c 1
 372 1464 l 1
EndSplineSet
Validated: 1
EndChar

StartChar: Aring
Encoding: 197 197 76
Width: 1060
VWidth: 0
Flags: W
HStem: 0 21G<6 267.5 750 1026> 281 223<390.856 651> 1561 142<439.983 602.971>
VStem: 6 260<0 174.195> 246 189<1444.55 1552.35> 607 190<1443.71 1552.35> 750 276<0 224.965>
AnchorPoint: "above_accent" 904 1334 basechar 0
LayerCount: 2
Fore
SplineSet
521 1561 m 0xec
 468 1561 435 1530 435 1499 c 0
 435 1468 469 1436 521 1436 c 0
 573 1436 607 1468 607 1499 c 0
 607 1530 574 1561 521 1561 c 0xec
651 504 m 1
 625 647 526 844 525 998 c 1
 519 830 426 625 388 486 c 1
 448 499 568 499 651 504 c 1
246 1499 m 0
 246 1615 374 1703 522 1703 c 0
 670 1703 797 1615 797 1499 c 0xec
 797 1416 737 1351 643 1321 c 1
 976 244 l 2
 1000 163 1026 79 1026 0 c 1
 750 0 l 1
 750 59 740 114 725 167 c 2
 693 281 l 1
 541 278 456 282 336 252 c 1
 306 162 l 2
 286 101 269 43 266 0 c 1
 6 0 l 1xf2
 10 61 34 143 60 223 c 2
 416 1318 l 1
 316 1346 246 1413 246 1499 c 0
EndSplineSet
Validated: 1
EndChar

StartChar: ccedilla
Encoding: 231 231 81
Width: 1060
VWidth: 12
Flags: W
HStem: -431 172<393.653 606.298> -152 356<430.465 605.662> 807 211<423.703 691.653>
VStem: 71 256<305.887 702.322> 609 224<-252.692 -158.173>
LayerCount: 2
Fore
SplineSet
327 528 m 0
 327 209 495 204 542 204 c 2
 554 204 l 2
 654 204 708 269 756 350 c 1
 982 216 l 1
 924 87 818 15 651 -3 c 1
 651 -24 650 -51 650 -53 c 1
 747 -58 833 -115 833 -229 c 0
 833 -359 719 -431 561 -431 c 0
 495 -431 403 -413 347 -377 c 1
 407 -230 l 1
 440 -248 485 -259 536 -259 c 0
 572 -259 606 -248 609 -210 c 1
 609 -208 l 2
 609 -179 586 -152 538 -152 c 0
 490 -152 457 -155 429 -165 c 1
 429 1 l 1
 363 10 297 31 241 73 c 1
 111 174 71 328 71 527 c 0
 71 867 249 1018 564 1018 c 0
 659 1018 756 999 819 957 c 0
 879 917 925 858 947 806 c 1
 727 704 l 1
 717 742 686 807 546 807 c 0
 399 807 327 671 327 528 c 0
EndSplineSet
Validated: 1
EndChar

StartChar: AE
Encoding: 198 198 82
Width: 1060
VWidth: 0
Flags: W
HStem: -5 208<694 949.972> 225 209<292 440.42> 642 208<646 861> 1114 208<606 959>
AnchorPoint: "above_accent" 602 1322 basechar 0
LayerCount: 2
Fore
SplineSet
1008 32 m 1
 961 7 896 -5 821 -5 c 2
 479 -5 l 1
 468 150 458 222 458 222 c 1
 440 224 425 225 411 225 c 0
 383 225 302 223 268 215 c 1
 251 144 244 71 234 0 c 1
 0 0 l 1
 22 182 177 894 272 1323 c 1
 417 1320 l 1
 460 1322 514 1322 574 1322 c 0
 614 1322 656 1322 699 1322 c 2
 959 1322 l 1
 959 1116 l 1
 942 1116 l 2
 859 1116 871 1114 748 1114 c 2
 606 1114 l 1
 630 846 l 1
 681 847 670 850 755 850 c 2
 861 850 l 1
 861 642 l 1
 755 642 l 2
 673 642 691 639 646 638 c 1
 694 203 l 1
 851 203 l 1
 912 203 950 228 950 228 c 1
 1008 32 l 1
441 434 m 1
 398 997 l 1
 355 802 319 612 292 428 c 1
 321 431 390 434 441 434 c 1
EndSplineSet
Validated: 1
EndChar

StartChar: Ccedilla
Encoding: 199 199 83
Width: 1060
VWidth: 6
Flags: W
HStem: -442 172<427.653 640.286> -163 361<465.443 640.353> 1128 204<456.612 683.073>
VStem: 56 262<370.861 936.313> 643 223<-263.692 -169.173>
LayerCount: 2
Fore
SplineSet
566 1128 m 0
 451 1128 318 992 318 628 c 0
 318 354 434 198 540 198 c 2
 554 198 l 2
 678 198 716 262 764 392 c 1
 1010 255 l 1
 951 128 829 38 685 8 c 1
 684 -7 684 -61 684 -64 c 1
 781 -69 866 -126 866 -240 c 0
 866 -370 753 -442 595 -442 c 0
 529 -442 437 -424 381 -388 c 1
 441 -241 l 1
 474 -259 519 -270 570 -270 c 0
 606 -270 640 -259 643 -221 c 1
 643 -219 l 2
 643 -190 619 -163 571 -163 c 0
 523 -163 490 -166 462 -176 c 1
 462 6 l 1
 381 20 299 52 235 116 c 1
 115 241 56 408 56 636 c 0
 56 895 137 1054 189 1132 c 0
 261 1240 397 1332 572 1332 c 0
 712 1332 886 1269 974 1107 c 1
 742 982 l 1
 692 1106 652 1128 566 1128 c 0
EndSplineSet
Validated: 1
EndChar

StartChar: quotedbl
Encoding: 34 34 92
Width: 1060
VWidth: -25
Flags: W
HStem: 804 660
VStem: 188 256<1035.06 1464> 610 256<1035.06 1464>
LayerCount: 2
Fore
SplineSet
610 1464 m 1
 866 1464 l 1
 866 1181 857 1005 823 804 c 1
 624 821 l 1
 634 876 639 963 639 1031 c 0
 639 1118 632 1180 610 1235 c 1
 610 1464 l 1
188 1464 m 1
 444 1464 l 1
 444 1181 435 1005 401 804 c 1
 202 821 l 1
 212 876 217 963 217 1031 c 0
 217 1118 210 1180 188 1235 c 1
 188 1464 l 1
EndSplineSet
Validated: 1
EndChar

StartChar: numbersign
Encoding: 35 35 93
Width: 1060
VWidth: 6
Flags: W
HStem: -19 21G<130 369.583 495.5 720> 360 198<41.3235 164 412 534 788 946> 784 194<51.6516 218 462 582 830 952> 1314 20G<256 274.5 646 861.5>
VStem: 260 230<984.709 1331> 646 228<1003.46 1322>
LayerCount: 2
Fore
SplineSet
438 782 m 1
 412 558 l 1
 564 557 l 1
 582 778 l 1
 438 782 l 1
368 -19 m 1
 130 -15 l 1
 137 98 145 191 164 358 c 1
 111 357 68 348 40 339 c 1
 -6 521 l 1
 50 541 126 550 192 555 c 1
 207 635 209 699 218 778 c 1
 200 779 l 1
 135 775 85 770 50 757 c 1
 -4 941 l 1
 61 966 144 970 228 975 c 1
 250 1159 252 1189 260 1334 c 1
 289 1334 402 1332 440 1332 c 0
 459 1332 476 1332 490 1331 c 1
 483 1210 477 1122 462 978 c 1
 598 974 l 1
 617 1137 627 1203 646 1322 c 1
 874 1323 l 1
 849 1202 849 1136 830 978 c 1
 952 978 l 1
 952 780 l 1
 812 784 l 1
 788 557 l 1
 950 558 l 1
 946 362 l 1
 762 365 l 1
 740 168 729 98 720 -23 c 1
 490 -25 l 1
 501 87 514 185 534 361 c 1
 398 360 l 1
 383 210 368 -19 368 -19 c 1
EndSplineSet
Validated: 1
EndChar

StartChar: dollar
Encoding: 36 36 94
Width: 1060
VWidth: 0
Flags: W
HStem: 1063 203<339.039 415>
VStem: 38 244<308.172 448> 62 256<874.333 1046.22> 713 252<304.908 537.087>
LayerCount: 2
Fore
SplineSet
238 703 m 0xd0
 130 748 62 832 62 979 c 0xb0
 62 1161 226 1257 418 1266 c 1
 410 1468 l 1
 659 1454 l 1
 636 1263 l 1
 776 1248 896 1175 950 1053 c 1
 728 963 l 1
 720 1024 678 1044 624 1052 c 1
 610 802 l 1
 670 782 704 770 754 748 c 1
 859 700 965 604 965 424 c 0
 965 174 790 68 564 64 c 1
 560 -140 l 1
 327 -131 l 1
 348 73 l 1
 117 109 38 279 38 448 c 1
 285 449 l 1
 283 434 282 420 282 408 c 0
 282 340 317 294 365 283 c 1
 388 644 l 1
 348 655 286 682 238 703 c 0xd0
415 1063 m 1
 356 1063 318 1020 318 970 c 0
 318 908 341 873 403 857 c 1
 415 1063 l 1
574 262 m 1
 662 275 713 320 713 427 c 0
 713 516 679 540 594 578 c 1
 574 262 l 1
EndSplineSet
Validated: 1
EndChar

StartChar: oe
Encoding: 339 339 95
Width: 1060
VWidth: 6
Flags: W
HStem: 0 208<287.936 389.937 656.337 796.003> 447 207<648 789.924> 812 205<304.571 398.82 654.614 770.442>
VStem: 24 228<235.387 754.4> 412 236<223.002 447 654 804.526>
LayerCount: 2
Fore
SplineSet
996 218 m 1
 996 218 911 0 708 0 c 0
 616 0 540 40 487 95 c 1
 463 63 410 0 336 0 c 0
 280 0 211 5 131 91 c 0
 28 202 24 380 24 459 c 0
 24 505 25 585 35 635 c 1
 56 758 118 1017 327 1017 c 0
 406 1017 445 990 486 954 c 0
 497 945 504 937 509 931 c 1
 532 968 576 1018 691 1018 c 0
 892 1018 990 796 998 570 c 1
 998 454 l 1
 900 450 762 447 680 447 c 0
 668 447 657 447 648 447 c 1
 646 274 l 1
 662 232 673 208 712 208 c 0
 787 208 800 244 806 290 c 1
 996 218 l 1
648 675 m 2
 648 654 l 1
 686 654 748 654 792 660 c 1
 786 764 769 808 691 808 c 0
 651 808 648 760 648 675 c 2
330 208 m 0
 382 208 410 279 410 338 c 2
 412 698 l 2
 412 720 408 812 336 812 c 0
 308 812 255 687 252 474 c 0
 252 468 252 462 252 456 c 0
 252 362 278 208 330 208 c 0
EndSplineSet
Validated: 1
EndChar

StartChar: bracketleft
Encoding: 91 91 96
Width: 1060
VWidth: 66
Flags: W
HStem: -259 207<582 882> 1277 206<582 845.949>
VStem: 318 264<-55 1265>
LayerCount: 2
Fore
SplineSet
844 1483 m 1
 872 1277 l 1
 791 1269 715 1269 582 1265 c 1
 582 -55 l 1
 659 -52 743 -52 758 -52 c 2
 768 -52 l 2
 818 -52 871 -57 882 -60 c 1
 888 -268 l 1
 863 -265 823 -259 752 -259 c 0
 693 -259 413 -261 320 -261 c 1
 320 -83 322 0 322 180 c 0
 322 270 321 391 320 570 c 0
 320 745 318 921 318 1052 c 2
 318 1473 l 1
 411 1473 689 1477 740 1477 c 1
 812 1480 821 1481 844 1483 c 1
EndSplineSet
Validated: 1
EndChar

StartChar: bracketright
Encoding: 93 93 97
Width: 1060
VWidth: 66
Flags: W
HStem: -259 207<161 461> 1277 206<197.051 462>
VStem: 462 264<-55 1265>
LayerCount: 2
Fore
SplineSet
199 1483 m 1
 222 1481 231 1480 303 1477 c 1
 354 1477 633 1473 726 1473 c 1
 726 1052 l 2
 726 921 724 745 724 570 c 0
 723 391 722 270 722 180 c 0
 722 0 724 -83 724 -261 c 1
 631 -261 350 -259 291 -259 c 0
 220 -259 180 -265 155 -268 c 1
 161 -60 l 1
 172 -57 225 -52 275 -52 c 2
 285 -52 l 2
 300 -52 384 -52 461 -55 c 1
 462 1265 l 1
 329 1269 252 1269 171 1277 c 1
 199 1483 l 1
EndSplineSet
Validated: 1
EndChar

StartChar: parenleft
Encoding: 40 40 98
Width: 1060
VWidth: 66
Flags: W
HStem: -262 250<726.789 892> 1250 234<704.03 893>
VStem: 205 269<303.165 962.945>
LayerCount: 2
Fore
SplineSet
893 1250 m 1
 891 1250 888 1250 886 1250 c 0
 623 1250 474 1067 474 616 c 0
 474 173 664 -11 893 -12 c 1
 892 -262 l 1
 532 -259 205 0 205 612 c 0
 205 1225 462 1471 893 1484 c 1
 893 1250 l 1
EndSplineSet
Validated: 1
EndChar

StartChar: parenright
Encoding: 41 41 99
Width: 1060
VWidth: 66
Flags: W
HStem: -262 250<147 312.211> 1250 234<146 334.97>
VStem: 565 269<303.165 962.945>
LayerCount: 2
Fore
SplineSet
146 1250 m 1
 146 1484 l 1
 577 1471 834 1225 834 612 c 0
 834 0 507 -259 147 -262 c 1
 146 -12 l 1
 375 -11 565 173 565 616 c 0
 565 1067 415 1250 152 1250 c 0
 150 1250 148 1250 146 1250 c 1
EndSplineSet
Validated: 1
EndChar

StartChar: hyphen
Encoding: 45 45 100
Width: 1060
VWidth: 6
Flags: W
HStem: 413 244<88 974>
LayerCount: 2
Fore
SplineSet
82 654 m 1
 127 656 177 657 227 657 c 0
 327 657 428 654 496 654 c 0
 537 654 576 654 615 654 c 0
 697 654 849 653 956 652 c 1
 974 652 l 1
 974 407 l 1
 956 407 l 1
 821 410 619 410 494 410 c 0
 451 410 360 413 260 413 c 0
 203 413 143 412 88 409 c 1
 88 531 l 1
 82 654 l 1
EndSplineSet
Validated: 1
EndChar

StartChar: plus
Encoding: 43 43 101
Width: 1060
VWidth: 6
Flags: W
HStem: 0 21G<400 652> 391 235<62 400 651 970> 998 20G<402 647.898>
VStem: 400 252<0 391 627 1017>
LayerCount: 2
Fore
SplineSet
60 616 m 1
 108 625 138 626 203 626 c 0
 215 626 228 626 242 626 c 2
 402 626 l 1
 402 1017 l 1
 648 1018 l 1
 646 627 l 1
 772 627 826 625 888 625 c 0
 915 625 943 625 970 625 c 1
 970 391 l 1
 956 391 l 2
 950 391 861 391 651 394 c 1
 652 0 l 1
 400 0 l 1
 400 391 l 1
 367 391 338 391 311 391 c 0
 178 391 119 390 62 382 c 1
 60 616 l 1
EndSplineSet
Validated: 1
EndChar

StartChar: less
Encoding: 60 60 102
Width: 1060
VWidth: 4
Flags: W
LayerCount: 2
Fore
SplineSet
934 155 m 1
 768 -49 l 1
 744 -13 692 33 644 71 c 1
 549 150 142 377 116 395 c 1
 114 621 l 1
 271 750 583 976 716 1054 c 0
 746 1071 767 1085 802 1096 c 1
 932 889 l 1
 771 804 551 636 392 513 c 1
 535 412 854 279 934 155 c 1
EndSplineSet
Validated: 1
EndChar

StartChar: greater
Encoding: 62 62 103
Width: 1060
VWidth: 4
Flags: W
LayerCount: 2
Fore
SplineSet
112 158 m 1
 192 282 511 415 654 516 c 1
 495 639 275 807 114 892 c 1
 244 1099 l 1
 279 1088 300 1074 330 1057 c 0
 463 979 775 753 932 624 c 1
 930 398 l 1
 904 380 497 153 402 74 c 1
 354 36 302 -10 278 -46 c 1
 112 158 l 1
EndSplineSet
Validated: 1
EndChar

StartChar: slash
Encoding: 47 47 104
Width: 1060
VWidth: 60
Flags: W
LayerCount: 2
Fore
SplineSet
64 -50 m 1
 192 227 569 1112 704 1468 c 1
 922 1372 l 1
 784 1020 404 133 284 -149 c 1
 64 -50 l 1
EndSplineSet
Validated: 1
EndChar

StartChar: one
Encoding: 49 49 105
Width: 1060
VWidth: 0
Flags: W
HStem: -9 21G<508.958 767> 1302 20G<521 632.556>
VStem: 509 258<-9 953>
LayerCount: 2
Fore
SplineSet
525 1322 m 1
 767 1277 l 1
 767 -9 l 1
 509 -9 l 1
 507 953 l 1
 439 868 338 764 208 691 c 1
 64 905 l 1
 371 1059 517 1307 525 1322 c 1
EndSplineSet
Validated: 1
EndChar

StartChar: two
Encoding: 50 50 106
Width: 1060
VWidth: 0
Flags: W
HStem: 0 215<416 932> 1095 211<390.131 625.359>
VStem: 92 255<865.544 1053.56> 668 247<799.934 1053.47>
LayerCount: 2
Fore
SplineSet
363 864 m 1
 112 822 l 1
 103 851 94 898 92 934 c 0
 92 943 92 951 92 959 c 0
 92 1150 237 1306 493 1306 c 0
 763 1306 915 1195 915 925 c 0
 915 727 796 623 716 538 c 1
 661 483 416 271 416 215 c 1
 932 215 l 1
 932 0 l 1
 72 0 l 1
 72 30 70 62 70 95 c 0
 70 121 71 148 76 176 c 0
 94 273 174 374 282 475 c 0
 407 590 668 755 668 926 c 0
 668 1042 611 1095 508 1095 c 0
 434 1095 347 1051 347 951 c 3
 347 926 351 897 363 864 c 1
EndSplineSet
Validated: 1
EndChar

StartChar: three
Encoding: 51 51 107
Width: 1060
VWidth: 0
Flags: W
HStem: -22 213<342.211 596.703> 621 200<340 523.551> 1122 198<350.4 573.115>
VStem: 54 251<228.257 335> 603 254<893.851 1093.73> 666 258<260.412 519.343>
LayerCount: 2
Fore
SplineSet
54 335 m 1xf4
 305 335 l 1
 305 219 393 191 473 191 c 0
 593 191 666 285 666 379 c 0xf4
 666 489 621 531 567 566 c 0
 509 604 420 621 340 621 c 1
 340 821 l 1
 356 821 l 2
 485 821 603 880 603 1009 c 0
 603 1075 549 1122 455 1122 c 0
 347 1122 290 1014 272 978 c 1
 65 1114 l 1
 70 1129 167 1320 447 1320 c 2
 458 1320 l 2
 695 1320 857 1248 857 1026 c 0xf8
 857 898 756 757 657 738 c 1
 840 679 924 548 924 378 c 0
 924 240 890 168 810 88 c 0
 738 16 625 -22 466 -22 c 0
 184 -22 54 131 54 335 c 1xf4
EndSplineSet
Validated: 1
EndChar

StartChar: four
Encoding: 52 52 108
Width: 1060
VWidth: 0
Flags: W
HStem: 0 21G<573 830> 393 210<317 573 830 957>
VStem: 573 257<0 390 603 928 1185.25 1306>
LayerCount: 2
Fore
SplineSet
573 603 m 1
 573 928 l 1
 500 799 399 688 317 601 c 1
 573 603 l 1
31 558 m 1
 65 604 502 1040 581 1306 c 1
 830 1308 l 1
 830 603 l 1
 957 603 l 1
 957 393 l 1
 830 393 l 1
 830 0 l 1
 573 0 l 1
 573 390 l 1
 121 388 l 1
 31 558 l 1
EndSplineSet
Validated: 1
EndChar

StartChar: five
Encoding: 53 53 109
Width: 1060
VWidth: 0
Flags: W
HStem: -2 212<362.336 581.747> 709 191<372.526 580.202> 1089 199<388 827>
VStem: 662 262<288.146 618.012>
LayerCount: 2
Fore
SplineSet
471 709 m 0
 351 709 296 618 282 598 c 1
 92 678 l 1
 152 1288 l 1
 828 1286 l 1
 827 1089 l 1
 388 1089 l 1
 372 890 l 1
 372 890 412 900 490 900 c 0
 547 900 624 896 692 863 c 1
 803 804 924 708 924 448 c 0
 924 130 712 0 472 -2 c 1
 470 -2 l 2
 282 -2 150 74 70 234 c 1
 298 344 l 1
 326 266 388 210 470 210 c 0
 560 210 662 274 662 450 c 0
 662 610 573 709 471 709 c 0
EndSplineSet
Validated: 1
EndChar

StartChar: six
Encoding: 54 54 110
Width: 1060
VWidth: 0
Flags: W
HStem: -3 203<388.799 595.213> 594 201<387.87 611.487> 1106 226<616.877 789.425>
VStem: 64 263<267.907 527.275> 665 254<272.966 541.08>
LayerCount: 2
Fore
SplineSet
840 1106 m 1
 627 1085 472 1043 381 866 c 0
 350 807 342 737 340 708 c 1
 340 708 406 795 526 795 c 0
 790 795 919 638 919 407 c 0
 919 154 750 -3 487 -3 c 0
 226 -3 64 212 64 504 c 0
 64 1004 305 1282 786 1332 c 1
 840 1106 l 1
327 491 m 1
 327 299 371 200 493 200 c 0
 578 200 665 282 665 406 c 0
 665 524 592 594 526 594 c 0
 421 594 373 556 327 491 c 1
EndSplineSet
Validated: 1
EndChar

StartChar: seven
Encoding: 55 55 111
Width: 1060
VWidth: 0
Flags: W
HStem: 0 21G<294 555> 1070 216<301.15 744>
VStem: 294 261<0 332.585>
LayerCount: 2
Fore
SplineSet
151 1292 m 1
 235 1292 343 1286 420 1286 c 0
 571 1286 736 1293 879 1293 c 2
 920 1293 l 1
 1020 1130 l 1
 722 662 555 454 555 0 c 1
 294 0 l 1
 294 407 455 674 744 1073 c 1
 657 1070 554 1070 463 1070 c 0
 400 1070 375 1070 312 1073 c 1
 310 1072 296 1006 292 969 c 1
 38 1033 l 1
 57 1092 119 1226 151 1292 c 1
EndSplineSet
Validated: 1
EndChar

StartChar: eight
Encoding: 56 56 112
Width: 1060
VWidth: 0
Flags: W
HStem: -9 212<378.481 631.519> 1091 202<379.259 630.741>
VStem: 54 258<271.169 512.147> 112 250<891.094 1071.39> 648 250<891.094 1071.39> 698 258<271.169 512.147>
LayerCount: 2
Fore
SplineSet
505 203 m 0xe4
 574 203 698 250 698 388 c 0
 698 469 637 572 505 632 c 1
 373 572 312 469 312 388 c 0
 312 250 436 203 505 203 c 0xe4
505 840 m 1
 613 863 648 944 648 990 c 0
 648 1085 571 1091 505 1091 c 0
 439 1091 362 1085 362 990 c 0xd8
 362 944 397 863 505 840 c 1
505 1293 m 0
 766 1293 898 1173 898 985 c 0xd8
 898 882 813 762 724 736 c 1
 846 684 956 560 956 378 c 0
 956 141 764 -9 505 -9 c 0
 246 -9 54 141 54 378 c 0xe4
 54 560 164 684 286 736 c 1
 197 762 112 882 112 985 c 0
 112 1173 244 1293 505 1293 c 0
EndSplineSet
Validated: 1
EndChar

StartChar: nine
Encoding: 57 57 113
Width: 1060
VWidth: 0
Flags: W
HStem: -2 207<357.161 599.537> 583 201<380.282 638.91> 1106 196<370.375 599.162>
VStem: 68 256<842.769 1060.72> 692 253<322.08 815.619>
LayerCount: 2
Fore
SplineSet
487 1106 m 1
 377 1106 324 1026 324 958 c 0
 324 850 405 784 497 784 c 0
 593 784 645 826 683 870 c 1
 667 1020 591 1106 487 1106 c 1
68 955 m 0
 68 1155 237 1302 479 1302 c 0
 873 1302 945 1012 945 644 c 0
 945 320 867 0 487 -2 c 0
 486 -2 485 -2 484 -2 c 0
 241 -2 92 110 27 310 c 1
 277 394 l 1
 322 249 378 205 492 205 c 0
 630 205 692 353 692 581 c 0
 692 597 690 631 690 631 c 1
 663 611 609 583 480 583 c 0
 266 583 68 730 68 955 c 0
EndSplineSet
Validated: 1
EndChar

StartChar: equal
Encoding: 61 61 114
Width: 1060
VWidth: 6
Flags: W
HStem: 176 218<56 900> 627 222<54.6797 895>
LayerCount: 2
Fore
SplineSet
54 394 m 1
 194 402 306 402 420 402 c 0
 598 402 732 394 900 394 c 1
 900 170 l 1
 726 170 582 174 400 174 c 0
 350 174 300 176 248 176 c 0
 188 176 124 174 56 170 c 1
 54 394 l 1
48 861 m 1
 191 852 302 849 396 849 c 0
 588 849 697 859 895 859 c 1
 897 639 l 1
 704 639 593 627 396 627 c 0
 300 627 192 634 47 643 c 1
 47 673 46 723 46 770 c 0
 46 805 47 839 48 861 c 1
EndSplineSet
Validated: 1
EndChar

StartChar: backslash
Encoding: 92 92 115
Width: 1060
VWidth: 60
Flags: W
LayerCount: 2
Fore
SplineSet
922 -50 m 1
 704 -149 l 1
 584 133 202 1020 64 1372 c 1
 284 1468 l 1
 419 1112 794 227 922 -50 c 1
EndSplineSet
Validated: 1
EndChar

StartChar: asciicircum
Encoding: 94 94 116
Width: 1060
VWidth: -10
Flags: W
HStem: 438 663
LayerCount: 2
Fore
SplineSet
520 1101 m 1
 1027 617 l 1
 864 438 l 1
 522 744 l 1
 180 438 l 1
 10 606 l 1
 520 1101 l 1
EndSplineSet
Validated: 1
EndChar

StartChar: underscore
Encoding: 95 95 117
Width: 1060
VWidth: 41
Flags: W
HStem: -334 213<46 992>
LayerCount: 2
Fore
SplineSet
46 -121 m 1
 992 -121 l 1
 992 -334 l 1
 42 -334 l 1
 46 -121 l 1
EndSplineSet
Validated: 1
EndChar

StartChar: grave
Encoding: 96 96 118
Width: 1060
VWidth: -25
Flags: W
HStem: 900 599
VStem: 178 675
LayerCount: 2
Fore
SplineSet
370 1499 m 1
 444 1385 759 1156 853 1120 c 1
 733 900 l 1
 537 1023 348 1137 178 1322 c 1
 370 1499 l 1
EndSplineSet
Validated: 1
EndChar

StartChar: question
Encoding: 63 63 119
Width: 1060
VWidth: 0
Flags: W
HStem: 0 270<314 666> 1153 192<386.204 627.816>
VStem: 86 259<862.261 1110.04> 314 352<0 270> 349 272<431 613.093> 669 251<892.641 1110.38>
LayerCount: 2
Fore
SplineSet
314 270 m 1xd4
 666 270 l 1
 666 0 l 1
 314 0 l 1
 314 270 l 1xd4
501 1345 m 0
 758 1345 920 1217 920 991 c 0
 920 821 818 755 731 685 c 0
 673 638 621 567 621 479 c 2
 621 430 l 5
 349 431 l 5
 349 475 l 2
 349 621 447 734 516 795 c 0
 598 868 669 907 669 994 c 0
 669 1086 620 1153 511 1153 c 0
 409 1153 347 1104 345 995 c 0
 345 956 370 918 391 892 c 1
 173 743 l 1
 127 807 86 876 86 967 c 0xec
 86 1226 271 1345 501 1345 c 0
EndSplineSet
Validated: 1
EndChar

StartChar: asciitilde
Encoding: 126 126 120
Width: 1060
VWidth: -12
Flags: W
HStem: 375 210<639.392 787.546> 596 211<250.546 404.74>
LayerCount: 2
Fore
SplineSet
332 807 m 0
 562 807 620 585 710 585 c 0
 796 585 818 675 824 743 c 1
 1032 689 l 1
 1032 584 977 375 700 375 c 1
 476 375 437 596 325 596 c 0
 269 596 218 531 194 441 c 1
 12 551 l 1
 46 681 130 807 332 807 c 0
EndSplineSet
Validated: 1
EndChar

StartChar: Oslash
Encoding: 216 216 127
Width: 1060
VWidth: 0
Flags: W
HStem: -16 203<387.548 609.054> 1147 203<415.193 618.883> 1408 20G<821.5 866.683>
VStem: 36 261<473.832 964.02> 718 261<341.03 810.454>
AnchorPoint: "above_accent" 515 1322 basechar 0
LayerCount: 2
Fore
SplineSet
884 1128 m 1
 940 1024 977 870 979 647 c 1
 979 636 l 2
 979 469 948 312 900 217 c 0
 825 70 675 -16 510 -16 c 0
 435 -16 349 0 276 35 c 1
 192 -115 l 1
 33 -11 l 1
 66 47 98 106 131 164 c 1
 62 273 36 415 36 579 c 0
 36 931 96 1090 166 1187 c 0
 232 1279 366 1347 522 1350 c 1
 587 1350 674 1338 754 1282 c 1
 781 1331 808 1379 835 1428 c 1
 995 1327 l 1
 884 1128 l 1
385 232 m 1
 419 196 454 187 510 187 c 0
 589 187 638 249 669 326 c 1
 696 385 717 541 718 640 c 1
 718 657 l 2
 718 705 716 761 711 817 c 1
 385 232 l 1
640 1076 m 1
 606 1129 566 1147 521 1147 c 0
 456 1147 418 1122 378 1051 c 0
 331 968 297 835 297 592 c 0
 297 557 299 514 303 471 c 1
 416 673 529 875 640 1076 c 1
EndSplineSet
Validated: 1
EndChar

StartChar: multiply
Encoding: 215 215 128
Width: 1060
VWidth: 6
Flags: W
LayerCount: 2
Fore
SplineSet
198 999 m 1
 282 940 414 780 499 693 c 1
 808 990 l 1
 980 815 l 1
 670 519 l 1
 815 369 852 323 980 191 c 1
 812 27 l 1
 674 177 741 104 506 353 c 1
 207 38 l 1
 32 219 l 1
 329 531 l 1
 190 674 85 793 30 835 c 1
 198 999 l 1
EndSplineSet
Validated: 1
EndChar

StartChar: oslash
Encoding: 248 248 140
Width: 1060
VWidth: 6
Flags: W
HStem: -6 203<398.711 610.825> 830 202<403.553 604.78>
VStem: 72 252<490 735.229> 685 256<277.821 585.258>
AnchorPoint: "above_accent" 510 1107 basechar 0
LayerCount: 2
Fore
SplineSet
625 247 m 1
 672 299 685 403 685 530 c 0
 685 536 685 540 685 546 c 0
 685 560 685 573 684 586 c 1
 383 259 l 1
 413 220 455 197 508 197 c 0
 563 198 589 211 625 247 c 1
848 1067 m 1
 998 927 l 1
 891 812 l 1
 925 735 941 631 941 543 c 0
 941 258 845 -6 509 -6 c 2
 507 -6 l 2
 382 -6 288 25 219 80 c 1
 146 0 l 1
 0 133 l 1
 104 248 l 1
 82 311 72 384 72 464 c 0
 72 835 213 1032 505 1032 c 0
 614 1032 695 1011 759 970 c 1
 848 1067 l 1
607 802 m 1
 584 820 556 830 520 830 c 0
 371 830 325 693 324 490 c 1
 607 802 l 1
EndSplineSet
Validated: 1
EndChar

StartChar: plusminus
Encoding: 177 177 145
Width: 1060
VWidth: -6
Flags: W
HStem: 164 245<64 388 639 960> 629 235<50 388 639 958>
VStem: 388 251<411 629 865 1221>
LayerCount: 2
Fore
SplineSet
48 854 m 1
 96 863 126 864 191 864 c 0
 203 864 216 864 230 864 c 2
 390 864 l 1
 390 1221 l 1
 636 1222 l 1
 634 865 l 1
 760 865 814 863 876 863 c 0
 903 863 931 863 958 863 c 1
 958 629 l 1
 944 629 l 2
 938 629 849 629 639 632 c 1
 639 558 639 485 639 411 c 1
 732 411 861 410 942 409 c 2
 960 409 l 1
 960 164 l 1
 942 164 l 1
 807 167 567 167 442 167 c 0
 375 167 216 166 64 158 c 1
 64 280 l 1
 58 403 l 1
 171 409 292 411 388 411 c 1
 388 629 l 1
 355 629 326 629 299 629 c 0
 166 629 107 628 50 620 c 1
 48 854 l 1
EndSplineSet
Validated: 1
EndChar

StartChar: divide
Encoding: 247 247 146
Width: 1060
VWidth: 6
Flags: W
HStem: 2 282<356 671> 413 244<72 958> 758 280<356 671>
VStem: 356 315<2 284 758 1038>
LayerCount: 2
Fore
SplineSet
356 1038 m 1
 671 1038 l 1
 671 758 l 1
 356 758 l 1
 356 1038 l 1
356 284 m 1
 671 284 l 1
 671 2 l 1
 356 2 l 1
 356 284 l 1
66 654 m 1
 111 656 161 657 211 657 c 0
 311 657 412 654 480 654 c 0
 521 654 560 654 599 654 c 0
 681 654 833 653 940 652 c 1
 958 652 l 1
 958 407 l 1
 940 407 l 1
 805 410 603 410 478 410 c 0
 435 410 344 413 244 413 c 0
 187 413 127 412 72 409 c 1
 72 531 l 1
 66 654 l 1
EndSplineSet
Validated: 1
EndChar

StartChar: OE
Encoding: 338 338 149
Width: 1060
VWidth: 0
Flags: W
HStem: -8 205<346.501 435.408 686 940.903> 644 205<686 895> 1127 203<356.904 437 686 962>
VStem: 11 257<294.546 991.654> 436 250<207 644 849 1127>
LayerCount: 2
Fore
SplineSet
436 199 m 1
 437 1127 l 1
 328 1127 268 951 268 578 c 0
 268 352 322 197 418 197 c 0
 434 197 423 198 436 199 c 1
811 206 m 1
 870 208 898 216 943 232 c 1
 1009 32 l 1
 903 3 778 -1 667 -1 c 0
 620 -1 570 0 515 0 c 1
 498 -7 403 -8 388 -8 c 0
 82 4 11 291 11 597 c 0
 11 1033 109 1330 444 1330 c 0
 470 1330 498 1328 524 1323 c 1
 583 1326 646 1326 709 1326 c 0
 794 1326 880 1325 962 1325 c 1
 962 1127 l 1
 870 1127 878 1128 807 1128 c 0
 772 1128 733 1128 686 1127 c 1
 686 849 l 1
 895 849 l 1
 895 644 l 1
 686 644 l 1
 686 442 686 286 686 207 c 1
 811 206 l 1
EndSplineSet
Validated: 1
EndChar

StartChar: yen
Encoding: 165 165 150
Width: 1060
VWidth: 0
Flags: W
HStem: -6 21G<368 618> 323 226<87 371 624 932> 638 218<83 226 777 930> 1343 20G<201.936 253 745 797.529>
VStem: 368 250<-6 321 549 623.812>
LayerCount: 2
Fore
SplineSet
368 -6 m 1
 368 138 l 2
 368 177 370 247 371 323 c 1
 341 323 310 323 279 323 c 0
 219 323 156 322 87 318 c 1
 85 541 l 1
 194 547 286 549 375 549 c 1
 375 573 375 595 375 613 c 1
 373 616 370 620 367 624 c 1
 287 626 196 631 82 638 c 1
 82 668 81 718 81 765 c 0
 81 800 82 834 83 856 c 1
 135 853 182 851 226 849 c 1
 138 994 44 1158 14 1222 c 1
 233 1363 l 1
 273 1284 424 992 511 852 c 1
 609 994 726 1287 764 1376 c 1
 992 1240 l 1
 964 1184 867 1008 777 853 c 1
 823 854 873 854 930 854 c 1
 932 635 l 1
 819 635 734 631 643 628 c 1
 636 618 630 609 625 602 c 1
 625 584 624 565 624 547 c 1
 727 545 822 541 932 541 c 1
 932 317 l 1
 822 317 723 320 620 321 c 1
 618 233 618 157 618 128 c 2
 618 -6 l 1
 368 -6 l 1
EndSplineSet
Validated: 1
EndChar

StartChar: Eth
Encoding: 208 208 152
Width: 1060
VWidth: 0
Flags: W
HStem: -10 205<324 582.364> 732 210<6 76 328 582> 1127 204<328 538.026>
VStem: 76 252<198 732 942 1123.7> 702 267<320.445 873.282>
LayerCount: 2
Fore
SplineSet
403 1127 m 2
 373 1127 l 2
 357 1127 345 1127 328 1124 c 1
 329 1098 329 1068 329 1037 c 0
 329 996 328 973 328 942 c 1
 582 942 l 1
 584 733 l 1
 328 732 l 1
 327 488 325 280 324 198 c 1
 412 195 363 195 423 195 c 0
 426 195 l 0
 466 195 609 197 675 353 c 0
 694 398 702 489 702 544 c 0
 702 925 596 1127 403 1127 c 2
76 942 m 1
 76 977 l 2
 76 1106 72 1229 63 1317 c 1
 144 1325 189 1331 288 1331 c 0
 559 1331 715 1249 838 1066 c 1
 922 939 969 761 969 580 c 0
 969 511 961 442 948 376 c 0
 900 135 739 14 559 -3 c 0
 504 -8 453 -10 398 -10 c 0
 314 -10 181 -3 67 -3 c 1
 67 31 67 30 70 128 c 1
 70 174 75 454 76 732 c 1
 6 732 l 1
 6 942 l 1
 76 942 l 1
EndSplineSet
Validated: 1
EndChar

StartChar: currency
Encoding: 164 164 153
Width: 1060
VWidth: 6
Flags: W
HStem: -20 13G<178.105 218 791.882 832.105> 127 150<411.182 626.341> 745 150<412.888 629.614> 1002 20G<184 224.132>
VStem: 138 219<332.075 680.357> 671 223<322.212 666.935>
LayerCount: 2
Fore
SplineSet
619 314 m 1
 660 352 671 430 671 524 c 0
 671 528 671 531 671 535 c 0
 670 651 640 745 528 745 c 0
 397 745 357 642 357 488 c 0
 357 365 412 277 517 277 c 0
 565 278 587 287 619 314 c 1
168 677 m 1
 14 832 l 1
 204 1022 l 1
 356 871 l 1
 401 887 455 895 515 895 c 0
 587 895 645 886 693 869 c 1
 833 1009 l 1
 1024 818 l 1
 875 669 l 1
 888 625 894 577 894 533 c 0
 894 454 882 378 852 313 c 1
 1003 162 l 1
 812 -28 l 1
 642 141 l 1
 606 132 565 127 518 127 c 2
 516 127 l 2
 458 127 407 133 363 145 c 1
 198 -20 l 1
 8 171 l 1
 162 325 l 1
 146 369 138 420 138 475 c 0
 138 553 148 620 168 677 c 1
EndSplineSet
Validated: 1
EndChar

StartChar: sterling
Encoding: 163 163 154
Width: 1060
VWidth: 0
Flags: W
HStem: -16 204<603.389 784.048> -13 171<163 309.038> 666 200<114 272 550 861> 1149 202<501.372 672.047>
VStem: 65 165<160.087 271.749> 248 240<868.252 1140.42> 340 239<382.744 658.1> 786 228<194.17 266>
LayerCount: 2
Fore
SplineSet
310 193 m 1x79
 277 223 260 250 246 272 c 1
 240 267 230 239 230 218 c 0
 230 216 230 214 230 212 c 0
 232 170 243 158 252 158 c 0
 274 158 294 173 310 193 c 1x79
861 670 m 1
 787 661 704 661 606 661 c 2
 550 661 l 1
 568 568 578 495 579 385 c 0
 579 333 575 278 568 254 c 1
 637 210 674 188 722 188 c 0
 748 188 786 198 786 224 c 0
 786 229 786 262 786 267 c 1
 1014 266 l 1
 1014 213 l 1
 1010 77 910 -15 769 -16 c 0xbb
 651 -16 593 9 484 79 c 1
 422 -6 309 -13 222 -13 c 0
 104 -13 65 79 65 191 c 0
 65 327 140 456 236 456 c 0
 295 456 308 427 338 382 c 1
 340 402 340 407 340 429 c 0x7b
 339 535 331 568 312 664 c 1
 260 666 176 666 131 666 c 2
 114 666 l 1
 114 866 l 1
 272 866 l 1
 259 937 248 977 248 1043 c 0
 248 1248 389 1351 578 1351 c 0
 741 1351 865 1256 896 1129 c 1
 684 1075 l 1
 668 1137 622 1149 578 1149 c 0
 576 1149 574 1149 572 1149 c 0
 518 1149 488 1116 488 1051 c 0x7d
 488 997 503 927 514 861 c 1
 608 864 l 1
 627 864 647 864 665 864 c 0
 739 864 805 865 861 871 c 1
 861 670 l 1
EndSplineSet
Validated: 1
EndChar

StartChar: cent
Encoding: 162 162 155
Width: 1060
VWidth: 6
Flags: W
HStem: -9 281<400.814 610.193> 742 291<404.293 609.645>
VStem: 125 212<340.725 670.848> 378 234<-9 117.429 893.889 1033>
LayerCount: 2
Fore
SplineSet
337 525 m 0
 337 276 477 272 516 272 c 2
 526 272 l 2
 609 272 653 323 693 386 c 1
 881 282 l 1
 833 183 747 126 612 111 c 1
 612 -9 l 1
 378 -9 l 1
 378 122 l 1
 339 131 300 146 266 170 c 0
 158 249 125 369 125 524 c 0
 125 731 215 847 378 889 c 1
 378 1033 l 1
 612 1033 l 1
 612 902 l 1
 663 895 711 881 746 859 c 0
 796 828 834 782 852 741 c 1
 669 662 l 1
 661 692 635 742 519 742 c 0
 397 742 337 637 337 525 c 0
EndSplineSet
Validated: 1
EndChar

StartChar: percent
Encoding: 37 37 156
Width: 1060
VWidth: 0
Flags: W
HStem: -14 193<661.695 766.182> 392 193<676.888 786.624> 722 193<229.695 337.495> 1128 193<244.182 354.624> 1356 20G<787.519 838>
VStem: 1 215<924.375 1103.92> 365 225<940.689 1124.04> 433 215<188.375 371.011> 797 225<201.623 388.045>
LayerCount: 2
Fore
SplineSet
718 179 m 0xfd80
 750 179 797 253 797 304 c 0
 797 365 777 389 731 392 c 0
 730 392 730 392 729 392 c 0
 697 392 648 322 648 277 c 0
 648 223 678 179 718 179 c 0xfd80
286 915 m 0
 318 915 365 989 365 1040 c 0xfe80
 365 1101 345 1125 299 1128 c 0
 298 1128 298 1128 297 1128 c 0
 265 1128 216 1058 216 1013 c 0
 216 959 246 915 286 915 c 0
22 82 m 1
 254 504 l 2
 350 679 488 788 523 853 c 1
 469 776 384 722 282 722 c 0
 125 722 1 855 1 1012 c 0
 1 1175 141 1318 304 1321 c 0
 306 1321 309 1321 311 1321 c 0
 470 1321 590 1206 590 1057 c 0
 590 1055 590 1052 590 1040 c 0xfe80
 589 1013 582 975 569 939 c 1
 798 1376 l 1
 1022 1264 l 1
 791 837 l 1
 723 705 574 591 490 450 c 1
 546 529 637 583 736 585 c 0
 738 585 741 585 743 585 c 0
 902 585 1022 470 1022 321 c 0
 1022 319 1022 316 1022 314 c 0
 1018 152 893 -14 714 -14 c 0
 557 -14 433 119 433 276 c 0xfd80
 433 311 439 345 451 377 c 1
 246 -28 l 1
 22 82 l 1
EndSplineSet
Validated: 1
EndChar

StartChar: guillemotleft
Encoding: 171 171 157
Width: 1060
VWidth: 6
Flags: W
LayerCount: 2
Fore
SplineSet
428 566 m 1
 572 696 709 857 732 997 c 1
 960 925 l 1
 920 736 784 613 659 504 c 1
 787 386 897 267 942 95 c 1
 724 9 l 1
 686 158 586 310 428 451 c 1
 428 566 l 1
24 576 m 1
 168 706 305 867 328 1007 c 1
 556 936 l 1
 516 747 380 624 255 515 c 1
 383 397 493 278 538 106 c 1
 320 19 l 1
 282 168 182 320 24 461 c 1
 24 576 l 1
EndSplineSet
Validated: 1
EndChar

StartChar: section
Encoding: 167 167 159
Width: 1060
VWidth: 4
Flags: W
HStem: -285 200<385.853 573.723> 1051 21G<622 842> 1168 200<412.355 600.147>
VStem: 38 247<583.07 724.786> 143 250<916.576 1146.22> 144 220<-58.2925 32> 594 250<-63.2206 166.424> 622 220<1051 1141.29> 702 247<360.047 499.984>
LayerCount: 2
Fore
SplineSet
651 354 m 1xf080
 698 382 702 396 702 429 c 1
 699 450 690 472 665 495 c 0
 548 603 416 679 336 729 c 1
 289 701 285 687 285 654 c 1
 288 633 297 611 322 588 c 0
 438 482 532 428 642 361 c 1
 651 354 l 1xf080
184 883 m 1
 184 883 143 923 143 1048 c 0
 143 1256 341 1362 494 1368 c 0
 500 1368 506 1368 512 1368 c 0
 712 1368 838 1236 842 1051 c 1
 622 1051 l 1xe9
 622 1132 566 1168 500 1168 c 1
 468 1168 393 1151 393 1054 c 0
 393 1051 393 1047 393 1043 c 0
 393 1001 396 940 456 901 c 0
 594 811 727 725 834 627 c 0
 928 541 949 504 949 408 c 0xe880
 949 291 894 238 816 180 c 1
 816 180 844 114 844 35 c 0
 844 -173 645 -279 492 -285 c 0
 486 -285 480 -285 474 -285 c 0
 274 -285 148 -153 144 32 c 1
 364 32 l 1
 364 -49 420 -85 486 -85 c 1
 518 -85 594 -68 594 29 c 0
 594 32 594 36 594 40 c 0xe6
 594 82 591 143 531 182 c 0
 393 272 260 358 153 456 c 0
 59 542 38 579 38 675 c 0
 38 816 184 883 184 883 c 1
EndSplineSet
Validated: 1
EndChar

StartChar: braceleft
Encoding: 123 123 160
Width: 1060
VWidth: 66
Flags: W
HStem: -282 218<720.479 890> 1266 218<719.479 889>
VStem: 447 254<-36.2345 175.911 1022.54 1239.07> 518 251<132.291 388.518 813.105 1068.18>
LayerCount: 2
Fore
SplineSet
513 600 m 1xd0
 607 577 743 504 765 376 c 0
 768 361 769 345 769 330 c 0xd0
 769 229 717 134 703 54 c 0
 701 46 701 38 701 31 c 0
 701 -36 768 -58 894 -64 c 1
 890 -282 l 1
 757 -276 596 -274 503 -166 c 0
 462 -118 447 -66 447 -14 c 0xe0
 447 59 476 133 499 198 c 1
 512 234 518 264 518 290 c 0
 518 423 369 444 245 479 c 1
 244 592 l 1
 244 723 l 1
 368 758 517 778 517 911 c 0
 517 937 511 968 498 1004 c 1
 475 1069 446 1143 446 1216 c 0
 446 1268 461 1320 502 1368 c 0
 595 1476 756 1478 889 1484 c 1
 893 1266 l 1
 766 1261 700 1238 700 1170 c 0
 700 1163 701 1156 702 1148 c 0
 717 1068 768 974 768 872 c 0
 768 857 767 842 764 826 c 0
 742 698 607 623 513 600 c 1xd0
EndSplineSet
Validated: 1
EndChar

StartChar: bar
Encoding: 124 124 161
Width: 1060
VWidth: 66
Flags: W
VStem: 358 273<-194.108 1492>
LayerCount: 2
Fore
SplineSet
357 152 m 0
 357 517 348 1111 348 1399 c 2
 348 1492 l 1
 619 1492 l 1
 619 1347 l 2
 619 1070 631 558 631 224 c 2
 631 74 l 2
 631 -41 630 -97 625 -198 c 1
 353 -197 l 1
 357 -135 358 -92 358 -37 c 0
 358 10 357 66 357 152 c 0
EndSplineSet
Validated: 1
EndChar

StartChar: braceright
Encoding: 125 125 162
Width: 1060
VWidth: 66
Flags: W
HStem: -282 218<150 319.521> 1266 218<150 320.311>
VStem: 271 251<132.291 388.892 813.105 1068.18> 339 254<-36.1595 175.911 1022.54 1238.33>
LayerCount: 2
Fore
SplineSet
527 600 m 1xe0
 433 623 297 698 276 826 c 0
 273 842 272 857 272 872 c 0
 272 974 323 1068 338 1148 c 0
 339 1156 340 1163 340 1170 c 0
 340 1238 273 1261 147 1266 c 1
 150 1484 l 1
 284 1478 445 1476 538 1368 c 0
 579 1320 593 1268 593 1216 c 0xd0
 593 1143 565 1069 542 1004 c 1
 529 968 523 937 523 911 c 0
 523 778 672 758 796 723 c 1
 796 592 l 1
 795 479 l 1
 671 444 522 424 522 291 c 0xe0
 522 265 528 234 541 198 c 1
 564 133 593 59 593 -14 c 0
 593 -66 578 -118 537 -166 c 0
 444 -274 283 -276 150 -282 c 1
 146 -64 l 1
 273 -58 339 -36 339 32 c 0xd0
 339 39 338 46 337 54 c 0
 323 134 271 229 271 330 c 0
 271 345 272 361 275 376 c 0
 297 504 433 577 527 600 c 1xe0
EndSplineSet
Validated: 1
EndChar

StartChar: at
Encoding: 64 64 163
Width: 1060
VWidth: 6
Flags: W
HStem: -253 200<431.906 753.577> -25 20G<709.5 745.853> 162 200<565.774 698.584> 658 200<573.573 728.056> 1095 205<422.838 668.542>
VStem: 22 225<199.507 842.128> 332 219<369.676 638.028> 745 219<409.022 638.566 798 1007.86>
LayerCount: 2
Back
SplineSet
650 209 m 4
 701 209 733 312 736 329 c 5
 736 377 l 5
 716 417 680 448 662 448 c 4
 622 448 584 414 584 333 c 6
 584 322 l 5
 586 227 608 209 650 209 c 4
736 629 m 5
 736 731 l 5
 736 778 677 825 614 825 c 4
 566 825 516 797 492 720 c 5
 324 797 l 5
 390 970 498 1029 594 1029 c 7
 661 1029 728 998 746 975 c 5
 746 975 700 1178 528 1178 c 4
 350 1178 220 905 220 518 c 4
 220 132 409 -185 598 -185 c 4
 671 -185 726 -158 758 -137 c 5
 850 -320 l 5
 804 -349 710 -380 594 -380 c 4
 273 -380 12 -71 12 538 c 4
 12 1120 244 1385 518 1385 c 4
 903 1385 962 998 962 705 c 5
 962 233 l 5
 962 150 1010 66 1010 66 c 5
 806 -22 l 5
 776 78 l 5
 776 78 728 -9 562 -9 c 4
 410 -9 362 156 362 308 c 4
 362 400 379 488 404 530 c 4
 466 636 542 667 610 670 c 4
 612 670 614 670 616 670 c 4
 658 670 714 643 736 629 c 5
EndSplineSet
Fore
SplineSet
551 496 m 0
 551 418 573 362 617 362 c 0
 715 362 727 480 745 530 c 1
 745 598 l 1
 695 642 692 658 643 658 c 0
 593 658 551 616 551 496 c 0
802 267 m 1
 743 204 724 162 598 162 c 0
 428 162 332 319 332 485 c 0
 332 701 431 858 615 858 c 0
 684 858 711 832 745 798 c 1
 745 942 711 1095 552 1095 c 0
 387 1095 247 922 247 500 c 0
 247 192 354 -53 579 -53 c 0
 627 -53 681 -41 738 -5 c 1
 813 -196 l 1
 733 -238 637 -253 567 -253 c 0
 177 -253 22 145 22 495 c 0
 22 1001 238 1300 550 1300 c 0
 850 1300 964 1046 964 838 c 2
 964 508 l 2
 964 498 964 489 964 479 c 0
 964 403 971 347 1026 265 c 1
 844 169 l 1
 823 205 818 213 802 267 c 1
EndSplineSet
Validated: 1
EndChar

StartChar: brokenbar
Encoding: 166 166 164
Width: 1060
VWidth: 66
Flags: W
VStem: 358 273<-194.108 539 779 1492>
LayerCount: 2
Fore
SplineSet
353 779 m 1
 351 1018 348 1250 348 1399 c 2
 348 1492 l 1
 619 1492 l 1
 619 1347 l 2
 619 1202 622 993 625 779 c 1
 353 779 l 1
629 539 m 1
 630 426 631 318 631 224 c 2
 631 74 l 2
 631 -41 630 -97 625 -198 c 1
 353 -197 l 1
 357 -135 358 -92 358 -37 c 0
 358 10 357 66 357 152 c 0
 357 264 356 399 355 539 c 1
 629 539 l 1
EndSplineSet
Validated: 1
EndChar

StartChar: copyright
Encoding: 169 169 165
Width: 1060
VWidth: 6
Flags: W
HStem: 39 177<382.521 704.846> 298 165<496.216 660.291> 719 164<500.207 654.059> 971 175<382.521 704.846>
VStem: 16 173<413.842 772.095> 288 194<469.373 710.626> 890 172<409.854 782.473>
LayerCount: 2
Fore
SplineSet
189 594 m 0
 189 384 347 216 543 216 c 0
 739 216 890 384 890 594 c 0
 890 804 739 971 543 971 c 0
 347 971 189 804 189 594 c 0
16 592 m 0
 16 898 250 1146 539 1146 c 0
 828 1146 1062 898 1062 592 c 0
 1062 286 828 39 539 39 c 0
 250 39 16 286 16 592 c 0
552 719 m 0
 506 719 482 659 482 583 c 0
 482 530 502 463 551 463 c 1
 583 463 604 472 620 520 c 1
 792 436 l 1
 723 313 611 298 548 298 c 0
 427 298 288 373 288 579 c 0
 288 759 394 883 553 883 c 0
 625 883 735 844 778 752 c 1
 613 664 l 1
 597 703 588 719 552 719 c 0
EndSplineSet
Validated: 1
EndChar

StartChar: registered
Encoding: 174 174 166
Width: 1060
VWidth: 6
Flags: W
HStem: 39 177<380.794 704.846> 750 148<499.801 637.744> 971 175<382.521 704.846>
VStem: 16 173<412.452 772.095> 327 175<295 494 631.054 749.998> 641 156<634.336 742.759> 890 172<409.854 782.473>
LayerCount: 2
Fore
SplineSet
16 592 m 0
 16 898 250 1146 539 1146 c 0
 828 1146 1062 898 1062 592 c 0
 1062 286 828 39 539 39 c 0
 250 39 16 286 16 592 c 0
660 515 m 1
 697 464 757 412 807 384 c 1
 662 266 l 1
 602 301 523 426 510 494 c 1
 501 494 l 1
 502 283 l 1
 342 283 l 1
 399 241 468 216 543 216 c 0
 739 216 890 384 890 594 c 0
 890 804 739 971 543 971 c 0
 347 971 189 804 189 594 c 0
 189 472 243 364 327 295 c 1
 327 736 l 2
 327 790 326 827 323 876 c 1
 403 889 475 898 537 898 c 0
 687 898 797 847 797 686 c 0
 797 605 737 540 660 515 c 1
641 698 m 0
 641 729 615 750 539 750 c 0
 523 750 509 747 498 742 c 1
 499 645 l 1
 512 638 535 630 566 630 c 0
 636 630 641 670 641 698 c 0
EndSplineSet
Validated: 1
EndChar

StartChar: germandbls
Encoding: 223 223 167
Width: 1060
VWidth: 0
Flags: W
HStem: -37 21G<105.581 141> -2 201<588.188 704.684> 634 206<376 525.114> 1122 206<333.372 524.964>
VStem: 67 249<262.226 1105.34> 373 205<202.676 320> 554 244<869.297 1090.28> 728 244<211.003 528.796>
LayerCount: 2
Fore
SplineSet
67 1003 m 0xfa
 67 1159 183 1328 390 1328 c 0
 626 1328 798 1243 798 1009 c 1xfa
 798 886 753 815 670 779 c 1
 814 754 972 661 972 381 c 0
 972 76 844 -2 624 -2 c 0
 437 -2 373 95 373 298 c 0
 373 306 374 314 374 322 c 1
 578 320 l 1
 578 257 583 199 646 199 c 0
 700 199 728 247 728 395 c 0xfd
 728 504 664 634 376 634 c 1
 376 840 l 1
 541 840 554 905 554 1003 c 0
 554 1088 472 1122 413 1122 c 1
 346 1122 316 1073 316 1007 c 0
 316 851 321 637 321 450 c 0
 321 410 322 370 322 331 c 0
 322 251 319 176 299 117 c 0
 272 35 169 -9 113 -37 c 1
 21 211 l 1
 41 221 59 235 67 261 c 0
 75 287 76 323 76 398 c 0
 76 413 76 429 76 448 c 0
 76 635 67 829 67 1003 c 0xfa
EndSplineSet
Validated: 1
EndChar

StartChar: ampersand
Encoding: 38 38 168
Width: 1060
VWidth: 0
Flags: W
HStem: -22 203<323.014 587.596> 1146 201<340.604 488.451>
VStem: 30 250<221.045 532.717> 84 238<905.711 1128.68> 499 243<931.937 1136.14> 757 220<404.953 648.958>
LayerCount: 2
Fore
SplineSet
728 94 m 17xdc
 641 12 539 -22 419 -22 c 0
 211 -22 30 70 30 367 c 0xec
 30 559 129 670 237 758 c 1
 144 843 84 950 84 1037 c 0
 84 1249 246 1347 426 1347 c 0
 593 1347 742 1280 742 1082 c 0
 742 890 632 784 522 700 c 1
 738 400 l 1
 751 417 757 446 757 483 c 0
 757 529 748 587 733 652 c 1
 977 652 l 1
 977 364 878 246 878 246 c 1
 989 102 l 25
 822 -32 l 25
 728 94 l 17xdc
355 573 m 1
 309 530 280 444 280 370 c 0
 280 285 308 181 423 181 c 0
 509 181 572 208 605 238 c 1
 355 573 l 1
394 867 m 1
 455 915 499 995 499 1056 c 0
 499 1099 475 1146 420 1146 c 0
 362 1146 322 1096 322 1053 c 0xdc
 322 981 349 920 394 867 c 1
EndSplineSet
Validated: 1
EndChar

StartChar: uni00B5
Encoding: 181 181 169
Width: 1060
VWidth: 6
Flags: W
HStem: -17 21G<849 896.628> 2 204<324.082 570.039> 1000 20G<114.857 303>
VStem: 66 244<-395 8 218.457 876.355> 649 257<285.916 1000>
LayerCount: 2
Fore
SplineSet
314 8 m 1x78
 310 -398 l 25
 60 -395 l 1
 65 229 l 3
 65 311 66 408 66 504 c 0
 66 720 63 935 44 992 c 1
 292 1020 l 1
 314 928 308 664 310 298 c 1
 322 231 341 206 426 206 c 1x78
 624 206 648 370 649 418 c 1
 650 1000 l 1
 907 1000 l 1
 906 306 l 1
 908 254 973 187 1024 166 c 1
 881 -17 l 1xb8
 817 12 775 58 754 108 c 1
 679 31 562 5 412 2 c 1
 403 2 l 2
 374 2 344 4 314 8 c 1x78
EndSplineSet
Validated: 1
EndChar

StartChar: paragraph
Encoding: 182 182 170
Width: 1060
VWidth: 0
Flags: W
HStem: -10 21G<692 909> 1112 216<588.716 697>
VStem: 36 544<672.495 1109.02> 352 230<76.3197 445.778> 697 212<-9 1112>
LayerCount: 2
Fore
SplineSet
697 1041 m 2xe8
 697 1112 l 1
 686 1112 630 1112 608 1112 c 0
 598 1112 588 1112 580 1112 c 1xe8
 580 816 582 520 582 224 c 0
 582 132 544 -2 506 -41 c 1
 300 61 l 1
 322 103 352 141 352 221 c 2
 352 440 l 1xd8
 178 452 36 627 36 924 c 0
 36 1016 55 1108 109 1174 c 0
 224 1315 395 1328 620 1328 c 0
 753 1328 791 1320 909 1320 c 1
 909 -9 l 1
 692 -10 l 1
 692 332 697 604 697 1041 c 2xe8
EndSplineSet
Validated: 1
EndChar

StartChar: acute
Encoding: 180 180 174
Width: 1060
VWidth: -43
Flags: W
HStem: 1267 442
VStem: 199 566
LayerCount: 2
Fore
SplineSet
199 1441 m 1
 342 1489 516 1601 631 1709 c 1
 765 1537 l 1
 654 1425 432 1314 289 1267 c 1
 199 1441 l 1
EndSplineSet
Validated: 1
EndChar

StartChar: degree
Encoding: 176 176 175
Width: 1060
VWidth: -8
Flags: W
HStem: 788 192<403.092 567.577> 1186 193<403.092 567.577>
VStem: 190 193<1000.59 1165.45> 588 192<999.887 1166.15>
LayerCount: 2
Fore
SplineSet
190 1083 m 0
 190 1246 322 1379 485 1379 c 0
 648 1379 780 1246 780 1083 c 0
 780 920 648 788 485 788 c 0
 322 788 190 920 190 1083 c 0
383 1083 m 0
 383 1026 429 980 486 980 c 0
 543 980 588 1026 588 1083 c 0
 588 1140 543 1186 486 1186 c 0
 429 1186 383 1140 383 1083 c 0
EndSplineSet
Validated: 1
EndChar

StartChar: macron
Encoding: 175 175 176
Width: 1060
VWidth: -34
Flags: W
HStem: 1167 194<223 723>
VStem: 223 500<1167 1356>
LayerCount: 2
Fore
SplineSet
723 1361 m 1
 723 1167 l 1
 706 1167 l 0
 648 1165 550 1160 476 1160 c 0
 402 1160 309 1161 241 1163 c 0
 223 1164 l 1
 223 1361 l 1
 242 1359 l 0
 307 1357 422 1356 514 1356 c 0
 575 1356 661 1361 706 1361 c 0
 723 1361 l 1
EndSplineSet
Validated: 1
EndChar

StartChar: dotlessi
Encoding: 305 305 177
Width: 1060
VWidth: 0
Flags: W
HStem: -18 200<615.905 874.717> 813 200<124.449 354>
VStem: 354 256<191.813 274 274.339 813>
AnchorPoint: "above_accent" 487 1107 basechar 0
LayerCount: 2
Fore
SplineSet
354 1013 m 2
 609 1013 l 1
 609 740 610 274 610 274 c 1
 610 210 627 182 719 182 c 0
 812 182 872 215 932 273 c 1
 1029 83 l 1
 943 12 792 -18 668 -18 c 0
 583 -18 491 -4 447 20 c 0
 362 67 354 147 354 206 c 2
 354 813 l 1
 305 813 215 807 120 785 c 1
 91 971 l 1
 185 999 274 1013 354 1013 c 2
EndSplineSet
Validated: 1
EndChar

StartChar: asterisk
Encoding: 42 42 191
Width: 1060
VWidth: 0
Flags: W
LayerCount: 2
Fore
SplineSet
410 708 m 1
 366 1114 l 1
 660 1116 l 1
 630 708 l 1
 912 888 l 1
 1026 640 l 1
 664 526 l 1
 940 256 l 1
 720 80 l 1
 524 434 l 1
 322 76 l 1
 116 248 l 1
 378 528 l 1
 32 622 l 1
 122 882 l 1
 410 708 l 1
EndSplineSet
Validated: 1
EndChar

StartChar: ordfeminine
Encoding: 170 170 193
Width: 1060
VWidth: 6
Flags: W
HStem: 508 167<142 898> 754 168<349.183 584.511> 1095 153<355.97 615.616> 1294 21G<239.692 285> 1357 180<242.493 588.656>
VStem: 128 214<931.008 1074.87>
LayerCount: 2
Fore
SplineSet
142 675 m 1
 898 675 l 1
 898 508 l 1
 142 508 l 1
 142 675 l 1
342 994 m 0
 342 952 382 922 422 922 c 0
 516 922 596 945 640 1036 c 1
 606 1078 544 1095 468 1095 c 0
 380 1095 342 1059 342 994 c 0
148 1463 m 1
 246 1525 368 1537 483 1537 c 1
 702 1537 830 1414 832 1201 c 0
 832 1066 l 3
 832 1024 836 969 856 941 c 0
 869 923 887 911 917 897 c 1
 816 746 l 1
 768 776 728 790 694 863 c 1
 626 782 533 754 383 754 c 0
 241 754 128 852 128 986 c 0
 128 1213 262 1248 446 1248 c 0
 540 1248 600 1222 640 1184 c 1
 626 1281 584 1357 485 1357 c 0
 376 1357 318 1342 252 1294 c 1
 148 1463 l 1
EndSplineSet
Validated: 1
EndChar

StartChar: logicalnot
Encoding: 172 172 194
Width: 1060
VWidth: 6
Flags: W
HStem: 413 244<88 726>
VStem: 726 250<180 410>
LayerCount: 2
Fore
SplineSet
82 654 m 1
 127 656 177 657 227 657 c 0
 327 657 428 654 496 654 c 0
 537 654 576 654 615 654 c 0
 697 654 849 653 956 652 c 1
 974 652 l 1
 974 496 l 1
 976 496 l 1
 976 180 l 1
 726 180 l 1
 726 410 l 1
 642 410 558 410 494 410 c 0
 451 410 360 413 260 413 c 0
 203 413 143 412 88 409 c 1
 88 531 l 1
 82 654 l 1
EndSplineSet
Validated: 1
EndChar

StartChar: uni00AD
Encoding: 173 173 195
Width: 1060
VWidth: 6
Flags: W
HStem: 413 244<88 974>
LayerCount: 2
Fore
SplineSet
82 654 m 1
 127 656 177 657 227 657 c 0
 327 657 428 654 496 654 c 0
 537 654 576 654 615 654 c 0
 697 654 849 653 956 652 c 1
 974 652 l 1
 974 407 l 1
 956 407 l 1
 821 410 619 410 494 410 c 0
 451 410 360 413 260 413 c 0
 203 413 143 412 88 409 c 1
 88 531 l 1
 82 654 l 1
EndSplineSet
Validated: 1
EndChar

StartChar: uni00B2
Encoding: 178 178 196
Width: 1060
VWidth: 65
Flags: W
HStem: 769 169<472 833> 1359 168<449.723 614.421>
VStem: 624 212<1211.55 1349.66>
LayerCount: 2
Fore
SplineSet
202 1321 m 1
 226 1470 387 1527 536 1527 c 0
 684 1527 836 1469 836 1297 c 0
 836 1149 752 1104 576 1013 c 0
 503 975 478 968 472 938 c 1
 833 943 l 1
 833 769 l 1
 210 769 l 1
 209 801 208 831 208 864 c 0
 208 909 211 942 238 986 c 0
 273 1042 394 1108 478 1151 c 0
 606 1216 624 1239 624 1288 c 0
 624 1320 589 1359 539 1359 c 0
 455 1359 443 1313 432 1271 c 1
 202 1321 l 1
EndSplineSet
Validated: 1
EndChar

StartChar: uni00B3
Encoding: 179 179 197
Width: 1060
VWidth: 65
Flags: W
HStem: 754 167<364.063 607.251> 993 20G<295.342 343> 1097 131<453.041 589.979> 1308 21G<346.027 377.5> 1364 166<374.811 593.161>
VStem: 595 210<1231.01 1360.53> 618 209<934.836 1079.62>
LayerCount: 2
Fore
SplineSet
314 1013 m 1xfa
 372 949 419 921 512 921 c 0
 593 921 618 959 618 1013 c 1xfa
 618 1079 561 1097 450 1097 c 1
 453 1231 l 1
 453 1231 510 1228 523 1228 c 0
 578 1228 595 1257 595 1307 c 0
 595 1348 565 1364 516 1364 c 0
 450 1364 393 1339 362 1308 c 1
 243 1457 l 1
 296 1499 388 1530 508 1530 c 2
 519 1530 l 2
 685 1530 805 1482 805 1326 c 0xfc
 805 1238 764 1198 708 1178 c 1
 785 1137 827 1100 827 1003 c 0
 827 811 707 754 512 754 c 0
 366 754 261 770 175 864 c 1
 314 1013 l 1xfa
EndSplineSet
Validated: 1
EndChar

StartChar: cedilla
Encoding: 184 184 198
Width: 1060
VWidth: 12
Flags: W
HStem: -398 172<414.653 627.295> -119 176<449 628.875>
VStem: 630 224<-218.703 -124.173>
LayerCount: 2
Fore
SplineSet
672 56 m 1
 671 48 670 -16 670 -19 c 1
 767 -24 854 -81 854 -195 c 0
 854 -325 740 -398 582 -398 c 0
 516 -398 424 -380 368 -344 c 1
 428 -196 l 1
 461 -214 505 -226 556 -226 c 0
 592 -226 627 -214 630 -176 c 1
 630 -174 l 2
 630 -145 606 -119 558 -119 c 0
 510 -119 477 -121 449 -131 c 1
 449 57 l 1
 672 56 l 1
EndSplineSet
Validated: 1
EndChar

StartChar: uni00B9
Encoding: 185 185 199
Width: 1060
VWidth: 65
Flags: W
VStem: 532 216<769 1280>
LayerCount: 2
Fore
SplineSet
514 1527 m 1
 748 1511 l 1
 748 769 l 1
 532 769 l 1
 533 1280 l 1
 461 1201 387 1140 262 1098 c 1
 190 1298 l 1
 333 1336 439 1393 514 1527 c 1
EndSplineSet
Validated: 1
EndChar

StartChar: ordmasculine
Encoding: 186 186 200
Width: 1060
VWidth: 6
Flags: W
HStem: 508 167<142 898> 758 174<398.441 631.49> 1352 174<400.855 642.787>
VStem: 149 203<975.237 1301.82> 681 202<982.164 1311.65>
LayerCount: 2
Fore
SplineSet
142 675 m 1
 898 675 l 1
 898 508 l 1
 142 508 l 1
 142 675 l 1
681 1168 m 0
 681 1281 645 1352 519 1352 c 0
 417 1352 352 1291 352 1153 c 0
 352 1006 395 932 503 932 c 1
 623 932 681 983 681 1168 c 0
501 758 m 1
 268 758 149 906 149 1148 c 0
 149 1418 324 1526 485 1526 c 0
 758 1526 883 1393 883 1184 c 0
 883 867 758 758 501 758 c 1
EndSplineSet
Validated: 1
EndChar

StartChar: onequarter
Encoding: 188 188 201
Width: 1060
VWidth: 0
Flags: W
HStem: -165 165<378 541 744 872> 519 168<78 971>
VStem: 532 216<769 1280> 537 210<-316 -165> 553 191<-300.296 -165 10 236>
LayerCount: 2
Fore
SplineSet
78 687 m 1xc0
 971 687 l 1
 971 519 l 1
 78 519 l 1
 78 687 l 1xc0
EndSplineSet
Refer: 745 8324 N 1 0 0 1 0 0 2
Refer: 199 185 N 1 0 0 1 0 0 2
Validated: 1
EndChar

StartChar: onehalf
Encoding: 189 189 202
Width: 1060
VWidth: 0
Flags: W
HStem: -311 169<472 833> 279 168<449.723 614.421> 519 168<78 971>
VStem: 532 216<769 1280> 624 212<131.547 269.656>
LayerCount: 2
Fore
SplineSet
78 687 m 1xe0
 971 687 l 1
 971 519 l 1
 78 519 l 1
 78 687 l 1xe0
EndSplineSet
Refer: 743 8322 N 1 0 0 1 0 0 2
Refer: 199 185 N 1 0 0 1 0 0 2
Validated: 1
EndChar

StartChar: threequarters
Encoding: 190 190 203
Width: 1060
VWidth: 0
Flags: W
HStem: -165 165<378 541 744 872> 519 168<78 971> 754 167<364.063 607.251> 993 20G<295.342 343> 1097 131<453.041 589.979> 1308 21G<346.027 377.5> 1364 166<374.811 593.161>
VStem: 537 210<-316 -165> 553 191<-300.296 -165 10 236> 595 210<1231.01 1360.53> 618 209<934.836 1079.62>
LayerCount: 2
Fore
SplineSet
78 687 m 1xfe
 971 687 l 1
 971 519 l 1
 78 519 l 1
 78 687 l 1xfe
EndSplineSet
Refer: 745 8324 N 1 0 0 1 0 0 2
Refer: 197 179 N 1 0 0 1 0 0 2
Validated: 1
EndChar

StartChar: Thorn
Encoding: 222 222 204
Width: 1060
VWidth: 0
Flags: W
HStem: -10 21G<104 354> 439 208<354 640.34> 988 211<356 657.137> 1308 20G<304 356>
VStem: 104 250<-9 442 649 983 1199 1320> 714 262<709.817 934.362>
LayerCount: 2
Fore
SplineSet
714 829 m 0
 714 949 597 988 515 988 c 0
 506 988 l 1
 445 988 401 984 356 983 c 1
 356 912 l 2
 356 725 354 649 354 649 c 1
 390 648 425 647 458 647 c 0
 574 647 714 669 714 829 c 0
354 -10 m 1
 104 -9 l 1
 104 1320 l 1
 210 1320 252 1327 356 1328 c 1
 356 1199 l 1
 368 1199 380 1199 393 1199 c 0
 618 1199 789 1186 904 1045 c 0
 958 979 976 936 976 844 c 0
 976 637 852 439 508 439 c 0
 460 439 408 440 354 442 c 1
 354 174 354 149 354 -10 c 1
EndSplineSet
Validated: 1
EndChar

StartChar: eth
Encoding: 240 240 205
Width: 1060
VWidth: 6
Flags: W
HStem: 1 210<397.997 634.152>
VStem: 85 252<276.962 621.988> 709 252<292.18 731.856>
LayerCount: 2
Fore
SplineSet
684 738 m 1
 438 738 337 640 337 448 c 0
 337 307 401 211 484 211 c 0
 654 211 709 298 709 505 c 0
 709 630 696 690 684 738 c 1
339 1218 m 1
 317 1252 239 1323 236 1331 c 1
 455 1444 l 1
 485 1404 537 1334 565 1299 c 1
 875 1418 l 1
 933 1216 l 1
 669 1152 l 1
 847 937 961 768 961 504 c 0
 961 166 806 1 484 1 c 2
 482 1 l 1
 210 2 85 168 85 448 c 0
 85 709 207 908 575 932 c 1
 567 943 486 1031 457 1061 c 1
 365 1032 245 985 165 956 c 1
 106 1158 l 1
 106 1158 278 1196 339 1218 c 1
EndSplineSet
Validated: 1
EndChar

StartChar: thorn
Encoding: 254 254 206
Width: 1060
VWidth: -2
Flags: W
HStem: -8 201<411.543 624.96> 811 200<426.354 646.024>
VStem: 104 246<-398 58.1271 255.451 734.217> 104 226<921 1281.94> 691 256<261.255 768.3>
LayerCount: 2
Fore
SplineSet
104 739 m 1xd8
 104 1054 l 2
 104 1137 92 1220 82 1285 c 1
 310 1311 l 1
 319 1287 330 1249 330 1211 c 3
 330 921 l 1xd8
 386 983 470 1011 582 1011 c 0
 857 1011 947 819 947 551 c 0
 947 215 874 -8 512 -8 c 0
 412 -8 365 29 336 60 c 1
 340 20 347 -17 350 -61 c 1
 350 -152 l 2xe8
 350 -246 357 -330 364 -398 c 1
 116 -405 l 1
 107 -332 102 -237 102 -146 c 2
 104 739 l 1xd8
691 531 m 0
 691 724 654 811 566 811 c 0
 437 811 393 744 348 656 c 1
 350 311 l 1xe8
 388 253 442 193 517 193 c 0
 632 193 691 264 691 531 c 0
EndSplineSet
Validated: 1
EndChar

StartChar: Aogonek
Encoding: 260 260 209
Width: 1060
VWidth: 32
Flags: W
HStem: -501 196<662.57 918.501> 0 21G<6 267.5> 281 223<390.856 651> 1305 20G<411.503 648.179>
VStem: 6 260<0 174.195> 407 250<-293.213 -160.168>
LayerCount: 2
Fore
SplineSet
1028 0 m 1
 788 -100 657 -143 657 -248 c 0
 657 -291 713 -305 777 -305 c 0
 835 -305 875 -276 905 -254 c 1
 1029 -395 l 1
 985 -443 867 -501 767 -501 c 0
 585 -501 407 -445 407 -257 c 0
 407 -58 644 -12 744 82 c 1
 740 111 733 139 725 167 c 2
 693 281 l 1
 541 278 456 282 336 252 c 1
 306 162 l 2
 286 101 269 43 266 0 c 1
 6 0 l 1
 10 61 34 143 60 223 c 2
 418 1325 l 1
 642 1325 l 1
 976 244 l 2
 1000 164 1026 81 1026 2 c 1
 1028 0 l 1
651 504 m 1
 625 647 526 844 525 998 c 1
 519 830 426 625 388 486 c 1
 448 499 568 499 651 504 c 1
EndSplineSet
Validated: 1
EndChar

StartChar: aogonek
Encoding: 261 261 210
Width: 1060
VWidth: 32
Flags: W
HStem: -502 196<589.57 845.501> -11 200<324.777 553.837> 470 200<351.793 606.784> 820 208<322.171 586.221>
VStem: 46 253<217.581 419.927> 334 250<-294.213 -182.553> 642 244<275.679 431.841 623 758.896>
LayerCount: 2
Fore
SplineSet
299 317 m 0
 299 219 368 189 432 189 c 0
 542 189 624 291 642 347 c 1
 642 394 l 1
 606 436 538 470 474 470 c 0
 408 470 299 427 299 317 c 0
721 101 m 1
 645 23 563 -11 381 -11 c 0
 210 -11 46 120 46 302 c 0
 46 392 76 479 135 540 c 0
 230 637 332 670 474 670 c 0
 538 670 604 649 642 623 c 1
 642 789 526 820 466 820 c 0
 351 820 292 760 238 683 c 1
 42 793 l 1
 138 975 296 1025 474 1028 c 1
 699 1028 886 893 886 655 c 2
 886 316 l 2
 886 224 905 172 962 127 c 1
 778 -162 584 -147 584 -249 c 0
 584 -292 640 -306 704 -306 c 0
 762 -306 802 -277 832 -255 c 1
 956 -396 l 1
 912 -444 794 -502 694 -502 c 0
 512 -502 334 -446 334 -258 c 0
 334 -78 721 -51 721 101 c 1
EndSplineSet
Validated: 1
EndChar

StartChar: dcaron
Encoding: 271 271 211
Width: 1060
VWidth: 32
Flags: W
HStem: -7 180<337.281 506.629> 813 200<347.994 528.932>
VStem: 45 239<233.367 744.186> 594 229<270.605 748.303 933.594 1399.8>
LayerCount: 2
Fore
SplineSet
284 478 m 0
 284 288 322 173 423 173 c 0
 480 173 546 247 594 349 c 1
 594 683 l 1
 563 738 506 813 438 813 c 0
 352 813 284 741 284 478 c 0
45 459 m 0
 45 840 159 1013 406 1013 c 0
 513 1013 581 958 616 930 c 1
 599 1007 594 1062 594 1152 c 3
 594 1243 599 1339 607 1412 c 1
 839 1403 l 1
 832 1335 825 1251 825 1157 c 0
 825 877 823 516 823 267 c 0
 823 259 823 251 823 243 c 0
 823 160 833 73 842 7 c 1
 658 -13 l 1
 658 -13 616 51 616 93 c 1
 580 40 506 -7 390 -7 c 0
 155 -7 45 152 45 459 c 0
1103 1364 m 1
 1073 1249 1053 1138 1018 984 c 1
 870 1018 l 1
 884 1163 905 1307 921 1412 c 1
 1103 1364 l 1
EndSplineSet
Validated: 1
EndChar

StartChar: Dcroat
Encoding: 272 272 212
Width: 1060
VWidth: 0
Flags: W
HStem: -10 205<324 582.364> 732 210<6 76 328 582> 1127 204<328 538.026>
VStem: 76 252<198 732 942 1123.7> 702 267<320.445 873.282>
LayerCount: 2
Fore
SplineSet
403 1127 m 2
 373 1127 l 2
 357 1127 345 1127 328 1124 c 1
 329 1098 329 1068 329 1037 c 0
 329 996 328 973 328 942 c 1
 582 942 l 1
 584 733 l 1
 328 732 l 1
 327 488 325 280 324 198 c 1
 412 195 363 195 423 195 c 0
 426 195 l 0
 466 195 609 197 675 353 c 0
 694 398 702 489 702 544 c 0
 702 925 596 1127 403 1127 c 2
76 942 m 1
 76 977 l 2
 76 1106 72 1229 63 1317 c 1
 144 1325 189 1331 288 1331 c 0
 559 1331 715 1249 838 1066 c 1
 922 939 969 761 969 580 c 0
 969 511 961 442 948 376 c 0
 900 135 739 14 559 -3 c 0
 504 -8 453 -10 398 -10 c 0
 314 -10 181 -3 67 -3 c 1
 67 31 67 30 70 128 c 1
 70 174 75 454 76 732 c 1
 6 732 l 1
 6 942 l 1
 76 942 l 1
EndSplineSet
Validated: 1
EndChar

StartChar: dcroat
Encoding: 273 273 213
Width: 1060
VWidth: -2
Flags: W
HStem: -7 180<404.613 583.278> 813 200<416.098 608.902> 1093 194<399 682 929 970>
VStem: 93 255<235.51 735.573> 678 246<274.508 742.95 932.756 1093 1287 1401.36>
LayerCount: 2
Fore
SplineSet
348 478 m 0
 348 288 388 173 496 173 c 0
 557 173 627 247 678 349 c 1
 678 683 l 1
 645 738 584 813 512 813 c 0
 420 813 348 741 348 478 c 0
93 459 m 0
 93 840 215 1013 478 1013 c 0
 592 1013 665 958 702 930 c 1
 689 989 682 1035 679 1093 c 1
 399 1093 l 1
 399 1287 l 1
 682 1287 l 1
 684 1332 687 1375 692 1412 c 1
 940 1403 l 1
 936 1368 932 1329 929 1287 c 1
 970 1287 l 1
 970 1093 l 1
 925 1093 l 1
 925 824 924 497 924 267 c 0
 924 259 924 251 924 243 c 0
 924 160 933 73 943 7 c 1
 747 -13 l 1
 747 -13 702 51 702 93 c 1
 664 40 585 -7 461 -7 c 0
 210 -7 93 152 93 459 c 0
EndSplineSet
Validated: 1
EndChar

StartChar: Eogonek
Encoding: 280 280 218
Width: 1060
VWidth: 32
Flags: W
HStem: -501 195<571.57 827.501> -0 204<358 562> 646 203<360 698> 1118 205<360 889>
VStem: 102 258<204 646 849 1118> 316 250<-293.713 -167.564>
LayerCount: 2
Fore
SplineSet
102 1319 m 1xf8
 158 1323 228 1323 306 1323 c 0
 337 1323 370 1323 404 1323 c 2
 514 1323 l 2
 663 1323 799 1320 873 1320 c 2
 889 1320 l 1
 889 1118 l 1
 360 1118 l 1
 360 849 l 1
 698 849 l 1
 698 646 l 1
 360 646 l 1
 360 615 l 2xf8
 360 408 358 283 358 204 c 1
 774 206 l 2
 830 206 899 233 899 233 c 1
 971 34 l 1
 694 -126 566 -147 566 -249 c 0
 566 -292 622 -306 686 -306 c 0
 744 -306 784 -277 814 -255 c 1
 938 -396 l 1
 894 -444 776 -501 676 -501 c 0
 494 -501 316 -445 316 -257 c 0xf4
 317 -132 407 -89 562 -0 c 1
 102 0 l 1
 102 1319 l 1xf8
EndSplineSet
Validated: 1
EndChar

StartChar: eogonek
Encoding: 281 281 219
Width: 1060
VWidth: 32
Flags: W
HStem: -502 196<527.57 783.501> -10 206<409.402 497> 434 196<404.825 676> 818 203<407.494 621.802>
VStem: 78 258<279.364 403.211 606 738.031> 272 250<-294.213 -169.676> 676 261<630 763.58>
LayerCount: 2
Fore
SplineSet
336 606 m 1xfa
 449 626 543 630 676 630 c 1
 671 761 599 818 511 818 c 0
 409 818 342 722 336 606 c 1xfa
509 1021 m 0
 828 1021 937 813 937 477 c 0
 937 457 936 434 936 434 c 1
 651 430 438 416 336 396 c 1xfa
 352 285 416 196 508 196 c 0
 614 196 649 205 710 294 c 1
 910 166 l 1
 766 -61 522 -142 522 -249 c 0
 522 -292 578 -306 642 -306 c 0
 700 -306 740 -277 770 -255 c 1
 894 -396 l 1
 850 -444 732 -502 632 -502 c 0
 450 -502 272 -446 272 -258 c 0xf6
 272 -147 384 -95 497 -10 c 1
 214 -8 78 205 78 516 c 0
 78 802 226 1021 509 1021 c 0
EndSplineSet
Validated: 1
EndChar

StartChar: Hbar
Encoding: 294 294 232
Width: 1060
VWidth: 0
Flags: W
HStem: 0 21G<60 318 675 930> 599 215<321.491 675> 991 207<0 60 317 674 930 1010> 1302 20G<60 317>
VStem: 60 256<0 578.711 785 991 1198 1320> 675 255<0 599 814 991 1198 1317>
LayerCount: 2
Fore
SplineSet
60 1198 m 1
 60 1320 l 1
 317 1322 l 1
 317 1198 l 1
 674 1198 l 1
 674 1234 674 1271 674 1317 c 1
 930 1317 l 1
 930 1198 l 1
 1010 1198 l 1
 1010 991 l 1
 930 991 l 1
 930 0 l 1
 675 0 l 1
 675 599 l 1
 643 599 l 2
 497 599 434 596 316 570 c 1
 316 220 318 185 318 0 c 1
 60 0 l 1
 60 991 l 1
 0 991 l 1
 0 1198 l 1
 60 1198 l 1
675 991 m 1
 316 991 l 1
 316 785 l 1
 408 806 468 814 588 814 c 2
 675 814 l 1
 675 886 675 943 675 991 c 1
EndSplineSet
Validated: 1
EndChar

StartChar: hbar
Encoding: 295 295 233
Width: 1060
VWidth: -2
Flags: W
HStem: -11 11G<140 386 760.5 856.444> 812 200<456.598 670.672> 1114 207<0 133 387 714>
VStem: 140 246<0 741.95 932.082 1114 1321 1400.83> 728 244<23.8544 749.663>
LayerCount: 2
Fore
SplineSet
972 566 m 2
 972 218 l 2
 972 136 979 61 1000 22 c 1
 772 -32 l 1
 749 0 728 66 728 176 c 2
 728 491 l 2
 728 800 646 812 554 812 c 0
 482 812 419 737 386 682 c 1
 386 0 l 1
 140 0 l 1
 141 1114 l 1
 0 1114 l 1
 0 1321 l 1
 133 1321 l 1
 130 1350 129 1377 126 1402 c 1
 374 1411 l 1
 377 1384 380 1353 382 1321 c 1
 714 1321 l 1
 714 1114 l 1
 387 1114 l 1
 385 1045 379 995 364 929 c 1
 401 957 474 1012 588 1012 c 0
 838 1012 972 888 972 566 c 2
EndSplineSet
Validated: 1
EndChar

StartChar: Iogonek
Encoding: 302 302 240
Width: 1060
VWidth: 32
Flags: W
HStem: -500 196<493.57 749.501> -3 221<134 366 705.8 848> 1112 212<138 366 622 852>
VStem: 238 250<-292.213 -146.187> 366 256<219 1119>
LayerCount: 2
Fore
SplineSet
132 1324 m 1xe8
 288 1328 389 1329 485 1329 c 0
 590 1329 690 1328 853 1326 c 1
 852 1115 l 1
 729 1115 717 1120 622 1120 c 1
 622 219 l 1xe8
 668 219 653 220 704 220 c 0
 749 220 796 219 848 216 c 1
 849 -1 l 1
 602 -66 488 -145 488 -247 c 0
 488 -290 544 -304 608 -304 c 0
 666 -304 706 -275 736 -253 c 1
 860 -394 l 1
 816 -442 698 -500 598 -500 c 0
 416 -500 238 -444 238 -256 c 0xf0
 238 -137 316 -77 464 4 c 1
 389 3 276 -3 134 -3 c 1
 134 213 l 1
 219 217 257 218 314 218 c 2
 366 218 l 1
 366 1119 l 1
 300 1118 244 1118 138 1112 c 1
 132 1324 l 1xe8
EndSplineSet
Validated: 1
EndChar

StartChar: iogonek
Encoding: 303 303 241
Width: 1060
VWidth: 32
Flags: W
HStem: -501 195<632.863 887.748> 813 200<124.449 354> 1181 225<329 620>
VStem: 329 291<1181 1406> 354 256<191.813 813> 377 250<-292.702 -158.879>
LayerCount: 2
Fore
SplineSet
329 1406 m 1xf0
 620 1406 l 1
 620 1181 l 1
 329 1181 l 1
 329 1406 l 1xf0
354 1013 m 2xe8
 609 1013 l 1
 609 740 610 274 610 274 c 2xe8
 610 210 627 182 719 182 c 0
 812 182 872 215 932 273 c 1
 1029 83 l 1
 1027 81 1025 79 1022 77 c 0
 765 -127 627 -130 627 -248 c 0
 627 -286 683 -306 747 -306 c 0
 805 -306 845 -276 875 -254 c 1
 999 -396 l 1
 955 -444 837 -501 737 -501 c 0
 555 -501 377 -445 377 -257 c 0xe4
 377 -145 463 -96 590 -14 c 1
 531 -8 478 3 447 20 c 0
 362 67 354 147 354 206 c 2
 354 813 l 1
 305 813 215 807 120 785 c 1
 91 971 l 1
 185 999 274 1013 354 1013 c 2xe8
EndSplineSet
Validated: 1
EndChar

StartChar: IJ
Encoding: 306 306 243
Width: 1060
VWidth: 0
Flags: W
HStem: 0 212<11 93 349 404 678.385 770.184> 1108 216<356.904 406 561.93 753.241 982 1054> 1119 210<13 93 349 406>
VStem: 11 393<5 216 1120 1324> 93 256<220 1119> 413 235<236.624 434> 796 243<221.274 1035.89>
LayerCount: 2
Fore
SplineSet
731 0 m 0xc6
 496 0 415 215 413 435 c 1
 648 434 l 1
 654 281 686 212 725 212 c 0
 786 212 796 303 796 639 c 0
 796 734 781 1013 741 1104 c 1
 692 1104 697 1108 669 1108 c 1
 591 1105 581 1096 561 1090 c 1
 534 1302 l 1
 556 1309 580 1321 668 1324 c 1
 777 1324 939 1323 1056 1323 c 1
 1054 1106 l 1
 1018 1106 1032 1107 982 1107 c 1
 1005 988 1039 750 1039 639 c 0
 1039 260 1001 0 731 0 c 0xc6
10 1324 m 1
 96 1328 151 1329 204 1329 c 0
 262 1329 316 1328 406 1326 c 1
 406 1115 l 1
 349 1120 l 1
 349 220 l 1xae
 404 216 l 1
 404 -1 l 1
 357 4 324 5 289 5 c 0
 263 5 236 4 204 4 c 0
 163 4 96 -3 11 -3 c 1
 11 213 l 1xb6
 49 216 70 218 93 218 c 1
 93 1119 l 1xae
 13 1112 l 1
 10 1324 l 1
EndSplineSet
Validated: 1
EndChar

StartChar: ij
Encoding: 307 307 244
Width: 1060
VWidth: 0
Flags: W
HStem: -390 202<401.837 708.682> -18 200<426.883 598.281> 794 186<33.6877 167.609 559.688 735.531> 813 200<39.4669 168 565.486 736> 1181 225<144 436 694 984>
VStem: 144 292<1181 1406> 168 256<182.996 813> 694 290<1181 1406> 736 254<-163.515 813>
LayerCount: 2
Fore
SplineSet
168 1013 m 2xda
 424 1013 l 1
 424 274 l 1
 424 210 424 182 483 182 c 0
 543 182 554 184 592 242 c 1
 682 83 l 1
 627 12 529 -18 450 -18 c 0
 396 -18 306 -4 262 20 c 0
 177 67 168 147 168 206 c 2
 168 813 l 1
 158 813 150 813 143 813 c 0xda
 119 813 111 811 36 794 c 1
 6 980 l 1xea
 100 1008 88 1013 168 1013 c 2xda
990 -78 m 1xd880
 990 -231 908 -389 622 -389 c 3
 596 -389 570 -390 544 -390 c 0
 449 -390 346 -376 148 -244 c 1
 298 -70 l 1
 426 -186 530 -188 594 -188 c 0
 600 -188 l 0
 606 -188 613 -188 618 -188 c 3
 738 -188 734 -83 736 -48 c 1
 736 813 l 1
 726 813 716 813 706 813 c 0xd880
 671 813 637 811 562 794 c 1
 532 980 l 1xe880
 626 1008 656 1013 736 1013 c 2
 990 1013 l 1
 990 -78 l 1xd880
694 1406 m 1xc9
 984 1406 l 1
 984 1181 l 1
 694 1181 l 1
 694 1406 l 1xc9
144 1406 m 1xcc
 436 1406 l 1
 436 1181 l 1
 144 1181 l 1
 144 1406 l 1xcc
EndSplineSet
Validated: 1
EndChar

StartChar: Lcaron
Encoding: 317 317 254
Width: 1060
VWidth: 32
Flags: W
HStem: -3 210<413 950.961> 1305 20G<157 413>
VStem: 157 256<207 1325> 701 186<914.304 1096.51>
LayerCount: 2
Fore
SplineSet
972 1274 m 1
 942 1159 922 1048 887 894 c 1
 701 916 l 1
 715 1061 736 1206 752 1311 c 1
 972 1274 l 1
EndSplineSet
Refer: 35 76 N 1 0 0 1 0 0 2
Validated: 1
EndChar

StartChar: lcaron
Encoding: 318 318 255
Width: 1060
VWidth: 32
Flags: W
HStem: -18 200<618.352 874.717> 1013 21G<764.909 951.5> 1201 200<101.523 355>
VStem: 355 256<191.813 274 274.62 1201> 748 186<1033.3 1215.51>
LayerCount: 2
Fore
SplineSet
1019 1393 m 1
 989 1278 969 1167 934 1013 c 1
 748 1035 l 1
 762 1180 783 1325 799 1430 c 1
 1019 1393 l 1
EndSplineSet
Refer: 12 108 N 1 0 0 1 0 0 2
Validated: 1
EndChar

StartChar: Lslash
Encoding: 321 321 258
Width: 1060
VWidth: 0
Flags: W
HStem: -3 210<521 950.961> 999 20G<715.276 763.564> 1305 20G<267 521>
VStem: 267 254<207 513 896 1325>
LayerCount: 2
Fore
SplineSet
267 513 m 1
 135 443 l 1
 32 637 l 1
 267 762 l 1
 267 1325 l 1
 521 1325 l 1
 521 896 l 1
 753 1019 l 1
 856 824 l 1
 521 647 l 1
 521 207 l 1
 839 207 l 1
 898 210 909 213 953 228 c 1
 1025 31 l 1
 978 15 916 -3 841 -3 c 2
 267 -3 l 1
 267 513 l 1
EndSplineSet
Validated: 1
EndChar

StartChar: lslash
Encoding: 322 322 259
Width: 1060
VWidth: -2
Flags: W
HStem: -18 200<607.352 863.717> 1230 200<113.45 344>
VStem: 343 255<191.813 274 274.126 558 942 1230>
LayerCount: 2
Fore
SplineSet
344 1430 m 2
 598 1430 l 1
 598 1334 598 1125 598 942 c 1
 836 1068 l 1
 939 873 l 1
 598 693 l 1
 598 447 600 274 600 274 c 2
 600 210 616 182 708 182 c 0
 801 182 861 215 921 273 c 1
 1018 83 l 1
 932 12 781 -18 657 -18 c 0
 572 -18 481 -4 437 20 c 0
 352 67 344 147 344 206 c 2
 343 558 l 1
 219 492 l 1
 116 686 l 1
 343 806 l 1
 344 1230 l 1
 295 1230 204 1224 109 1202 c 1
 80 1388 l 1
 174 1416 264 1430 344 1430 c 2
EndSplineSet
Validated: 1
EndChar

StartChar: Eng
Encoding: 330 330 266
Width: 1060
VWidth: 0
Flags: W
HStem: -396 222<391 608.141> -3 21G<75 328> 1087 209<442.88 655.467> 1299 20G<171.333 248.5>
VStem: 75 253<0 950.461> 700 252<-82.1968 1047.96>
LayerCount: 2
Fore
SplineSet
540 1296 m 1
 830 1296 948 1101 948 860 c 0
 948 629 952 400 952 165 c 2
 952 131 l 2
 952 -125 925 -396 425 -396 c 2
 391 -396 l 1
 391 -174 l 1
 676 -174 700 -58 700 106 c 2
 700 852 l 2
 700 1036 657 1087 538 1087 c 0
 433 1087 364 938 328 870 c 1
 328 0 l 1
 75 -3 l 1
 75 1059 l 2
 75 1174 36 1259 36 1259 c 1
 239 1319 l 1
 258 1280 273 1248 280 1171 c 1
 355 1246 424 1296 540 1296 c 1
EndSplineSet
Validated: 1
EndChar

StartChar: eng
Encoding: 331 331 267
Width: 1060
VWidth: 6
Flags: W
HStem: -407 219<414 537.657> 0 21G<100 352> 819 207<439.788 630.643> 1032 20G<203.333 305>
VStem: 100 252<0 737.647> 640 252<-84.5569 811.089>
LayerCount: 2
Fore
SplineSet
338 927 m 1
 394 977 490 1026 600 1026 c 0
 764 1026 892 960 892 796 c 2
 892 278 l 1
 892 -119 828 -407 414 -407 c 1
 414 -188 l 1
 630 -188 640 34 640 191 c 2
 638 699 l 2
 638 773 631 819 564 819 c 0
 501 819 436 781 351 707 c 1
 352 0 l 1
 100 0 l 1
 100 706 l 2
 100 884 92 910 68 1004 c 1
 300 1052 l 1
 310 1028 331 976 338 927 c 1
EndSplineSet
Validated: 1
EndChar

StartChar: Scedilla
Encoding: 350 350 284
Width: 1060
VWidth: 32
Flags: W
HStem: -449 172<372.653 585.298> -2 202<357.414 408 630 656.731> 1118 210<346.951 608.654>
VStem: 27 265<265.677 420> 51 268<907.748 1084.68> 588 224<-270.692 -176.173> 717 258<255.825 506.106>
LayerCount: 2
Fore
SplineSet
231 702 m 0xf2
 121 752 51 844 51 1006 c 0
 51 1226 215 1328 470 1328 c 0
 473 1328 476 1328 479 1328 c 0
 719 1328 915 1246 960 1078 c 1
 687 976 l 1
 641 1077 555 1118 485 1118 c 0
 399 1118 319 1082 319 1014 c 0
 319 916 375 892 433 870 c 0
 556 822 627 813 759 752 c 1
 867 699 975 594 975 396 c 0xea
 975 142 822 28 630 -1 c 1
 629 -19 629 -68 629 -71 c 1
 726 -76 812 -133 812 -247 c 0
 812 -377 698 -449 540 -449 c 0
 474 -449 382 -431 326 -395 c 1
 386 -248 l 1
 419 -266 464 -277 515 -277 c 0
 551 -277 585 -266 588 -228 c 1
 588 -226 l 2xe4
 588 -197 564 -170 516 -170 c 0
 468 -170 436 -173 408 -183 c 1
 408 -2 l 1
 127 37 27 216 27 422 c 1
 292 420 l 1
 292 277 355 200 507 200 c 0
 615 200 717 236 717 382 c 0
 717 491 646 547 567 582 c 0
 451 633 364 641 231 702 c 0xf2
EndSplineSet
Validated: 1
EndChar

StartChar: scedilla
Encoding: 351 351 285
Width: 1060
VWidth: 32
Flags: W
HStem: -460 172<336.654 549.301> -181 363<373.414 550.63> 829 200<369.317 636.781>
VStem: 64 253<211.251 330> 112 254<700.474 817.573> 552 224<-281.692 -187.173> 646 254<213.604 394.387>
LayerCount: 2
Fore
SplineSet
249 549 m 0xf2
 167 589 112 670 112 781 c 0
 112 967 302 1029 477 1029 c 0
 616 1029 769 1014 880 893 c 1
 703 730 l 1
 649 788 576 829 480 829 c 0
 398 829 366 807 366 768 c 0
 366 739 372 719 400 701 c 1
 656 597 900 562 900 278 c 0xea
 900 116 756 28 649 0 c 0
 631 -4 613 -8 594 -11 c 1
 594 -16 594 -26 594 -36 c 0
 594 -56 594 -80 594 -82 c 1
 691 -87 776 -144 776 -258 c 0
 776 -388 662 -460 504 -460 c 0
 438 -460 346 -442 290 -406 c 1
 350 -259 l 1
 383 -277 429 -288 480 -288 c 0
 516 -288 549 -277 552 -239 c 1
 552 -237 l 2xe4
 552 -208 529 -181 481 -181 c 0
 433 -181 400 -184 372 -194 c 1
 372 -12 l 1
 178 20 64 146 64 330 c 1
 317 330 l 1
 317 222 365 182 474 182 c 0
 533 182 646 202 646 290 c 0
 646 349 625 382 576 415 c 1
 507 459 342 504 249 549 c 0xf2
EndSplineSet
Validated: 1
EndChar

StartChar: Tcommaaccent
Encoding: 354 354 288
Width: 1060
VWidth: 32
Flags: W
HStem: -449 172<338.653 551.298> 1118 207<39 355 615 909.962>
VStem: 355 260<-9 1118> 554 224<-269.703 -175.173>
LayerCount: 2
Fore
SplineSet
355 -9 m 1xe0
 355 1118 l 1
 157 1118 115 1117 39 1117 c 1
 39 1324 l 1
 161 1324 615 1325 803 1325 c 0
 876 1325 946 1316 970 1309 c 1
 910 1106 l 1
 910 1106 858 1118 798 1118 c 2
 615 1118 l 1
 615 -9 l 1xe0
 596 -9 l 1
 596 -30 595 -68 595 -70 c 1
 692 -75 778 -132 778 -246 c 0
 778 -376 664 -449 506 -449 c 0
 440 -449 348 -431 292 -395 c 1
 352 -247 l 1
 385 -265 430 -277 481 -277 c 0
 517 -277 551 -265 554 -227 c 1
 554 -225 l 2xd0
 554 -196 531 -170 483 -170 c 0
 435 -170 402 -172 374 -182 c 1
 374 -9 l 1
 355 -9 l 1xe0
EndSplineSet
Validated: 1
EndChar

StartChar: tcommaaccent
Encoding: 355 355 289
Width: 1060
VWidth: 32
Flags: W
HStem: -445 172<389.653 602.298> -166 362<428.264 601.429> 811 204<48.9115 49 50.2202 145 399 780>
VStem: 136 252<236.127 811 1020 1243> 605 224<-266.692 -172.173>
LayerCount: 2
Fore
SplineSet
388 435 m 1
 388 395 l 2
 388 262 427 214 511 200 c 0
 529 197 563 196 576 196 c 0
 641 196 671 209 696 223 c 0
 748 252 759 320 766 339 c 1
 974 239 l 1
 964 211 910 100 798 35 c 0
 756 10 705 0 647 -4 c 1
 647 -25 646 -65 646 -67 c 1
 743 -72 829 -129 829 -243 c 0
 829 -373 715 -445 557 -445 c 0
 491 -445 399 -427 343 -391 c 1
 403 -244 l 1
 436 -262 481 -273 532 -273 c 0
 568 -273 602 -262 605 -224 c 1
 605 -222 l 2
 605 -193 582 -166 534 -166 c 0
 486 -166 453 -169 425 -179 c 1
 425 2 l 1
 313 18 225 60 175 164 c 0
 140 236 136 311 136 397 c 2
 136 440 l 1
 138 530 140 648 145 811 c 1
 131 811 l 2
 103 811 75 807 49 800 c 1
 32 1003 l 1
 56 1012 101 1015 134 1015 c 2
 149 1015 l 1
 149 1085 150 1179 150 1249 c 1
 401 1243 l 1
 401 1177 400 1088 399 1020 c 1
 508 1019 775 1016 783 1016 c 1
 780 812 l 1
 643 812 530 814 397 814 c 1
 391 647 392 535 388 435 c 1
EndSplineSet
Validated: 1
EndChar

StartChar: tcaron
Encoding: 357 357 291
Width: 1060
VWidth: 32
Flags: W
HStem: -6 202<472.235 760.078> 805 204<439 867>
VStem: 178 252<236.379 805 1013 1244> 678 186<1115.3 1297.51>
LayerCount: 2
Fore
SplineSet
949 1476 m 1
 919 1361 899 1249 864 1095 c 1
 678 1117 l 1
 692 1262 714 1407 730 1512 c 1
 949 1476 l 1
EndSplineSet
Refer: 19 116 N 1 0 0 1 0 0 2
Validated: 1
EndChar

StartChar: Tbar
Encoding: 358 358 292
Width: 1060
VWidth: 0
Flags: W
HStem: -9 21G<355 615> 504 217<128 355 615 824> 1118 207<39 355 615 909.962>
VStem: 355 260<-9 504 721 1118>
LayerCount: 2
Fore
SplineSet
355 504 m 1
 128 504 l 1
 128 721 l 1
 355 721 l 1
 355 1118 l 1
 157 1118 115 1117 39 1117 c 1
 39 1324 l 1
 161 1324 615 1325 803 1325 c 0
 876 1325 946 1316 970 1309 c 1
 910 1106 l 1
 910 1106 858 1118 798 1118 c 2
 615 1118 l 1
 615 721 l 1
 824 721 l 1
 824 504 l 1
 615 504 l 1
 615 -9 l 1
 355 -9 l 1
 355 504 l 1
EndSplineSet
Validated: 1
EndChar

StartChar: tbar
Encoding: 359 359 293
Width: 1060
VWidth: 0
Flags: W
HStem: -6 202<513.235 801.078> 433 205<20 219 475 715> 805 204<480 908>
VStem: 219 252<236.379 433 638 805 1013 1244>
LayerCount: 2
Fore
SplineSet
471 433 m 1
 471 396 l 2
 471 262 510 214 594 200 c 0
 612 198 646 196 659 196 c 0
 724 196 754 210 779 224 c 0
 831 252 842 320 849 340 c 1
 1057 240 l 1
 1047 212 993 100 881 36 c 0
 823 2 746 -6 661 -6 c 0
 477 -6 329 16 258 164 c 0
 223 236 219 312 219 398 c 2
 219 433 l 1
 20 433 l 1
 20 638 l 1
 223 638 l 1
 224 687 226 742 228 805 c 1
 214 805 l 2
 186 805 158 801 132 793 c 1
 115 997 l 1
 139 1005 184 1009 217 1009 c 2
 232 1009 l 1
 232 1079 233 1180 233 1250 c 1
 484 1244 l 1
 484 1178 483 1081 482 1013 c 1
 591 1013 903 1009 911 1009 c 1
 908 805 l 1
 771 805 613 807 480 807 c 1
 478 743 476 687 475 638 c 1
 715 638 l 1
 715 433 l 1
 471 433 l 1
EndSplineSet
Validated: 1
EndChar

StartChar: Uogonek
Encoding: 370 370 304
Width: 1060
VWidth: 32
Flags: W
HStem: -503 196<515.57 771.501> 1329 1G<67 328 696 881.714>
VStem: 68 252<284.011 1329> 260 250<-295.213 -148.738> 693 256<306.506 1323.05>
LayerCount: 2
Fore
SplineSet
701 1350 m 1xe8
 954 1322 l 1
 947 1272 946 1237 946 1195 c 0
 946 1186 946 1176 946 1166 c 0
 946 1018 949 888 949 775 c 2
 949 716 l 2
 949 479 944 253 832 121 c 0
 690 -47 510 -130 510 -250 c 0
 510 -293 566 -307 630 -307 c 0
 688 -307 728 -278 758 -256 c 1
 882 -397 l 1
 838 -445 720 -503 620 -503 c 0
 438 -503 260 -447 260 -259 c 0xd8
 260 -147 320 -89 413 -6 c 1
 167 22 84 186 68 456 c 0
 63 533 61 657 61 795 c 0
 61 970 64 1168 70 1329 c 1
 328 1329 l 1
 324 1161 320 932 320 743 c 0
 320 693 320 645 320 602 c 0
 320 538 321 485 326 448 c 0
 340 354 350 204 490 200 c 1
 690 209 693 431 693 718 c 0
 693 844 688 993 688 1166 c 0
 688 1238 691 1287 701 1350 c 1xe8
EndSplineSet
Validated: 1
EndChar

StartChar: uogonek
Encoding: 371 371 305
Width: 1060
VWidth: 32
Flags: W
HStem: -503 196<593.57 849.501> 2 204<315.099 562.217> 1000 21G<99.8571 288 649.967 907>
VStem: 50 245<220.841 876.355> 338 250<-295.213 -185.178> 649 257<285.916 1021>
LayerCount: 2
Fore
SplineSet
754 108 m 1
 679 31 547 5 397 2 c 1
 388 2 l 2
 236 2 50 53 50 229 c 0
 50 311 51 408 51 504 c 0
 51 720 48 935 29 992 c 1
 277 1020 l 1
 299 928 293 664 295 298 c 1
 307 231 326 206 411 206 c 1
 563 213 649 291 649 418 c 2
 650 1021 l 1
 907 1021 l 1
 906 306 l 1
 908 254 973 187 1024 166 c 1
 806 -155 588 -148 588 -250 c 0
 588 -293 644 -307 708 -307 c 0
 766 -307 806 -278 836 -256 c 1
 960 -397 l 1
 916 -445 798 -503 698 -503 c 0
 516 -503 338 -447 338 -259 c 0
 338 -61 611 -72 754 108 c 1
EndSplineSet
Validated: 1
EndChar

StartChar: longs
Encoding: 383 383 317
Width: 1060
VWidth: -2
Flags: W
HStem: 0 21G<324 581> 807 205<131 324> 1217 201<606.522 848.821>
VStem: 324 257<0 807 1012 1188.92>
LayerCount: 2
Fore
SplineSet
848 1206 m 1
 821 1215 762 1217 723 1217 c 0
 591 1217 580 1143 580 1083 c 3
 580 1056 581 1012 581 1012 c 1
 581 0 l 1
 324 0 l 1
 324 807 l 1
 131 807 l 1
 131 1012 l 1
 324 1012 l 1
 324 1028 324 1045 324 1064 c 0
 324 1194 390 1418 706 1418 c 0
 767 1418 846 1414 894 1404 c 1
 848 1206 l 1
EndSplineSet
Validated: 1
EndChar

StartChar: Euro
Encoding: 8364 8364 318
Width: 1060
VWidth: 0
Flags: W
HStem: -31 213<491.198 712.038> 394 189<59.3943 160 442 635> 676 188<63.4799 161 445 732> 1125 218<507.65 719.742>
VStem: 160 276<267.456 394 584 676> 180 265<866 1040.75>
LayerCount: 2
Fore
SplineSet
794 866 m 1xf4
 732 682 l 1
 720 682 l 0
 663 680 632 676 556 676 c 0
 499 676 538 676 438 676 c 1
 438 653 436 631 436 609 c 0
 436 601 436 593 436 584 c 1
 466 583 470 583 508 583 c 0
 594 583 584 584 673 585 c 0
 699 585 l 1
 635 392 l 1
 442 394 l 1
 451 236 508 182 566 182 c 1
 584 182 l 2
 650 182 730 209 778 315 c 1
 979 156 l 1
 859 0 768 -31 581 -31 c 0
 502 -31 376 -3 292 107 c 0
 226 192 193 272 174 394 c 1
 147 395 123 396 99 396 c 0
 70 396 42 395 9 394 c 1
 21 448 39 522 64 583 c 1
 104 583 142 584 160 584 c 1
 160 601 160 617 160 632 c 0xf8
 160 647 160 662 161 676 c 1
 81 677 49 677 1 681 c 1
 24 737 50 826 69 870 c 1
 97 867 125 867 180 866 c 1
 199 978 218 1032 252 1108 c 0
 334 1287 499 1343 598 1343 c 0
 706 1343 820 1312 912 1209 c 1
 818 950 l 1
 764 1053 698 1125 601 1125 c 0
 508 1125 454 1040 445 864 c 1
 488 864 513 864 554 864 c 0
 636 864 597 864 631 864 c 1
 683 866 718 868 760 868 c 0
 794 866 l 1xf4
EndSplineSet
Validated: 1
EndChar

StartChar: uniE000
Encoding: 57344 57344 319
Width: 1060
VWidth: 6
Flags: W
HStem: 390 154<418.981 573.371> 486 158<208.671 369.117>
VStem: 67 635
LayerCount: 2
Fore
SplineSet
76 491 m 2x60
 135 603 198 644 262 644 c 0x60
 366 644 461 544 519 544 c 0
 542 544 566 560 589 624 c 0
 598 650 l 1
 702 546 l 1
 695 532 l 0
 640 430 580 390 519 390 c 0xa0
 415 390 327 486 269 486 c 0
 242 486 219 475 194 409 c 0
 186 387 l 1
 67 475 l 1
 76 491 l 2x60
EndSplineSet
Validated: 1
EndChar

StartChar: uniE001
Encoding: 57345 57345 320
Width: 1060
VWidth: 6
Flags: W
HStem: -312 150<347.529 575.23> -26 21G<716 755.5> -11 152<370.059 490.911> 513 151<403.205 550.976> 894 150<395.333 532.135> 1191 152<345.927 566.731>
VStem: 23 123<166.673 870.319> 219 129<151.289 456.948> 565 117<224.252 496.71> 774 114<148.623 863.075>
LayerCount: 2
Fore
SplineSet
406 -11 m 1xbfc0
 275 -5 219 154 219 299 c 0
 219 300 219 302 219 303 c 1
 219 380 236 461 271 524 c 1
 329 628 403 661 472 664 c 0
 475 664 477 664 480 664 c 0
 516 664 545 652 564 641 c 1
 555 806 546 894 462 894 c 0
 403 894 396 860 340 727 c 0
 332 709 l 1
 228 770 l 1
 234 787 l 0
 289 963 364 1041 462 1044 c 1
 503 1044 561 1025 602 967 c 1
 644 907 682 805 682 663 c 0
 682 229 l 1
 685 155 690 157 709 133 c 1
 710 131 714 128 717 126 c 1
 727 132 733 149 739 169 c 0
 771 267 774 386 774 515 c 0
 774 900 635 1191 456 1191 c 0
 278 1191 146 901 146 515 c 0
 146 129 286 -162 456 -162 c 0
 516 -162 574 -129 624 -72 c 0
 636 -57 l 1
 713 -153 l 1
 702 -166 l 0
 639 -239 542 -312 456 -312 c 0
 209 -312 23 68 23 515 c 0
 23 962 209 1343 456 1343 c 0
 703 1343 888 962 888 515 c 0
 888 364 866 222 830 98 c 1
 821 71 789 -26 722 -26 c 0
 721 -26 720 -26 719 -26 c 0
 717 -26 l 1xdfc0
 716 -25 l 0
 697 -20 668 -9 648 16 c 0
 647 16 l 0
 635 34 609 59 596 110 c 1
 573 80 553 65 524 38 c 1
 492 11 451 -11 406 -11 c 1xbfc0
405 141 m 0xbfc0
 431 141 459 155 476 170 c 1
 541 229 554 299 565 334 c 1
 565 367 564 433 564 452 c 1
 533 495 503 513 472 513 c 0
 471 513 470 513 469 513 c 0
 414 511 348 415 348 310 c 0
 348 308 348 307 348 305 c 1
 351 201 382 141 405 141 c 0xbfc0
EndSplineSet
Validated: 1
EndChar

StartChar: uniE002
Encoding: 57346 57346 321
Width: 1060
VWidth: 6
Flags: W
HStem: -310 150<414.529 642.23> -9 153<491.048 609.012> 702 152<500.409 649.08> 1198 153<409.668 608.797>
VStem: 90 123<169.451 874.351> 315 129<193.676 639.402> 683 117<227.653 665.965>
LayerCount: 2
Fore
SplineSet
800 703 m 0
 800 703 800 678 800 666 c 0
 800 231 l 1
 803 159 822 126 854 98 c 0
 871 83 l 1
 776 4 l 1
 765 20 l 1
 752 39 727 63 714 113 c 1
 691 83 671 68 642 41 c 1
 610 14 570 -9 524 -9 c 1
 389 -2 315 233 315 378 c 0
 315 379 315 380 315 381 c 1
 315 393 315 407 315 422 c 0
 315 496 319 600 368 711 c 0
 418 823 503 851 571 854 c 0
 573 854 575 854 577 854 c 0
 620 854 658 835 680 821 c 1
 678 854 677 882 675 903 c 0
 666 1031 655 1198 509 1198 c 0
 352 1198 213 905 213 518 c 0
 213 132 353 -160 523 -160 c 0
 583 -160 641 -126 691 -69 c 0
 703 -54 l 1
 779 -150 l 1
 769 -163 l 0
 706 -236 609 -310 523 -310 c 0
 276 -310 90 71 90 518 c 0
 90 964 262 1351 509 1351 c 0
 774 1351 800 996 800 703 c 0
524 144 m 0
 550 144 577 158 594 173 c 1
 659 232 672 301 683 336 c 1
 683 621 l 1
 651 665 596 702 567 702 c 0
 467 702 444 498 444 375 c 0
 444 370 444 365 444 360 c 1
 447 256 503 144 524 144 c 0
EndSplineSet
Validated: 1
EndChar

StartChar: gravecomb
Encoding: 768 768 322
Width: 1060
VWidth: -43
Flags: W
HStem: 1093 442
VStem: 193 566
AnchorPoint: "above_accent" 448 1080 mark 0
LayerCount: 2
Fore
SplineSet
759 1267 m 1
 669 1093 l 1
 526 1140 304 1251 193 1363 c 1
 327 1535 l 1
 442 1427 616 1315 759 1267 c 1
EndSplineSet
Validated: 1
EndChar

StartChar: acutecomb
Encoding: 769 769 323
Width: 1060
VWidth: -43
Flags: W
HStem: 1093 442
VStem: 199 566
AnchorPoint: "above_accent" 500 1080 mark 0
LayerCount: 2
Fore
SplineSet
199 1267 m 1
 342 1315 516 1427 631 1535 c 1
 765 1363 l 1
 654 1251 432 1140 289 1093 c 1
 199 1267 l 1
EndSplineSet
Validated: 1
EndChar

StartChar: uni0302
Encoding: 770 770 324
Width: 1060
VWidth: -10
Flags: W
HStem: 1155 447
AnchorPoint: "above_accent" 516 1130 mark 0
LayerCount: 2
Fore
SplineSet
519 1602 m 1
 897 1311 l 1
 759 1155 l 1
 519 1356 l 1
 290 1159 l 1
 150 1305 l 1
 519 1602 l 1
EndSplineSet
Validated: 1
EndChar

StartChar: tildecomb
Encoding: 771 771 325
Width: 1060
VWidth: -12
Flags: W
HStem: 1152 178<576.92 735.997> 1282 180<298.718 462.459>
AnchorPoint: "above_accent" 499 1107 mark 0
LayerCount: 2
Fore
SplineSet
339 1462 m 0x40
 555 1462 574 1330 664 1330 c 0
 714 1330 744 1361 750 1430 c 1
 927 1376 l 1
 906 1280 848 1152 686 1152 c 0x80
 488 1152 467 1282 366 1282 c 0
 324 1282 287 1245 278 1182 c 1
 94 1260 l 1
 127 1353 198 1462 339 1462 c 0x40
EndSplineSet
Validated: 1
EndChar

StartChar: uni0304
Encoding: 772 772 326
Width: 1060
VWidth: -34
Flags: W
HStem: 1289 194<238 738>
VStem: 238 500<1289 1478>
AnchorPoint: "above_accent" 476 1185 mark 0
LayerCount: 2
Fore
SplineSet
738 1483 m 1
 738 1289 l 1
 721 1289 l 0
 663 1287 565 1282 491 1282 c 0
 417 1282 324 1283 256 1285 c 0
 238 1286 l 1
 238 1483 l 1
 257 1481 l 0
 322 1479 437 1478 529 1478 c 0
 590 1478 676 1483 721 1483 c 0
 738 1483 l 1
EndSplineSet
Validated: 1
EndChar

StartChar: uni0305
Encoding: 773 773 327
Width: 1060
VWidth: -34
Flags: W
HStem: 1284 203<87 879>
AnchorPoint: "above_accent" 463 1180 mark 0
LayerCount: 2
Fore
SplineSet
879 1484 m 1
 879 1283 l 1
 87 1284 l 1
 87 1487 l 1
 879 1484 l 1
EndSplineSet
Validated: 1
EndChar

StartChar: uni0306
Encoding: 774 774 328
Width: 1060
VWidth: -12
Flags: W
HStem: 1151 183<388.837 640.214>
AnchorPoint: "above_accent" 504 1107 mark 0
LayerCount: 2
Fore
SplineSet
510 1334 m 0
 618 1334 684 1397 690 1475 c 1
 909 1445 l 1
 885 1268 756 1151 516 1151 c 1
 291 1151 159 1229 111 1454 c 1
 330 1484 l 1
 357 1367 435 1334 510 1334 c 0
EndSplineSet
Validated: 1
EndChar

StartChar: uni0308
Encoding: 776 776 329
Width: 1060
VWidth: -28
Flags: W
HStem: 1184 240<146 425 566 848>
VStem: 146 279<1184 1424> 566 282<1184 1421>
AnchorPoint: "above_accent" 491 1107 mark 0
LayerCount: 2
Fore
SplineSet
566 1424 m 1
 848 1421 l 1
 848 1183 l 1
 566 1184 l 1
 566 1424 l 1
146 1424 m 1
 425 1424 l 1
 425 1184 l 1
 146 1184 l 1
 146 1424 l 1
EndSplineSet
Validated: 1
EndChar

StartChar: uni0307
Encoding: 775 775 330
Width: 1060
VWidth: -28
Flags: W
HStem: 1184 246<311 594>
VStem: 311 285<1184 1430>
AnchorPoint: "above_accent" 459 1107 mark 0
LayerCount: 2
Fore
SplineSet
310 1430 m 1
 594 1430 l 1
 596 1184 l 1
 311 1184 l 1
 310 1430 l 1
EndSplineSet
Validated: 1
EndChar

StartChar: uni030A
Encoding: 778 778 331
Width: 1060
VWidth: -8
Flags: W
HStem: 1278 132<439.395 601.541> 1535 142<439.983 602.971>
VStem: 246 189<1419.88 1526.35> 607 190<1419.71 1526.35>
AnchorPoint: "above_accent" 521 1244 mark 0
LayerCount: 2
Fore
SplineSet
521 1535 m 0
 468 1535 435 1504 435 1473 c 0
 435 1442 469 1410 521 1410 c 0
 573 1410 607 1442 607 1473 c 0
 607 1504 574 1535 521 1535 c 0
246 1473 m 0
 246 1589 374 1677 522 1677 c 0
 670 1677 797 1589 797 1473 c 0
 797 1358 682 1278 522 1278 c 0
 369 1278 246 1359 246 1473 c 0
EndSplineSet
Validated: 1
EndChar

StartChar: uni0237
Encoding: 567 567 332
Width: 1060
VWidth: 0
Flags: W
HStem: -389 201<345.489 561.649> -28 20G<211.838 277> 813 200<357.45 588>
VStem: 588 254<-163.515 813>
AnchorPoint: "above_accent" 700 1103 basechar 0
LayerCount: 2
Fore
SplineSet
842 -78 m 1
 842 -231 761 -389 475 -389 c 3
 352 -389 196 -361 70 -156 c 1
 234 -8 l 1
 320 -153 389 -188 452 -188 c 0
 458 -188 465 -188 470 -188 c 3
 590 -188 586 -83 588 -48 c 1
 588 813 l 1
 539 813 448 807 353 785 c 1
 324 971 l 1
 418 999 508 1013 588 1013 c 2
 842 1013 l 1
 842 -78 l 1
EndSplineSet
Validated: 1
EndChar

StartChar: uni030B
Encoding: 779 779 333
Width: 1060
VWidth: -43
Flags: W
HStem: 1143 545
AnchorPoint: "above_accent" 420 1120 mark 0
LayerCount: 2
Fore
SplineSet
471 1286 m 1
 588 1381 701 1547 771 1688 c 1
 972 1561 l 1
 907 1417 736 1237 618 1143 c 1
 471 1286 l 1
88 1293 m 1
 205 1388 318 1554 388 1695 c 1
 588 1568 l 1
 523 1424 353 1244 235 1150 c 1
 88 1293 l 1
EndSplineSet
Validated: 1
EndChar

StartChar: uni030C
Encoding: 780 780 334
Width: 1060
VWidth: -10
Flags: W
HStem: 1206 447
AnchorPoint: "above_accent" 520 1169 mark 0
LayerCount: 2
Fore
SplineSet
522 1206 m 1
 156 1503 l 1
 300 1641 l 1
 522 1452 l 1
 762 1653 l 1
 900 1497 l 1
 522 1206 l 1
EndSplineSet
Validated: 1
EndChar

StartChar: uni030F
Encoding: 783 783 335
Width: 1060
VWidth: -43
Flags: W
HStem: 1170 545
AnchorPoint: "above_accent" 511 1140 mark 0
LayerCount: 2
Fore
SplineSet
578 1313 m 1
 430 1170 l 1
 312 1264 142 1444 77 1588 c 1
 278 1715 l 1
 348 1574 461 1408 578 1313 c 1
961 1320 m 1
 814 1178 l 1
 696 1272 525 1452 460 1596 c 1
 661 1722 l 1
 731 1581 844 1415 961 1320 c 1
EndSplineSet
Validated: 1
EndChar

StartChar: uni0191
Encoding: 401 401 339
Width: 1060
VWidth: 0
Flags: W
HStem: 642 216<400 731.256> 1115 209<400 925.784>
VStem: 139 261<-17.6681 640 856 1114>
LayerCount: 2
Fore
SplineSet
405 78 m 1
 399 -108 331 -303 -1 -303 c 1
 -1 -39 l 1
 103 -39 131 -8 139 85 c 1
 139 1324 l 1
 824 1324 l 2
 926 1324 971 1307 1005 1290 c 1
 927 1087 l 1
 901 1101 879 1114 781 1115 c 1
 710 1115 l 2
 606 1115 583 1115 400 1114 c 1
 400 856 l 1
 520 856 482 858 604 858 c 0
 694 858 761 840 801 822 c 1
 733 620 l 1
 696 637 646 642 601 642 c 0
 559 642 536 642 516 642 c 0
 486 642 465 642 400 640 c 1
 400 539 404 236 405 78 c 1
EndSplineSet
Validated: 1
EndChar

StartChar: florin
Encoding: 402 402 340
Width: 1060
VWidth: -2
Flags: W
HStem: -340 244<96 230.131> 807 205<146 288 546 861.016> 1217 201<570.772 784.381>
VStem: 288 256<-40.1864 807 1012 1188.92>
LayerCount: 2
Fore
SplineSet
545 126 m 1
 541 -120 414 -340 94 -340 c 1
 96 -96 l 1
 238 -96 284 -30 288 138 c 1
 288 807 l 1
 146 807 l 1
 146 1012 l 1
 288 1012 l 1
 288 1028 288 1045 288 1064 c 0
 288 1194 354 1418 670 1418 c 0
 866 1418 946 1368 1024 1213 c 1
 812 1116 l 1
 786 1198 749 1217 688 1217 c 0
 556 1217 544 1143 544 1083 c 0
 544 1056 546 1012 546 1012 c 1
 614 1012 657 1012 730 1012 c 0
 835 1012 876 1000 906 991 c 1
 862 794 l 1
 841 801 820 807 764 807 c 2
 544 807 l 1
 545 126 l 1
EndSplineSet
Validated: 1
EndChar

StartChar: alpha
Encoding: 945 945 341
Width: 1060
VWidth: 4
Flags: W
HStem: -7 206<371.987 493.349> 815 203<364.921 491.563> 1017 20G<782 862.857>
VStem: 53 253<271.384 748.807>
AnchorPoint: "above_accent" 520 1108 basechar 0
LayerCount: 2
Fore
SplineSet
850 493 m 1xb0
 874 416 881 360 913 263 c 0
 932 205 964 179 1030 153 c 1
 928 -32 l 1
 800 0 744 87 726 147 c 0
 719 170 712 193 705 215 c 1
 640 67 567 -7 436 -7 c 0
 148 -7 53 259 53 527 c 0
 53 894 242 1018 417 1018 c 0xd0
 582 1018 668 923 716 767 c 1
 747 866 764 944 800 1037 c 1
 1020 967 l 1
 955 841 902 661 850 493 c 1xb0
306 524 m 0
 306 205 425 199 436 199 c 2
 444 199 l 2
 497 199 537 326 577 495 c 1
 531 711 500 815 427 815 c 0
 378 815 306 730 306 524 c 0
EndSplineSet
Validated: 1
EndChar

StartChar: beta
Encoding: 946 946 342
Width: 1060
VWidth: 0
Flags: W
HStem: 0 199<482.635 720.883> 634 207<406 553.499> 1122 206<365.454 549.604>
VStem: 94 252<339.205 1105.34> 104 234<-283.026 112> 582 246<871.698 1090.33> 756 246<232.594 529.85>
LayerCount: 2
Back
SplineSet
67 1003 m 4xf4
 67 1159 183 1328 390 1328 c 4
 626 1328 798 1243 798 1009 c 5xf4
 798 886 753 815 670 779 c 5
 814 754 972 661 972 381 c 4
 972 76 844 -2 624 -2 c 4
 437 -2 373 95 373 298 c 4
 373 306 374 314 374 322 c 5
 578 320 l 5
 578 257 583 199 646 199 c 4
 700 199 728 247 728 395 c 4xfa
 728 504 664 634 376 634 c 5
 376 840 l 5
 541 840 554 905 554 1003 c 4
 554 1088 472 1122 413 1122 c 5
 346 1122 316 1073 316 1007 c 4
 316 851 321 637 321 450 c 4
 321 410 322 370 322 331 c 4
 322 251 319 176 299 117 c 4
 272 35 169 -9 113 -37 c 5
 21 211 l 5
 41 221 59 235 67 261 c 4
 75 287 76 323 76 398 c 4
 76 413 76 429 76 448 c 4
 76 635 67 829 67 1003 c 4xf4
EndSplineSet
Fore
SplineSet
338 112 m 1xea
 338 83 338 59 338 39 c 0
 338 -85 334 -203 326 -300 c 1
 90 -283 l 1
 100 -183 104 -74 104 37 c 0xea
 104 224 94 829 94 1003 c 0
 94 1159 206 1328 404 1328 c 0
 608 1328 828 1274 828 1010 c 0xf4
 828 832 736 802 702 779 c 1
 870 749 1002 636 1002 382 c 0
 1002 50 858 0 614 0 c 0
 612 0 608 0 606 0 c 0
 478 0 428 39 338 112 c 1xea
616 199 m 0
 738 199 756 291 756 387 c 0xf2
 756 570 608 634 406 634 c 1
 406 841 l 1
 546 841 582 883 582 1003 c 0
 582 1058 538 1122 442 1122 c 0
 382 1122 346 1083 346 993 c 0xf4
 346 893 350 640 350 398 c 1
 448 223 552 199 616 199 c 0
EndSplineSet
Validated: 1
EndChar

StartChar: gamma
Encoding: 947 947 343
Width: 1060
VWidth: 14
Flags: W
HStem: 820 221<30 144.972>
VStem: 469 258<-376 144.128>
LayerCount: 2
Fore
SplineSet
469 -376 m 1
 469 -269 466 -10 448 68 c 0
 391 315 262 583 168 740 c 0
 133 799 118 804 106 811 c 0
 91 820 70 820 45 820 c 0
 40 820 35 819 30 819 c 1
 30 1041 l 1
 63 1041 102 1040 130 1036 c 0
 193 1026 268 1010 328 917 c 0
 425 765 518 552 588 351 c 1
 662 568 796 1061 796 1061 c 1
 1024 986 l 1
 1024 986 816 387 720 15 c 1
 726 -67 727 -175 727 -291 c 0
 727 -320 727 -350 727 -379 c 1
 469 -376 l 1
EndSplineSet
Validated: 1
EndChar

StartChar: delta
Encoding: 948 948 344
Width: 1060
VWidth: 6
Flags: W
HStem: 1 197<415.49 623.716> 1182 197<328.234 725.362>
VStem: 82 251<284.544 655.108 1074.49 1174.88> 695 249<270.88 620.937>
LayerCount: 2
Back
SplineSet
625 247 m 1
 672 299 685 403 685 530 c 0
 685 536 685 540 685 546 c 0
 683 703 648 830 520 830 c 0
 369 830 324 690 324 482 c 0
 324 316 387 197 508 197 c 1
 563 198 589 211 625 247 c 1
507 -6 m 1
 197 -6 72 184 72 464 c 0
 72 835 213 1032 505 1032 c 0
 702 1032 812 963 882 831 c 0
 923 752 941 639 941 543 c 0
 941 258 845 -6 509 -6 c 2
 507 -6 l 1
EndSplineSet
Fore
SplineSet
515 748 m 1
 350 716 333 556 333 469 c 0
 333 366 367 198 526 198 c 0
 695 198 695 429 695 506 c 0
 695 565 641 679 515 748 c 1
944 504 m 0
 944 244 848 1 526 1 c 2
 524 1 l 1
 252 2 82 184 82 464 c 0
 82 655 159 824 275 854 c 1
 230 876 214 894 187 915 c 0
 141 952 81 1027 81 1103 c 0
 81 1341 272 1379 482 1379 c 0
 606 1379 745 1351 866 1322 c 1
 824 1111 l 1
 691 1148 570 1182 474 1182 c 0
 387 1182 325 1176 325 1129 c 0
 325 1101 368 1079 400 1063 c 0
 665 934 944 838 944 504 c 0
EndSplineSet
Validated: 1
EndChar

StartChar: epsilon
Encoding: 949 949 345
Width: 1060
VWidth: 0
Flags: W
HStem: -4 197<421.222 844.29> 469 196<437.583 731> 825 199<395.513 868.14>
VStem: 117 266<234.292 417.901 713.577 807.758>
AnchorPoint: "above_accent" 560 1108 basechar 0
LayerCount: 2
Fore
SplineSet
1051 138 m 1
 980 85 810 -4 587 -4 c 0
 405 -4 312 14 237 73 c 0
 160 134 117 236 117 301 c 0
 117 431 175 548 327 584 c 1
 174 601 116 691 116 789 c 0
 116 973 348 1024 570 1024 c 2
 583 1024 l 2
 816 1024 930 963 948 951 c 1
 880 775 l 1
 856 790 717 825 572 825 c 0
 457 825 384 813 384 761 c 0
 384 689 602 665 701 665 c 2
 708 665 l 1
 713 665 l 1
 731 665 l 1
 731 468 l 1
 705 468 679 469 653 469 c 0
 452 469 383 418 383 306 c 0
 383 257 431 193 612 193 c 0
 780 193 887 249 938 295 c 1
 1051 138 l 1
EndSplineSet
Validated: 1
EndChar

StartChar: zeta
Encoding: 950 950 346
Width: 1060
VWidth: 0
Flags: W
HStem: -347 198<659.393 768.327> 0 215<454.008 779.398> 1155 197<222.111 642.196> 1356 20G<902 975.7>
VStem: 138 258<282.446 663.224> 788 222<-118.439 -8.49052>
LayerCount: 2
Fore
SplineSet
204 1414 m 1
 244 1372 280 1352 360 1352 c 0
 526 1352 836 1358 968 1376 c 1
 1050 1163 l 1
 878 1080 396 808 396 504 c 0
 396 321 448 215 540 215 c 0
 544 215 712 216 716 216 c 0
 922 216 1010 91 1010 -66 c 0
 1010 -297 752 -337 662 -347 c 1
 626 -149 l 1
 710 -136 788 -115 788 -77 c 0
 788 -3 736 0 648 0 c 0
 642 0 636 0 628 0 c 0
 624 0 494 0 490 0 c 0
 288 0 138 177 138 504 c 0
 138 861 402 991 646 1164 c 1
 516 1157 508 1155 380 1155 c 0
 266 1155 148 1175 70 1274 c 1
 204 1414 l 1
EndSplineSet
Validated: 1
EndChar

StartChar: eta
Encoding: 951 951 347
Width: 1060
VWidth: 6
Flags: W
HStem: 0 21G<110 362> 819 207<460.428 690.422>
VStem: 110 252<0 737.647> 701 252<-309.685 811.126>
AnchorPoint: "above_accent" 533 1108 basechar 0
LayerCount: 2
Fore
SplineSet
953 296 m 1
 954 -61 l 2
 954 -127 968 -264 986 -312 c 1
 748 -374 l 1
 730 -295 701 -230 701 -68 c 2
 701 210 l 1
 700 717 l 2
 700 791 675 819 608 819 c 0
 545 819 446 781 361 707 c 1
 362 0 l 1
 110 0 l 1
 110 706 l 2
 110 884 102 910 78 1004 c 1
 310 1052 l 1
 320 1028 341 976 348 927 c 1
 404 977 534 1026 644 1026 c 0
 808 1026 953 978 953 814 c 2
 953 296 l 1
EndSplineSet
Validated: 1
EndChar

StartChar: theta
Encoding: 952 952 348
Width: 1060
VWidth: 0
Flags: W
HStem: -16 203<387.94 609.054> 582 222<311.268 713> 1174 203<415.193 616.501>
VStem: 36 262<297.182 568.084 790 990.785> 714 265<326.351 582 804 1002.89>
LayerCount: 2
Fore
SplineSet
351 277 m 0
 398 203 436 187 510 187 c 0
 589 187 638 249 669 326 c 1
 690 372 707 491 714 582 c 1
 699 582 683 582 666 582 c 0
 580 582 474 579 298 565 c 1
 301 471 315 333 351 277 c 0
522 1377 m 1
 683 1377 974 1293 979 663 c 1
 979 652 l 2
 979 485 948 312 900 217 c 0
 825 70 675 -16 510 -16 c 0
 388 -16 239 25 158 127 c 0
 68 239 36 411 36 595 c 0
 36 947 96 1117 166 1214 c 0
 232 1306 366 1374 522 1377 c 1
713 804 m 1
 708 883 696 976 673 1036 c 0
 633 1142 581 1174 521 1174 c 0
 456 1174 418 1149 378 1078 c 0
 344 1019 317 923 305 790 c 1
 439 802 555 804 654 804 c 0
 675 804 694 804 713 804 c 1
EndSplineSet
Validated: 1
EndChar

StartChar: iota
Encoding: 953 953 349
Width: 1060
VWidth: 0
Flags: W
HStem: -18 202<637.127 798.449> 813 200<134.449 364>
VStem: 364 256<199.609 296 296.323 813>
AnchorPoint: "above_accent" 492 1107 basechar 0
LayerCount: 2
Fore
SplineSet
364 1013 m 2
 619 1013 l 1
 619 740 620 296 620 296 c 2
 620 232 654 184 712 184 c 0
 777 184 819 225 844 335 c 1
 1049 247 l 1
 981 57 878 -18 678 -18 c 0
 582 -18 494 7 456 40 c 0
 397 92 364 157 364 284 c 2
 364 813 l 1
 315 813 225 807 130 785 c 1
 101 971 l 1
 195 999 284 1013 364 1013 c 2
EndSplineSet
Validated: 1
EndChar

StartChar: kappa
Encoding: 954 954 350
Width: 1060
VWidth: 0
Flags: W
HStem: 0 5G<90 348 771 831.46> 1002 20G<90 348 850 890.059>
VStem: 90 258<0 352.312 676 1022>
LayerCount: 2
Fore
SplineSet
589 571 m 1
 709 452 979 248 1030 110 c 1
 794 -16 l 1
 748 95 564 278 434 407 c 1
 434 407 378 345 348 273 c 1
 348 0 l 1
 90 0 l 1
 90 1022 l 1
 348 1022 l 1
 348 676 l 1
 451 821 824 1038 876 1058 c 1
 1018 856 l 1
 813 761 649 645 589 571 c 1
EndSplineSet
Validated: 1
EndChar

StartChar: lambda
Encoding: 955 955 351
Width: 1060
VWidth: 14
Flags: W
HStem: 0 244<802.5 975.363> 1178 211<249.701 361.83>
LayerCount: 2
Fore
SplineSet
230 -12 m 1
 0 105 l 1
 72 239 313 616 410 964 c 1
 374 1136 358 1178 305 1178 c 0
 253 1178 243 1140 243 1102 c 1
 32 1104 l 1
 32 1317 130 1389 346 1389 c 0
 495 1389 581 1304 614 1191 c 2
 843 408 l 2
 889 251 896 244 917 244 c 0
 943 244 959 286 959 286 c 1
 1044 60 l 1
 970 10 952 0 850 0 c 0
 755 0 677 42 601 332 c 0
 580 413 559 503 524 630 c 1
 424 356 376 255 230 -12 c 1
EndSplineSet
Validated: 1
EndChar

StartChar: nu
Encoding: 957 957 353
Width: 1060
VWidth: 6
Flags: W
HStem: -8 21G<352 518.5> 1034 20G<186.385 304 868.195 954.5>
VStem: 755 256<437.64 922.319>
LayerCount: 2
Fore
SplineSet
219 1054 m 1
 389 771 480 508 548 251 c 1
 719 372 755 488 755 704 c 0
 755 846 709 924 689 972 c 1
 926 1054 l 1
 983 954 1011 840 1011 726 c 0
 1011 190 685 -8 352 -8 c 1
 352 250 133 741 7 924 c 1
 219 1054 l 1
EndSplineSet
Validated: 1
EndChar

StartChar: xi
Encoding: 958 958 354
Width: 1060
VWidth: 0
Flags: W
HStem: -347 198<665.393 773.531> 0 215<401.407 787.252> 661 197<654.113 804> 1155 197<234.124 448.274> 1356 20G<790 864.643>
VStem: 100 258<262.383 463.204> 282 266<889.587 1022.14> 792 222<-117.126 -10.4223>
LayerCount: 2
Fore
SplineSet
200 1428 m 1xfb
 240 1386 286 1352 368 1352 c 0
 532 1352 724 1358 856 1376 c 1
 942 1177 l 1
 832 1130 548 1046 548 964 c 0xfb
 548 871 654 858 804 858 c 1
 804 661 l 1
 540 595 358 504 358 339 c 0
 358 303 396 215 546 215 c 0
 548 215 718 216 720 216 c 0
 886 216 1014 134 1014 -66 c 0
 1014 -280 790 -335 668 -347 c 1
 632 -149 l 1
 716 -136 792 -117 792 -77 c 0
 792 -21 766 0 678 0 c 0
 670 0 664 0 658 0 c 0
 654 0 498 0 494 0 c 0
 294 0 100 58 100 325 c 0xfd
 100 577 318 716 434 752 c 1
 392 763 282 799 282 967 c 0
 282 1057 358 1125 450 1161 c 1
 450 1161 392 1155 362 1155 c 0
 246 1155 148 1182 72 1264 c 1
 200 1428 l 1xfb
EndSplineSet
Validated: 1
EndChar

StartChar: pi
Encoding: 960 960 356
Width: 1060
VWidth: 6
Flags: W
HStem: -8 210<835.587 968.793> 810 210<73.9557 174 425 577 830 864.641>
VStem: 174 251<127.292 803> 577 253<203.825 810>
LayerCount: 2
Fore
SplineSet
761 1020 m 1
 832 1020 856 1051 888 1093 c 1
 1060 909 l 1
 982 821 927 813 830 810 c 1
 830 306 l 2
 830 232 844 202 865 202 c 0
 896 202 916 219 948 272 c 1
 1060 58 l 1
 1009 2 922 -8 853 -8 c 0
 679 -8 577 73 577 262 c 2
 577 810 l 1
 425 810 l 1
 425 554 l 2
 425 268 372 49 358 -8 c 1
 102 12 l 1
 120 80 174 264 174 558 c 2
 174 803 l 1
 138 803 114 800 72 780 c 1
 34 998 l 1
 77 1014 134 1020 195 1020 c 9
 761 1020 l 1
EndSplineSet
Validated: 1
EndChar

StartChar: rho
Encoding: 961 961 357
Width: 1060
VWidth: -2
Flags: W
HStem: -6 213<440.333 637.545> 818 214<423.757 630.894>
VStem: 102 253<-336.647 92.3425 313.609 736.59> 703 276<277.821 739.55>
LayerCount: 2
Fore
SplineSet
703 517 m 0
 703 522 703 527 703 532 c 0
 702 684 659 818 524 818 c 0
 426 818 355 734 355 533 c 0
 355 324 439 207 538 207 c 0
 674 207 703 351 703 517 c 0
102 562 m 2
 102 854 281 1032 543 1032 c 0
 740 1032 850 963 920 831 c 0
 961 752 979 639 979 543 c 0
 979 258 902 -6 580 -6 c 2
 578 -6 l 2
 441 -6 393 17 327 96 c 1
 351 18 352 -62 352 -99 c 0
 352 -230 390 -316 415 -377 c 1
 160 -438 l 1
 132 -376 100 -209 100 -70 c 2
 102 562 l 2
EndSplineSet
Validated: 1
EndChar

StartChar: sigma1
Encoding: 962 962 358
Width: 1060
VWidth: 4
Flags: W
HStem: -347 198<659.393 768.109> 10 212<464.689 771.339> 807 211<479.703 747.653>
VStem: 127 256<315.001 702.322> 787 222<-117.126 -11.6772>
LayerCount: 2
Fore
SplineSet
383 528 m 0
 383 312 475 226 552 222 c 0
 555 222 723 213 726 213 c 0
 892 204 1009 134 1009 -66 c 0
 1009 -280 785 -335 662 -347 c 1
 626 -149 l 1
 710 -136 787 -117 787 -77 c 0
 787 -21 760 -5 672 0 c 0
 665 0 659 1 652 1 c 0
 648 1 493 10 489 10 c 0
 425 13 349 34 297 73 c 1
 167 174 127 328 127 527 c 0
 127 867 305 1018 620 1018 c 0
 715 1018 812 999 875 957 c 0
 935 917 981 858 1003 806 c 1
 783 704 l 1
 773 742 742 807 602 807 c 0
 455 807 383 671 383 528 c 0
EndSplineSet
Validated: 1
EndChar

StartChar: sigma
Encoding: 963 963 359
Width: 1060
VWidth: 6
Flags: W
HStem: -6 203<410.251 620.825> 830 202<418.161 627.946>
VStem: 82 252<282.644 736.526> 695 256<277.821 783.611>
LayerCount: 2
Fore
SplineSet
900 814 m 1
 935 736 951 632 951 543 c 0
 951 258 855 -6 519 -6 c 2
 517 -6 l 2
 207 -6 82 184 82 464 c 0
 82 832 220 1029 507 1032 c 0
 509 1032 512 1032 515 1032 c 0
 642 1032 985 1021 1036 1012 c 1
 1028 804 l 1
 998 809 952 812 900 814 c 1
635 247 m 1
 682 299 695 403 695 530 c 0
 695 536 695 540 695 546 c 0
 693 674 676 740 628 828 c 1
 628 828 553 830 530 830 c 0
 379 830 334 690 334 482 c 0
 334 316 397 197 518 197 c 1
 573 198 599 211 635 247 c 1
EndSplineSet
Validated: 1
EndChar

StartChar: tau
Encoding: 964 964 360
Width: 1060
VWidth: 0
Flags: W
HStem: -3 220<653.345 788.575> 825 195<141.32 379 640 996>
VStem: 369 258<232.596 825>
LayerCount: 2
Fore
SplineSet
570 1020 m 1
 692 1020 l 2
 740 1020 789 1020 831 1020 c 2
 978 1020 l 1
 996 1020 l 1
 996 823 l 1
 692 825 l 1
 640 825 l 1
 631 621 631 540 627 440 c 1
 627 400 l 2
 627 238 674 217 715 217 c 0
 772 217 788 243 816 319 c 1
 1014 233 l 1
 994 177 914 -3 717 -3 c 0
 454 -3 369 109 369 397 c 2
 369 440 l 1
 373 544 373 633 379 826 c 1
 359 825 276 824 276 824 c 2
 206 823 189 811 139 779 c 1
 30 933 l 1
 80 977 175 1019 271 1019 c 2
 570 1020 l 1
EndSplineSet
Validated: 1
EndChar

StartChar: upsilon
Encoding: 965 965 361
Width: 1060
VWidth: 6
Flags: W
HStem: -4 209<396.299 596.841> 1012 20G<151.31 340.5 835.395 925>
VStem: 92 258<256.143 999.91> 712 266<354.524 881.208>
AnchorPoint: "above_accent" 498 1108 basechar 0
LayerCount: 2
Fore
SplineSet
92 364 m 0
 92 424 92 487 92 547 c 0
 92 751 91 939 70 1003 c 1
 332 1032 l 1
 349 960 350 778 350 573 c 0
 350 517 350 512 350 455 c 0
 350 335 379 205 477 205 c 0
 535 205 595 228 650 309 c 0
 708 395 712 431 712 669 c 0
 712 761 668 880 642 963 c 1
 894 1049 l 1
 956 953 978 756 978 690 c 0
 978 686 978 682 978 678 c 0
 978 666 978 653 978 641 c 0
 978 450 951 303 778 123 c 0
 715 57 595 -4 432 -4 c 0
 239 -4 92 165 92 364 c 0
EndSplineSet
Validated: 1
EndChar

StartChar: phi
Encoding: 966 966 362
Width: 1060
VWidth: 0
Flags: W
HStem: 835 205<637.639 767.347>
VStem: 36 226<310.836 846.281> 388 240<-396 -3.43256 199 825.448> 790 228<309.666 821.851>
LayerCount: 2
Fore
SplineSet
630 -11 m 1
 632 -215 633 -377 634 -398 c 1
 390 -396 l 1
 388 -375 388 -211 388 -8 c 1
 296 9 217 58 156 133 c 0
 66 243 36 389 36 569 c 0
 36 797 91 979 184 1060 c 1
 372 940 l 1
 291 856 262 765 262 573 c 0
 262 428 310 229 388 199 c 1
 388 640 l 2
 388 955 541 1040 685 1040 c 0
 824 1040 1018 1010 1018 632 c 2
 1018 621 l 2
 1018 457 992 272 944 179 c 0
 880 56 762 9 630 -11 c 1
628 196 m 1
 762 229 788 405 790 624 c 1
 790 643 l 2
 790 812 757 835 687 835 c 2
 686 835 l 2
 648 835 626 823 626 644 c 0
 626 502 627 369 628 196 c 1
EndSplineSet
Validated: 1
EndChar

StartChar: chi
Encoding: 967 967 363
Width: 1060
VWidth: 14
Flags: W
HStem: -398 228<837.55 948.411> 822 219<30 184.583> 1037 20G<738.353 787.592>
LayerCount: 2
Fore
SplineSet
394 372 m 1xa0
 394 372 280 653 206 754 c 0
 163 812 108 822 30 822 c 1
 30 1041 l 1
 55 1041 77 1041 98 1041 c 0xc0
 201 1041 264 1033 344 934 c 0
 448 805 516 576 516 576 c 1
 609 777 748 1057 748 1057 c 1
 942 959 l 1
 942 959 795 650 634 317 c 1
 695 145 830 -170 884 -170 c 0
 896 -170 900 -166 906 -150 c 1
 1050 -250 l 1
 1044 -288 994 -398 892 -398 c 0
 687 -398 566 -38 510 78 c 1
 282 -401 l 1
 66 -287 l 1
 394 372 l 1xa0
EndSplineSet
Validated: 1
EndChar

StartChar: psi
Encoding: 968 968 364
Width: 1060
VWidth: 6
Flags: W
HStem: -4 202<313.627 387 627 678.094> 1012 8G<82.0741 256.5 393 630 892.934 987>
VStem: 48 220<240.923 1001.91> 388 239<-392.108 -4 212 1020> 795 234<358.807 953.188>
LayerCount: 2
Back
SplineSet
618.5 196 m 5
 752.5 229 778.455 405.156 780.5 624 c 5
 780.5 643 l 6
 780.5 812 746.5 835 677 835 c 6
 676 835 l 6
 638.5 835 616.5 823 616.5 644 c 4
 616.5 502 617.5 369 618.5 196 c 5
619.5 -11 m 5
 621.5 -215 623.5 -377 624.5 -398 c 5
 380.5 -396 l 5
 378.5 -375 378.5 -211 378.5 -8 c 5
 286.5 9 207.5 58 146.5 133 c 4
 56.5 243 26.5 389 26.5 569 c 4
 26.5 797 80.5 978.8 173.5 1059.8 c 5
 362.5 939.8 l 5
 281.5 855.8 252.5 765 252.5 573 c 4
 252.5 427.789 300.5 229 378.5 199 c 5
 378.5 640 l 6
 378.5 955 531 1040 675 1040 c 4
 814 1040 1008.5 1010 1008.5 632 c 6
 1008.5 621 l 6
 1008.5 457 982.5 272 934.5 179 c 4
 870.5 56 751.5 9 619.5 -11 c 5
EndSplineSet
Fore
SplineSet
48 366 m 0
 48 426 48 489 48 549 c 0
 48 753 45 941 24 1005 c 1
 248 1032 l 1
 265 960 268 778 268 573 c 0
 268 517 268 503 268 446 c 0
 268 284 312 198 388 198 c 1
 389 482 393 693 393 927 c 2
 393 1020 l 1
 630 1020 l 1
 630 875 l 2
 630 639 628 475 627 212 c 1
 762 251 795 480 795 738 c 0
 795 830 769 915 737 985 c 1
 969 1046 l 1
 1005 962 1029 815 1029 749 c 0
 1029 745 1029 741 1029 737 c 0
 1029 725 1029 712 1029 700 c 0
 1029 509 1024 277 851 97 c 0
 805 49 752 29 627 8 c 1
 627 -124 l 2
 627 -239 626 -295 621 -396 c 1
 383 -395 l 1
 387 -333 388 -290 388 -235 c 0
 388 -188 387 -132 387 -46 c 0
 387 -32 387 -18 387 -4 c 1
 385 -4 384 -4 382 -4 c 0
 162 -4 48 167 48 366 c 0
EndSplineSet
Validated: 1
EndChar

StartChar: omega
Encoding: 969 969 365
Width: 1060
VWidth: 6
Flags: W
HStem: -12 212<303.429 392.304 636.706 745.947> 1019 30G<102 201.4 862.565 967>
VStem: 33 232<228.931 801.907> 401 228<200.121 684> 783 240<234.879 817.221>
AnchorPoint: "above_accent" 459 1108 basechar 0
LayerCount: 2
Fore
SplineSet
399 684 m 1
 631 703 l 1
 629 618 630 524 629 431 c 1
 630 423 630 414 630 405 c 0
 632 224 637 200 666 200 c 0
 743 200 783 270 783 420 c 0
 783 633 766 815 681 947 c 1
 913 1039 l 1
 1021 858 1023 582 1023 441 c 0
 1023 218 956 -12 711 -12 c 0
 597 -12 547 20 522 104 c 1
 493 32 461 -10 327 -10 c 0
 101 -10 33 220 33 444 c 0
 33 612 47 866 157 1049 c 1
 379 949 l 1
 298 822 265 675 265 468 c 0
 265 299 303 196 357 196 c 0
 399 196 401 287 401 395 c 0
 401 404 401 414 401 424 c 0
 400 530 401 584 399 684 c 1
EndSplineSet
Validated: 1
EndChar

StartChar: Gamma
Encoding: 915 915 370
Width: 1060
VWidth: 0
Flags: W
HStem: 0 21G<149 403> 1118 210<403 942.961>
VStem: 149 254<0 1118>
LayerCount: 2
Fore
SplineSet
149 1328 m 1
 832 1328 l 2
 907 1328 969 1310 1016 1294 c 1
 945 1097 l 1
 901 1112 889 1115 830 1118 c 1
 403 1118 l 1
 403 0 l 1
 149 0 l 1
 149 1328 l 1
EndSplineSet
Validated: 1
EndChar

StartChar: Theta
Encoding: 920 920 374
Width: 1060
VWidth: 0
Flags: W
HStem: -16 203<399.925 628.737> 615 203<364 684> 1147 203<428.213 636.65>
VStem: 36 270<297.704 961.279> 364 320<615 818> 742 269<341.531 985.544>
LayerCount: 2
Fore
SplineSet
539 1350 m 1
 705 1350 1006 1277 1011 647 c 1
 1011 636 l 2
 1011 469 979 312 930 217 c 0
 852 70 697 -16 526 -16 c 0
 400 -16 246 25 162 127 c 0
 69 239 36 395 36 579 c 0
 36 931 98 1090 170 1187 c 0
 239 1279 377 1347 539 1350 c 1
362 277 m 0
 410 203 450 187 526 187 c 0
 608 187 659 249 691 326 c 1
 719 385 740 541 742 640 c 1
 742 657 l 2
 742 764 732 913 695 1009 c 0
 654 1115 600 1147 538 1147 c 0
 470 1147 431 1122 390 1051 c 0
 341 968 306 835 306 592 c 0
 306 495 319 342 362 277 c 0
364 818 m 1
 684 818 l 1
 684 615 l 1
 364 615 l 1
 364 818 l 1
EndSplineSet
Validated: 1
EndChar

StartChar: Delta
Encoding: 916 916 384
Width: 1060
VWidth: 0
Flags: W
HStem: 0 199<309 698> 1305 20G<403.489 638.908>
LayerCount: 2
Fore
SplineSet
698 199 m 1
 668 351 517 847 516 998 c 1
 510 832 349 343 309 199 c 1
 698 199 l 1
149 0 m 1
 -9 38 l 1
 410 1325 l 1
 633 1325 l 1
 1012 42 l 1
 875 0 l 1
 149 0 l 1
EndSplineSet
Validated: 1
EndChar

StartChar: Lambda
Encoding: 923 923 385
Width: 1060
VWidth: 0
Flags: W
HStem: -27 21G<159.923 240.614 748.238 835.222> 1305 20G<403.489 638.908>
LayerCount: 2
Fore
SplineSet
379 486 m 1
 235 -27 l 1
 -9 38 l 1
 410 1325 l 1
 633 1325 l 1
 1012 42 l 1
 753 -21 l 1
 628 504 l 1
 602 647 517 844 516 998 c 1
 510 830 417 625 379 486 c 1
EndSplineSet
Validated: 1
EndChar

StartChar: Xi
Encoding: 926 926 386
Width: 1060
VWidth: 0
Flags: W
HStem: -3 204<93 889.951> 646 203<312 689> 1118 205<93 880>
VStem: 312 377<646 849>
LayerCount: 2
Back
SplineSet
102 1319 m 1
 158 1323 228 1323 306 1323 c 0
 337 1323 370 1323 404 1323 c 2
 514 1323 l 2
 663 1323 799 1320 873 1320 c 2
 889 1320 l 1
 889 1118 l 1
 360 1118 l 1
 360 849 l 1
 698 849 l 1
 698 646 l 1
 360 646 l 1
 360 615 l 2
 360 408 358 280 358 201 c 1
 774 203 l 2
 830 203 899 230 899 230 c 1
 971 31 l 1
 923 18 882 -3 784 -3 c 2
 102 -3 l 1
 102 1319 l 1
EndSplineSet
Fore
SplineSet
312 849 m 1
 689 849 l 1
 689 646 l 1
 312 646 l 1
 312 849 l 1
93 1319 m 1
 149 1323 219 1323 297 1323 c 0
 328 1323 361 1323 395 1323 c 2
 506 1323 l 2
 655 1323 791 1320 865 1320 c 2
 880 1320 l 1
 880 1118 l 1
 90 1118 l 1
 93 1319 l 1
93 201 m 1
 766 203 l 2
 822 203 890 230 890 230 c 1
 963 31 l 1
 915 18 873 -3 775 -3 c 2
 93 -3 l 1
 93 201 l 1
EndSplineSet
Validated: 1
EndChar

StartChar: Pi
Encoding: 928 928 387
Width: 1060
VWidth: 0
Flags: W
HStem: 0 21G<130 385.036 668.5 928> 1100 196<387 650 904 1007>
VStem: 130 255<0 1087> 650 254<14.4902 1100>
LayerCount: 2
Fore
SplineSet
385 0 m 1
 130 0 l 1
 130 1087 l 1
 101 1083 74 1078 44 1072 c 1
 1 1266 l 1
 93 1287 211 1296 331 1296 c 2
 1007 1296 l 1
 1007 1100 l 1
 904 1100 l 1
 904 378 l 2
 904 251 914 126 928 9 c 1
 678 -4 l 1
 659 117 650 255 650 384 c 2
 650 1100 l 1
 507 1100 l 2
 463 1100 425 1100 387 1099 c 1
 385 0 l 1
EndSplineSet
Validated: 1
EndChar

StartChar: Sigma
Encoding: 931 931 388
Width: 1060
VWidth: 0
Flags: W
HStem: 0 201<428 935.951> 1118 205<421 926>
LayerCount: 2
Fore
SplineSet
534 658 m 1
 59 1134 l 1
 176 1322 l 1
 199 1324 217 1324 236 1324 c 0
 265 1324 296 1323 343 1323 c 0
 374 1323 407 1323 441 1323 c 2
 552 1323 l 2
 700 1323 836 1320 911 1320 c 2
 926 1320 l 1
 926 1118 l 1
 421 1118 l 1
 811 726 l 1
 804 566 l 1
 428 201 l 1
 555 202 684 202 812 203 c 0
 868 203 936 230 936 230 c 1
 1009 31 l 1
 961 18 919 -3 821 -3 c 2
 176 0 l 1
 59 183 l 1
 534 658 l 1
EndSplineSet
Validated: 1
EndChar

StartChar: Phi
Encoding: 934 934 389
Width: 1060
VWidth: 0
Flags: W
HStem: 0 21G<360 647.5>
VStem: 12 229<427.825 836.079> 364 287<1 151.127 352 936 1165.82 1317> 802 230<449.5 847.74>
LayerCount: 2
Fore
SplineSet
364 352 m 1
 364 936 l 1
 359 932 354 928 349 923 c 0
 286 865 241 772 241 601 c 0
 241 533 267 432 318 385 c 0
 331 372 347 361 364 352 c 1
651 344 m 1
 687 362 716 387 737 415 c 1
 773 456 801 566 802 635 c 1
 802 647 l 2
 802 722 785 822 737 889 c 0
 711 926 681 951 649 967 c 1
 650 796 651 647 651 392 c 2
 651 344 l 1
365 146 m 1
 284 163 208 193 157 240 c 0
 63 326 12 446 12 588 c 0
 12 859 91 982 165 1057 c 0
 208 1101 278 1138 364 1160 c 1
 364 1220 364 1257 364 1317 c 1
 648 1317 l 1
 648 1174 l 1
 818 1146 1028 1035 1032 641 c 1
 1032 632 l 2
 1032 503 986 382 936 309 c 0
 877 224 773 165 651 141 c 1
 651 94 650 52 645 0 c 1
 360 1 l 1
 364 72 365 96 365 146 c 1
EndSplineSet
Validated: 1
EndChar

StartChar: Psi
Encoding: 936 936 390
Width: 1060
VWidth: 6
Flags: W
HStem: 0 21G<425 675.5> 440 216<335.119 430 681 763.173>
VStem: 46 247<691.859 1408.67> 438 235<0 440 656 1427> 809 257<701.259 1415.02>
LayerCount: 2
Fore
SplineSet
46 839 m 0
 46 904 46 965 46 1021 c 0
 46 1210 44 1342 22 1412 c 1
 273 1441 l 1
 291 1363 293 1241 293 1050 c 0
 293 998 293 985 293 923 c 0
 293 759 298 656 433 656 c 1
 435 896 438 1111 438 1325 c 2
 438 1427 l 1
 673 1428 l 1
 673 1270 l 2
 673 1073 672 887 670 656 c 1
 805 656 809 772 809 1121 c 1
 808 1221 804 1330 795 1415 c 1
 1052 1433 l 1
 1062 1344 1066 1234 1066 1162 c 0
 1066 1148 1066 1136 1066 1125 c 0
 1066 742 1060 443 681 443 c 1
 679 290 677 138 674 0 c 1
 425 0 l 1
 429 68 430 239 430 299 c 0
 430 344 430 392 430 440 c 1
 157 440 46 638 46 839 c 0
EndSplineSet
Validated: 1
EndChar

StartChar: Omega
Encoding: 937 937 391
Width: 1060
VWidth: 0
Flags: W
HStem: 1 216<29 202 826 1031.95> 1119 217<414.828 656.189>
VStem: 10 267<440.392 959.518> 785 262<475.882 957.896>
LayerCount: 2
Fore
SplineSet
405 1 m 1
 29 1 l 1
 27 217 l 1
 202 217 l 1
 107 314 10 431 10 742 c 0
 10 1135 245 1336 539 1336 c 0
 787 1336 1047 1196 1047 728 c 2
 1047 716 l 2
 1047 445 920 325 826 217 c 1
 909 218 l 2
 968 218 1032 246 1032 246 c 1
 1078 33 l 1
 1029 19 993 0 917 0 c 0
 915 0 913 0 911 0 c 2
 629 0 l 1
 582 211 l 1
 671 300 785 428 785 718 c 2
 785 737 l 2
 785 922 699 1119 542 1119 c 0
 397 1119 277 988 277 740 c 0
 277 479 317 381 462 215 c 1
 405 1 l 1
EndSplineSet
Validated: 1
EndChar

StartChar: tonos
Encoding: 900 900 392
Width: 1060
VWidth: -43
Flags: W
HStem: 1222 454
VStem: 484 236<1526.27 1625.28>
AnchorPoint: "above_accent" 455 1198 mark 0
LayerCount: 2
Fore
SplineSet
326 1334 m 1
 421 1451 445 1523 484 1676 c 1
 720 1622 l 1
 687 1468 604 1338 509 1222 c 1
 326 1334 l 1
EndSplineSet
Validated: 1
EndChar

StartChar: uni03D0
Encoding: 976 976 413
Width: 1060
VWidth: 0
Flags: W
HStem: 0 202<456.173 705.286> 632 206<333.249 528.984> 1120 208<370.766 538.352>
VStem: 79 252<355.459 626.446 838 1084.3> 566 244<877.686 1088.98> 738 248<233.049 529.109>
LayerCount: 2
Back
SplineSet
588 199 m 4xf8
 710 199 728 291 728 387 c 4xf4
 728 570 580 634 378 634 c 5
 378 841 l 5
 517 841 554 883 554 1003 c 4
 554 1058 509 1122 414 1122 c 5
 354 1122 318 1083 318 993 c 4
 318 893 321 640 322 398 c 5
 419 223 524.334 199 588 199 c 4xf8
309 112 m 5
 309 83 309 59 309 39 c 4
 309 -85 306 -203 298 -300 c 5
 62 -283 l 5
 72 -183 75 -74 75 37 c 4
 75 224 66 829 66 1003 c 4
 66 1159 177 1328 376 1328 c 4
 579 1328 799 1274 799 1010 c 4xf8
 799 832 708 802 673 779 c 5
 841 749.5 973 636.5 973 382.5 c 4
 973 50 829 0 585 0 c 4
 583 0 580 0 578 0 c 4
 449 0 399 39 309 112 c 5
EndSplineSet
Fore
SplineSet
79 736 m 0xf4
 79 1156 200 1328 424 1328 c 0
 607 1328 810 1258 810 1011 c 0xf8
 810 909 776 816 680 779 c 1
 852 752 986 630 986 381 c 0
 986 106 885 0 553 0 c 0
 135 0 79 332 79 736 c 0xf4
328 838 m 1
 487 838 566 854 566 1005 c 0
 566 1084 498 1120 424 1120 c 0
 366 1120 328 1008 328 838 c 1
331 619 m 1
 331 315 450 202 568 202 c 0
 716 202 738 261 738 395 c 0xf4
 738 557 595 632 459 632 c 0
 426 632 379 629 331 619 c 1
EndSplineSet
Validated: 1
EndChar

StartChar: theta1
Encoding: 977 977 414
Width: 1060
VWidth: 0
Flags: W
HStem: -16 203<398.535 626.815> 564 228<340.88 739.032> 1140 210<399.72 673.79>
VStem: 34 257<325.901 510.789> 61 241<825.254 1049.87> 741 261<341.03 562 786 985.544>
LayerCount: 2
Fore
SplineSet
746 786 m 1xec
 729 993 737 1140 537 1140 c 0
 414 1140 302 1049 302 927 c 0
 302 813 386 792 498 792 c 0
 678 792 695 791 746 786 c 1xec
61 922 m 0
 61 1165 243 1350 532 1350 c 0
 693 1350 997 1277 1002 647 c 1
 1002 636 l 2
 1002 469 958 312 910 217 c 0
 835 70 685 -16 520 -16 c 0
 398 -16 249 25 168 127 c 0
 98 214 50 375 34 508 c 1
 291 558 l 1xf4
 299 474 322 334 353 284 c 0
 390 224 440 187 520 187 c 0
 605 187 659 249 692 326 c 1
 714 371 733 472 741 562 c 1
 715 563 686 564 656 564 c 0
 340 564 61 598 61 922 c 0
EndSplineSet
Validated: 1
EndChar

StartChar: Upsilon1
Encoding: 978 978 415
Width: 1060
VWidth: 4
Flags: W
HStem: 0 21G<388 649> 1038 21G<852 972.375> 1356 20G<760 932> 1385 20G<90.321 195>
VStem: 388 261<0 821.734> 853 191<1070 1141.14>
AnchorPoint: "above_accent" 510 1380 basechar 0
LayerCount: 2
Fore
SplineSet
512 1020 m 1
 575 1165 677 1376 843 1376 c 0
 1021 1376 1044 1258 1044 1076 c 0
 1044 1074 1044 1072 1044 1070 c 1
 853 1038 l 1
 851 1080 848 1135 847 1148 c 1
 829 1135 649 907 649 646 c 2
 649 0 l 1
 388 0 l 1
 388 637 l 2
 388 818 226 1113 27 1162 c 1
 96 1405 l 1
 294 1363 458 1162 512 1020 c 1
EndSplineSet
Validated: 1
EndChar

StartChar: phi1
Encoding: 981 981 418
Width: 1060
VWidth: 6
Flags: W
HStem: 1356 20G<370 641>
VStem: 12 236<312.625 704.687> 370 271<-403 11.6728 228 794 1015.68 1376> 769 249<298.471 735.022>
LayerCount: 2
Fore
SplineSet
373 794 m 1
 280 740 248 627 248 482 c 0
 248 366 292 274 378 228 c 1
 377 405 375 606 373 794 c 1
379 5 m 1
 120 49 12 223 12 464 c 0
 12 779 129 968 371 1018 c 1
 370 1120 370 1211 370 1283 c 2
 370 1376 l 1
 641 1376 l 1
 641 1231 l 2
 641 1171 641 1100 642 1023 c 1
 792 1001 885 936 949 831 c 0
 996 752 1018 639 1018 543 c 0
 1018 294 933 61 653 6 c 1
 653 -42 l 2
 653 -157 652 -303 647 -404 c 1
 375 -403 l 1
 379 -341 380 -208 380 -153 c 0
 380 -112 379 -64 379 5 c 1
683 247 m 1
 751 299 769 403 769 530 c 0
 769 536 769 540 769 546 c 0
 767 664 738 765 645 808 c 1
 648 615 651 406 652 228 c 1
 662 234 672 240 683 247 c 1
EndSplineSet
Validated: 1
EndChar

StartChar: omega1
Encoding: 982 982 419
Width: 1060
VWidth: 6
Flags: W
HStem: -12 212<303.429 392.304 636.706 745.947> 821 201<37 108 336.799 713.041 945 1027>
VStem: 33 232<228.931 716.915> 401 228<200.121 684> 783 240<234.879 707.312>
LayerCount: 2
Fore
SplineSet
35 1018 m 1
 91 1022 174 1022 252 1022 c 0
 283 1022 316 1022 350 1022 c 2
 460 1022 l 2
 609 1022 937 1018 1011 1018 c 2
 1027 1018 l 1
 1027 821 l 1
 945 821 l 1
 998 683 1023 541 1023 441 c 0
 1023 218 956 -12 711 -12 c 0
 597 -12 547 20 522 104 c 1
 493 32 461 -10 327 -10 c 0
 101 -10 33 220 33 444 c 0
 33 560 57 691 108 821 c 1
 37 821 l 1
 35 1018 l 1
399 684 m 1
 631 703 l 1
 629 618 630 524 629 431 c 1
 630 423 630 414 630 405 c 0
 632 224 637 200 666 200 c 0
 743 200 783 270 783 420 c 0
 783 577 747 709 694 821 c 1
 358 821 l 1
 306 725 265 616 265 468 c 0
 265 299 303 196 357 196 c 0
 399 196 401 287 401 395 c 0
 401 404 401 414 401 424 c 0
 400 530 401 584 399 684 c 1
EndSplineSet
Validated: 1
EndChar

StartChar: uni03D7
Encoding: 983 983 420
Width: 1060
VWidth: 0
Flags: W
HStem: -365 187<642 823.471> 0 199<695.125 853.089> 824 196<212.081 408>
VStem: 315 241<612.446 820.851> 504 240<199.05 412.82> 856 175<-149.303 36>
LayerCount: 2
Fore
SplineSet
21 838 m 1xf4
 21 838 98 1020 324 1020 c 0
 492 1020 556 924 556 778 c 0xf4
 556 712 540 655 518 609 c 1
 518 609 581 675 644 726 c 2
 661 740 l 1
 695 880 760 1021 896 1021 c 0
 1004 1021 1030 945 1030 879 c 0
 1030 769 883 668 781 588 c 1
 752 511 744 436 744 346 c 2
 744 336 l 2
 744 268 745 199 783 199 c 0
 815 199 854 237 886 287 c 1
 1030 191 l 1
 1030 169 l 2
 1030 124 1031 81 1031 41 c 0
 1031 -216 1006 -365 640 -365 c 1
 642 -178 l 1
 845 -178 856 -156 856 26 c 0
 856 29 856 33 856 36 c 1
 829 16 794 0 737 0 c 0
 641 0 504 13 504 193 c 0xec
 504 291 526 369 548 415 c 1
 501 381 493 377 430 326 c 1
 416 313 l 1
 370 171 270 1 133 1 c 2
 132 1 l 2
 68 1 22 48 22 138 c 0
 22 294 130 352 232 432 c 1
 261 509 315 636 315 726 c 0
 315 819 296 824 269 824 c 0
 242 824 200 769 159 704 c 1
 21 838 l 1xf4
EndSplineSet
Validated: 1
EndChar

StartChar: uni03CF
Encoding: 975 975 421
Width: 1060
VWidth: 0
Flags: W
HStem: -364 177<625 774.25> -5 21G<75 333> 1315 20G<75 333 778.5 819.147>
VStem: 75 258<-5 519.312 871 1335> 802 230<-158.381 54.0889>
LayerCount: 2
Fore
SplineSet
75 -5 m 1
 75 1335 l 1
 333 1335 l 1
 333 871 l 1
 436 1016 760 1339 797 1376 c 1
 993 1199 l 1
 811 1064 639 856 579 782 c 1
 699 663 981 232 1032 94 c 1
 1028 -131 997 -364 625 -364 c 1
 625 -187 l 1
 787 -187 802 -125 802 -32 c 1
 756 79 549 445 419 574 c 1
 419 574 363 512 333 440 c 1
 333 -5 l 1
 247 -5 161 -5 75 -5 c 1
EndSplineSet
Validated: 1
EndChar

StartChar: uni03D8
Encoding: 984 984 422
Width: 1060
VWidth: 0
Flags: W
HStem: -316 503<377.728 609.969> 1147 203<399.211 609.998>
VStem: 11 260<325.371 950.917> 377 246<-316 8.10123> 727 257<348.639 966.018>
LayerCount: 2
Fore
SplineSet
334 284 m 0
 371 224 422 187 502 187 c 0
 588 187 640 249 673 326 c 1
 703 385 726 541 727 640 c 1
 727 657 l 2
 727 764 712 906 673 1002 c 0
 630 1108 578 1147 513 1147 c 0
 443 1147 402 1122 359 1051 c 0
 309 968 271 835 271 592 c 0
 271 495 293 351 334 284 c 0
513 1350 m 1
 674 1350 979 1277 984 647 c 1
 984 636 l 2
 984 469 939 312 891 217 c 1
 835 108 737 31 623 0 c 1
 623 -316 l 1
 377 -316 l 1
 377 -3 l 1
 289 16 204 58 150 127 c 0
 60 239 11 395 11 579 c 0
 11 931 87 1090 157 1187 c 0
 223 1279 357 1347 513 1350 c 1
EndSplineSet
Validated: 1
EndChar

StartChar: uni03D9
Encoding: 985 985 423
Width: 1060
VWidth: 6
Flags: W
HStem: -315 512<410.251 625.107> 830 202<413 633.518>
VStem: 82 252<282.424 737.435> 380 246<-315 14.0402> 695 256<275.162 760.797>
LayerCount: 2
Fore
SplineSet
380 9 m 1
 170 59 82 230 82 464 c 0
 82 835 223 1032 515 1032 c 0
 712 1032 822 963 892 831 c 0
 933 752 951 639 951 543 c 0
 951 291 876 55 626 4 c 1
 626 -315 l 1
 380 -315 l 1
 380 9 l 1
635 247 m 1
 682 299 695 403 695 530 c 0
 695 536 695 540 695 546 c 0
 693 703 658 830 530 830 c 0
 379 830 334 690 334 482 c 0
 334 316 397 197 518 197 c 1
 573 198 599 211 635 247 c 1
EndSplineSet
Validated: 1
EndChar

StartChar: uni03DB
Encoding: 987 987 424
Width: 1060
VWidth: 4
Flags: W
HStem: -380 198<558 693.428> 807 214<436.534 1001>
VStem: 81 256<313.223 702.322> 718 232<-151.58 -49.8056>
LayerCount: 2
Fore
SplineSet
446 -3 m 0
 406 4 312 29 251 73 c 0
 117 169 81 328 81 527 c 0
 81 867 259 1018 574 1018 c 0
 718 1018 807 1021 902 1021 c 0
 934 1021 966 1021 1001 1020 c 1
 1003 802 l 1
 978 806 860 807 742 807 c 0
 674 807 607 807 556 807 c 0
 409 807 337 671 337 528 c 0
 337 254 470 212 529 197 c 0
 789 130 950 76 950 -95 c 0
 950 -224 854 -378 558 -380 c 1
 534 -182 l 1
 648 -168 718 -152 718 -99 c 0
 718 -27 534 -18 446 -3 c 0
EndSplineSet
Validated: 1
EndChar

StartChar: uni03DA
Encoding: 986 986 425
Width: 1060
VWidth: 4
Flags: W
HStem: -380 198<527 662.428> 1110 213<561.116 976> 1128 204<448.754 972.715>
VStem: 48 262<334.393 936.313> 688 231<-151.58 -50.5061>
LayerCount: 2
Fore
SplineSet
484 187 m 0xb8
 727 137 919 106 919 -95 c 0
 919 -224 823 -378 527 -380 c 1
 503 -182 l 1
 617 -168 688 -152 688 -99 c 0
 688 -27 499 -20 415 -3 c 1
 155 58 48 320 48 636 c 0
 48 895 128 1054 180 1132 c 0
 252 1240 389 1332 564 1332 c 0xb8
 690 1332 772 1323 922 1323 c 0
 939 1323 957 1323 976 1323 c 1
 979 1110 l 1xd8
 846 1124 643 1128 557 1128 c 0
 442 1128 310 992 310 628 c 0
 310 372 387 207 484 187 c 0xb8
EndSplineSet
Validated: 1
EndChar

StartChar: uni03DD
Encoding: 989 989 427
Width: 1060
VWidth: -2
Flags: W
HStem: -347 242<60 246.852> 807 205<574 889.016> 1217 201<598.772 932.759>
VStem: 316 256<-34.3906 807 1012 1188.92>
LayerCount: 2
Fore
SplineSet
574 150 m 2
 574 -103 520 -347 144 -347 c 0
 114 -347 82 -346 48 -342 c 1
 60 -99 l 1
 88 -103 114 -105 138 -105 c 0
 262 -105 316 -8 316 150 c 2
 316 1064 l 2
 316 1194 382 1418 698 1418 c 0
 894 1418 920 1403 1009 1357 c 1
 918 1163 l 1
 845 1208 806 1217 716 1217 c 0
 584 1217 572 1143 572 1083 c 0
 572 1056 574 1012 574 1012 c 1
 642 1012 685 1012 758 1012 c 0
 863 1012 904 1000 934 991 c 1
 890 794 l 1
 869 801 848 807 792 807 c 2
 572 807 l 1
 574 150 l 2
EndSplineSet
Validated: 1
EndChar

StartChar: uni0190
Encoding: 400 400 428
Width: 1060
VWidth: 0
Flags: W
HStem: 0 187<355.283 737.246> 630 205<413.713 628> 1022 21G<834 882.982> 1108 189<393.019 786.227>
VStem: 36 255<249.414 553.438> 90 253<896.139 1062.08>
LayerCount: 2
Fore
SplineSet
990 158 m 1xf8
 919 105 778 0 520 0 c 0
 338 0 244 34 163 106 c 0
 71 189 36 289 36 390 c 0xf8
 36 568 120 694 272 730 c 1
 160 766 90 877 90 985 c 0
 90 1180 265 1297 555 1297 c 2
 568 1297 l 2
 801 1297 907 1234 981 1193 c 1
 870 1022 l 1
 798 1064 702 1108 557 1108 c 0
 437 1108 343 1060 343 985 c 0xf4
 343 873 494 835 605 835 c 2
 610 835 l 1
 628 835 l 1
 628 629 l 1
 602 629 576 630 550 630 c 0
 358 630 291 549 291 388 c 0
 291 275 340 187 521 187 c 0
 712 187 818 271 869 317 c 1
 990 158 l 1xf8
EndSplineSet
Validated: 1
EndChar

StartChar: uni0228
Encoding: 552 552 484
Width: 1060
VWidth: 0
Flags: W
HStem: -443 172<397.653 610.295> -3 222<367 432 654 934.948> 704 221<369 724> 1219 223<369 924>
VStem: 98 271<219 704 925 1219> 613 224<-263.703 -169.173>
LayerCount: 2
Fore
SplineSet
98 1438 m 1
 157 1442 230 1442 312 1442 c 0
 345 1442 379 1442 415 1442 c 2
 531 1442 l 2
 687 1442 830 1439 908 1439 c 2
 924 1439 l 1
 924 1219 l 1
 369 1219 l 1
 369 925 l 1
 724 925 l 1
 724 704 l 1
 369 704 l 1
 369 670 l 2
 369 444 367 305 367 219 c 1
 804 221 l 2
 863 221 935 251 935 251 c 1
 1011 34 l 1
 961 20 917 -3 814 -3 c 2
 654 -3 l 1
 653 -24 653 -62 653 -64 c 1
 750 -69 837 -126 837 -240 c 0
 837 -370 723 -443 565 -443 c 0
 499 -443 407 -425 351 -389 c 1
 411 -241 l 1
 444 -259 488 -271 539 -271 c 0
 575 -271 610 -259 613 -221 c 1
 613 -219 l 2
 613 -190 589 -164 541 -164 c 0
 493 -164 460 -166 432 -176 c 1
 432 -3 l 1
 98 -3 l 1
 98 1438 l 1
EndSplineSet
Validated: 1
EndChar

StartChar: uni0229
Encoding: 553 553 485
Width: 1060
VWidth: 0
Flags: W
HStem: -450 172<373.653 586.295> -171 367<418.014 585.703> 434 196<414.825 686> 818 203<417.494 631.802>
VStem: 88 258<274.463 403.211 606 738.031> 589 224<-270.703 -176.173> 686 261<630 763.58>
LayerCount: 2
Fore
SplineSet
346 606 m 1xfa
 459 626 553 630 686 630 c 1
 681 761 609 818 521 818 c 0
 419 818 352 722 346 606 c 1xfa
519 1021 m 0
 838 1021 947 813 947 477 c 0xfa
 947 457 946 434 946 434 c 1
 661 430 448 416 346 396 c 1
 362 285 426 196 518 196 c 0
 624 196 659 205 720 294 c 1
 920 166 l 1
 865 80 787 17 631 -3 c 1
 630 -22 629 -68 629 -71 c 1
 726 -76 813 -133 813 -247 c 0
 813 -377 699 -450 541 -450 c 0
 475 -450 383 -432 327 -396 c 1
 387 -248 l 1
 420 -266 464 -278 515 -278 c 0
 551 -278 586 -266 589 -228 c 1
 589 -226 l 2xfc
 589 -197 565 -171 517 -171 c 0
 469 -171 436 -173 408 -183 c 1
 408 0 l 1
 192 46 88 243 88 516 c 0
 88 802 236 1021 519 1021 c 0
EndSplineSet
Validated: 1
EndChar

StartChar: uni0311
Encoding: 785 785 494
Width: 1060
VWidth: -12
Flags: W
HStem: 1358 21G<194 353.5 697 846> 1508 183<398.837 650.214>
AnchorPoint: "above_accent" 510 1290 mark 0
LayerCount: 2
Fore
SplineSet
520 1508 m 0
 445 1508 367 1475 340 1358 c 1
 121 1388 l 1
 169 1613 301 1691 526 1691 c 0
 766 1691 895 1574 919 1397 c 1
 700 1367 l 1
 694 1445 628 1508 520 1508 c 0
EndSplineSet
Validated: 1
EndChar

StartChar: uni0313
Encoding: 787 787 496
Width: 1060
VWidth: 26
Flags: W
HStem: 1099 498
VStem: 438 220<1376 1597> 495 163<1250.63 1376>
AnchorPoint: "above_accent" 533 1103 mark 0
LayerCount: 2
Fore
SplineSet
438 1597 m 1xc0
 658 1597 l 1
 658 1382 l 2xc0
 658 1231 591 1155 462 1099 c 1
 409 1226 l 1
 469 1254 495 1277 495 1376 c 1xa0
 438 1376 l 1
 438 1597 l 1xc0
EndSplineSet
Validated: 1
EndChar

StartChar: uni0314
Encoding: 788 788 497
Width: 1060
VWidth: 26
Flags: W
HStem: 1099 498
VStem: 421 220<1376 1597> 421 163<1250.63 1376>
AnchorPoint: "above_accent" 533 1103 mark 0
LayerCount: 2
Fore
SplineSet
641 1597 m 1xc0
 641 1376 l 1xc0
 584 1376 l 1xa0
 584 1277 610 1254 670 1226 c 1
 617 1099 l 1
 488 1155 421 1231 421 1382 c 2
 421 1597 l 1
 641 1597 l 1xc0
EndSplineSet
Validated: 1
EndChar

StartChar: uni0312
Encoding: 786 786 508
Width: 1060
VWidth: -43
Flags: W
HStem: 1236 419
VStem: 396 190<1503.25 1624.49>
AnchorPoint: "above_accent" 399 1156 mark 0
LayerCount: 2
Fore
SplineSet
287 1283 m 1
 325 1395 351 1504 396 1655 c 1
 586 1622 l 1
 568 1480 541 1339 520 1236 c 1
 287 1283 l 1
EndSplineSet
Validated: 1
EndChar

StartChar: uni0328
Encoding: 808 808 511
Width: 1060
VWidth: 32
Flags: W
HStem: -460 196<454.57 710.501>
VStem: 199 250<-252.213 -139.094>
LayerCount: 2
Fore
SplineSet
821 107 m 1
 642 -118 449 -105 449 -207 c 0
 449 -250 505 -264 569 -264 c 0
 627 -264 667 -235 697 -213 c 1
 821 -354 l 1
 777 -402 659 -460 559 -460 c 0
 377 -460 199 -404 199 -216 c 0
 199 -18 441 -40 585 108 c 1
 821 107 l 1
EndSplineSet
Validated: 1
EndChar

StartChar: ogonek
Encoding: 731 731 512
Width: 1060
VWidth: 32
Flags: W
HStem: -460 196<454.57 710.501>
VStem: 199 250<-252.213 -139.094>
LayerCount: 2
Fore
SplineSet
821 107 m 1
 642 -118 449 -105 449 -207 c 0
 449 -250 505 -264 569 -264 c 0
 627 -264 667 -235 697 -213 c 1
 821 -354 l 1
 777 -402 659 -460 559 -460 c 0
 377 -460 199 -404 199 -216 c 0
 199 -18 441 -40 585 108 c 1
 821 107 l 1
EndSplineSet
Validated: 1
EndChar

StartChar: uni01EA
Encoding: 490 490 515
Width: 1060
VWidth: 0
Flags: W
HStem: -506 196<477.57 733.501> 1147 203<415.193 616.501>
VStem: 36 261<295.851 964.02> 222 250<-298.213 -181.439> 718 261<341.03 985.544>
LayerCount: 2
Fore
SplineSet
522 1350 m 1xe8
 683 1350 974 1277 979 647 c 1
 979 636 l 2
 979 469 948 312 900 217 c 1
 768 -61 472 -151 472 -253 c 0
 472 -296 528 -310 592 -310 c 0
 650 -310 690 -281 720 -259 c 1
 844 -400 l 1
 800 -448 682 -506 582 -506 c 0
 400 -506 222 -450 222 -262 c 0xd8
 222 -166 342 -95 459 -14 c 1
 349 -4 228 39 158 127 c 0
 68 239 36 395 36 579 c 0
 36 931 96 1090 166 1187 c 0
 232 1279 366 1347 522 1350 c 1xe8
351 277 m 0
 398 203 436 187 510 187 c 0
 589 187 638 249 669 326 c 1
 696 385 717 541 718 640 c 1
 718 657 l 2
 718 764 709 913 673 1009 c 0
 633 1115 581 1147 521 1147 c 0
 456 1147 418 1122 378 1051 c 0
 331 968 297 835 297 592 c 0xe8
 297 495 310 342 351 277 c 0
EndSplineSet
Validated: 1
EndChar

StartChar: uni01EB
Encoding: 491 491 516
Width: 1060
VWidth: 0
Flags: W
HStem: -504 196<433.57 689.501> 830 202<403 623.518>
VStem: 72 252<281.319 737.435> 178 250<-296.213 -173.801> 685 256<271.387 760.797>
LayerCount: 2
Fore
SplineSet
815 114 m 1xe8
 616 -108 428 -149 428 -251 c 0
 428 -294 484 -308 548 -308 c 0
 606 -308 646 -279 676 -257 c 1
 800 -398 l 1
 756 -446 638 -504 538 -504 c 0
 356 -504 178 -448 178 -260 c 0xd8
 178 -131 284 -92 416 0 c 1
 172 34 72 213 72 464 c 0
 72 835 213 1032 505 1032 c 0
 702 1032 812 963 882 831 c 0
 923 752 941 639 941 543 c 0
 941 377 908 218 815 114 c 1xe8
625 247 m 1
 672 299 685 403 685 530 c 0
 685 536 685 540 685 546 c 0
 683 703 648 830 520 830 c 0
 369 830 324 690 324 482 c 0xe8
 324 316 387 197 508 197 c 1
 563 198 589 211 625 247 c 1
EndSplineSet
Validated: 1
EndChar

StartChar: uni0326
Encoding: 806 806 519
Width: 1060
VWidth: 26
Flags: W
HStem: -528 532
VStem: 390 270<-217 4> 446 214<-373.832 -217>
AnchorPoint: "cedilla_accent" 510 53 mark 0
LayerCount: 2
Fore
SplineSet
390 4 m 1xc0
 660 4 l 1
 660 -211 l 2xc0
 660 -362 630 -426 504 -528 c 1
 370 -403 l 1
 423 -361 446 -328 446 -217 c 1xa0
 390 -217 l 1
 390 4 l 1xc0
EndSplineSet
Validated: 1
EndChar

StartChar: quoteleft
Encoding: 8216 8216 530
Width: 1060
VWidth: -25
Flags: W
VStem: 317 241<1037.02 1287.29>
LayerCount: 2
Back
SplineSet
679 804 m 5
 436 737 l 5
 381 945 l 6
 371 985 364 1054 364 1100 c 4
 364 1281 456 1406 619 1500 c 5
 702 1379 l 5
 585 1316 538 1251 538 1145 c 4
 538 1075 561 1021 619 1007 c 5
 679 804 l 5
EndSplineSet
Fore
SplineSet
705 793 m 1
 392 710 l 1
 331 940 l 2
 322 974 317 1038 317 1076 c 0
 317 1300 422 1443 610 1526 c 1
 714 1372 l 1
 600 1308 558 1258 558 1156 c 0
 558 1081 591 1027 641 1018 c 1
 705 793 l 1
EndSplineSet
Validated: 1
EndChar

StartChar: quotereversed
Encoding: 8219 8219 533
Width: 1060
VWidth: -25
Flags: W
VStem: 322 241<944.713 1194.98>
LayerCount: 2
Fore
SplineSet
710 1439 m 1
 646 1214 l 1
 596 1205 563 1151 563 1076 c 0
 563 974 605 924 719 860 c 1
 615 706 l 1
 427 789 322 932 322 1156 c 0
 322 1194 327 1258 336 1292 c 2
 397 1522 l 1
 710 1439 l 1
EndSplineSet
EndChar

StartChar: quotedblleft
Encoding: 8220 8220 534
Width: 1060
VWidth: -25
Flags: W
VStem: 140.992 226.008<1071.8 1311.86> 569 226<1107.16 1315.76>
LayerCount: 2
Fore
SplineSet
976 857 m 1
 683 740 l 1
 590 971 l 2
 569 1030 569 1107 569 1163 c 0
 569 1318 669 1438 823 1518 c 1
 923 1375 l 1
 844 1343 795 1279 795 1190 c 0
 795 1140 828 1098 877 1094 c 1
 976 857 l 1
548 821 m 1
 255 704 l 1
 161 935 l 2
 141.826086957 988.869565217 140.992438563 1057.74480151 140.992438563 1111.94057697 c 0
 140.992438563 1117.1020794 141 1122.13043478 141 1127 c 0
 141 1282 219 1436 398 1536 c 1
 503 1390 l 1
 412 1344 367 1274 367 1172 c 0
 367 1112 392 1063 449 1058 c 1
 548 821 l 1
EndSplineSet
Validated: 1
EndChar

StartChar: uni201F
Encoding: 8223 8223 537
Width: 1060
VWidth: -25
Flags: W
VStem: 142 226<924.142 1164.05> 570 226<920.236 1128.84>
LayerCount: 2
Fore
SplineSet
977 1379 m 1
 878 1142 l 1
 829 1138 796 1096 796 1046 c 0
 796 957 845 893 924 861 c 1
 824 718 l 1
 670 798 570 918 570 1073 c 0
 570 1129 570 1206 591 1265 c 2
 684 1496 l 1
 977 1379 l 1
549 1415 m 1
 450 1178 l 1
 393 1173 368 1124 368 1064 c 0
 368 962 413 892 504 846 c 1
 399 700 l 1
 220 800 142 954 142 1109 c 0
 142 1114 142 1119 142 1124 c 0
 142 1178 143 1247 162 1301 c 6
 256 1532 l 5
 549 1415 l 1
EndSplineSet
Validated: 1
EndChar

StartChar: uni2016
Encoding: 8214 8214 538
Width: 1060
VWidth: 66
Flags: W
VStem: 168 273<-194.108 1492> 649 273<-194.108 1492>
LayerCount: 2
Fore
SplineSet
167 152 m 0
 167 517 158 1111 158 1399 c 2
 158 1492 l 1
 429 1492 l 1
 429 1347 l 2
 429 1070 441 558 441 224 c 2
 441 74 l 2
 441 -41 440 -97 435 -198 c 1
 163 -197 l 1
 167 -135 168 -92 168 -37 c 0
 168 10 167 66 167 152 c 0
648 152 m 0
 648 517 639 1111 639 1399 c 2
 639 1492 l 1
 910 1492 l 1
 910 1347 l 2
 910 1070 922 558 922 224 c 2
 922 74 l 2
 922 -41 921 -97 916 -198 c 1
 644 -197 l 1
 648 -135 649 -92 649 -37 c 0
 649 10 648 66 648 152 c 0
EndSplineSet
Validated: 1
EndChar

StartChar: underscoredbl
Encoding: 8215 8215 539
Width: 1060
VWidth: 41
Flags: W
HStem: -530 174<56 1002> -258 174<56 1002>
LayerCount: 2
Fore
SplineSet
56 -356 m 1
 1002 -356 l 1
 1002 -530 l 1
 52 -530 l 1
 56 -356 l 1
56 -84 m 1
 1002 -84 l 1
 1002 -258 l 1
 52 -258 l 1
 56 -84 l 1
EndSplineSet
Validated: 1
EndChar

StartChar: daggerdbl
Encoding: 8225 8225 540
Width: 1060
VWidth: 66
Flags: W
HStem: 170 224<90 366 641 934> 946 222<87.0955 359 633 929>
VStem: 358 271<-194.108 173 402 946 1170 1492>
LayerCount: 2
Fore
SplineSet
361 946 m 1
 282 948 192 954 81 961 c 1
 81 991 80 1041 80 1088 c 0
 80 1123 81 1157 82 1179 c 1
 191 1172 281 1169 359 1168 c 1
 358 1256 358 1335 358 1399 c 2
 358 1492 l 1
 629 1492 l 1
 629 1347 l 2
 629 1295 629 1236 630 1170 c 1
 723 1173 810 1177 929 1177 c 1
 931 957 l 1
 814 957 727 953 633 949 c 1
 636 769 639 573 640 399 c 1
 738 397 829 394 934 394 c 1
 934 170 l 1
 830 170 738 171 641 173 c 1
 641 74 l 2
 641 -41 640 -97 635 -198 c 1
 363 -197 l 1
 367 -135 368 -92 368 -37 c 0
 368 10 367 66 367 152 c 0
 367 160 367 167 367 175 c 1
 339 175 311 176 282 176 c 0
 222 176 158 174 90 170 c 1
 88 394 l 1
 192 400 281 401 366 402 c 1
 365 576 363 768 361 946 c 1
EndSplineSet
Validated: 1
EndChar

StartChar: dagger
Encoding: 8224 8224 541
Width: 1060
VWidth: 66
Flags: W
HStem: 946 222<87.0955 359 633 929>
VStem: 368 273<-194.108 946 1170 1492>
LayerCount: 2
Fore
SplineSet
361 946 m 1
 282 948 192 954 81 961 c 1
 81 991 80 1041 80 1088 c 0
 80 1123 81 1157 82 1179 c 1
 191 1172 281 1169 359 1168 c 1
 358 1256 358 1335 358 1399 c 2
 358 1492 l 1
 629 1492 l 1
 629 1347 l 2
 629 1295 629 1236 630 1170 c 1
 723 1173 810 1177 929 1177 c 1
 931 957 l 1
 814 957 727 953 633 949 c 1
 636 704 641 430 641 224 c 2
 641 74 l 2
 641 -41 640 -97 635 -198 c 1
 363 -197 l 1
 367 -135 368 -92 368 -37 c 0
 368 10 367 66 367 152 c 0
 367 372 364 676 361 946 c 1
EndSplineSet
Validated: 1
EndChar

StartChar: bullet
Encoding: 8226 8226 542
Width: 1060
VWidth: 0
Flags: W
HStem: 138 732<335.603 684.397>
VStem: 144 732<329.603 678.397>
LayerCount: 2
Fore
SplineSet
144 504 m 0
 144 706 308 870 510 870 c 0
 712 870 876 706 876 504 c 0
 876 302 712 138 510 138 c 0
 308 138 144 302 144 504 c 0
EndSplineSet
Validated: 1
EndChar

StartChar: uni2023
Encoding: 8227 8227 543
Width: 1060
VWidth: 0
Flags: W
LayerCount: 2
Fore
SplineSet
190 964 m 1
 854 581 l 1
 854 437 l 1
 194 104 l 1
 162 192 l 1
 162 888 l 1
 190 964 l 1
EndSplineSet
Validated: 1
EndChar

StartChar: arrowleft
Encoding: 8592 8592 545
Width: 1060
VWidth: 6
Flags: W
HStem: 386 244<375 1056>
LayerCount: 2
Fore
SplineSet
1062 389 m 1
 1017 387 967 386 917 386 c 0
 817 386 716 389 648 389 c 0
 607 389 568 389 529 389 c 0
 484 389 419 390 352 390 c 1
 428 305 489 213 520 95 c 1
 302 8 l 1
 264 157 164 309 6 450 c 1
 6 565 l 1
 150 695 287 856 310 996 c 1
 538 925 l 1
 513 806 449 714 375 634 c 1
 474 633 576 633 650 633 c 0
 693 633 784 630 884 630 c 0
 941 630 1001 631 1056 634 c 1
 1056 512 l 1
 1062 389 l 1
EndSplineSet
Validated: 1
EndChar

StartChar: arrowup
Encoding: 8593 8593 546
Width: 1060
VWidth: 66
Flags: W
VStem: 358 274<-134 1020>
LayerCount: 2
Fore
SplineSet
554 1396 m 1
 684 1252 845 1115 985 1092 c 1
 914 864 l 1
 798 888 707 948 629 1020 c 1
 630 791 632 570 632 288 c 2
 632 138 l 2
 632 23 631 -33 626 -134 c 1
 354 -134 l 1
 358 -72 359 -29 359 26 c 0
 359 73 358 130 358 216 c 2
 358 1031 l 1
 279 963 192 910 84 882 c 1
 -3 1100 l 1
 146 1138 298 1238 439 1396 c 1
 554 1396 l 1
EndSplineSet
Validated: 1
EndChar

StartChar: arrowright
Encoding: 8594 8594 547
Width: 1060
VWidth: 6
Flags: W
HStem: 384 244<18 699>
LayerCount: 2
Fore
SplineSet
12 628 m 1
 57 630 107 631 157 631 c 0
 257 631 358 628 426 628 c 0
 467 628 506 628 545 628 c 0
 590 628 655 628 722 628 c 1
 646 713 585 804 554 922 c 1
 772 1009 l 1
 810 860 910 708 1068 567 c 1
 1068 452 l 1
 924 322 787 161 764 21 c 1
 536 92 l 1
 561 211 625 304 699 384 c 1
 666 384 633 384 600 384 c 0
 535 384 473 384 424 384 c 0
 381 384 290 387 190 387 c 0
 133 387 73 386 18 383 c 1
 18 505 l 1
 12 628 l 1
EndSplineSet
Validated: 1
EndChar

StartChar: arrowdown
Encoding: 8595 8595 548
Width: 1060
VWidth: 66
Flags: W
VStem: 358 274<283 1433.11>
LayerCount: 2
Fore
SplineSet
554 -92 m 1
 439 -92 l 1
 298 66 146 166 -3 204 c 1
 84 422 l 1
 192 394 279 340 358 272 c 1
 358 1088 l 2
 358 1174 359 1229 359 1276 c 0
 359 1331 358 1374 354 1436 c 1
 626 1438 l 1
 631 1337 632 1281 632 1166 c 2
 632 1016 l 2
 632 734 630 512 629 283 c 1
 707 355 798 416 914 440 c 1
 985 212 l 1
 845 189 684 52 554 -92 c 1
EndSplineSet
Validated: 1
EndChar

StartChar: arrowboth
Encoding: 8596 8596 549
Width: 1060
VWidth: 6
Flags: W
HStem: 386 244<339 719>
LayerCount: 2
Fore
SplineSet
1090 455 m 1
 946 325 809 164 786 24 c 1
 558 95 l 1
 583 213 645 306 719 385 c 1
 679 386 642 386 612 386 c 0
 571 386 532 386 493 386 c 0
 448 386 383 387 316 387 c 1
 392 302 453 210 484 92 c 1
 266 5 l 1
 228 154 128 306 -30 447 c 1
 -30 562 l 1
 114 692 251 853 274 993 c 1
 502 922 l 1
 477 803 413 711 339 631 c 1
 438 630 540 630 614 630 c 0
 642 630 689 629 746 628 c 1
 669 713 607 806 576 925 c 1
 794 1012 l 1
 832 863 932 711 1090 570 c 1
 1090 455 l 1
EndSplineSet
Validated: 1
EndChar

StartChar: arrowupdn
Encoding: 8597 8597 550
Width: 1060
VWidth: 66
Flags: W
VStem: 358 274<288 1020>
LayerCount: 2
Fore
SplineSet
554 1396 m 1
 684 1252 845 1115 985 1092 c 1
 914 864 l 1
 798 888 707 948 629 1020 c 1
 630 791 632 570 632 288 c 2
 632 269 l 1
 712 338 800 393 909 422 c 1
 996 204 l 1
 847 166 695 66 554 -92 c 1
 439 -92 l 1
 309 52 148 189 8 212 c 1
 79 440 l 1
 192 416 281 358 358 288 c 1
 358 1031 l 1
 279 963 192 910 84 882 c 1
 -3 1100 l 1
 146 1138 298 1238 439 1396 c 1
 554 1396 l 1
EndSplineSet
Validated: 1
EndChar

StartChar: uni21C4
Encoding: 8644 8644 551
Width: 1060
VWidth: 6
Flags: W
HStem: 197 244<348 1029> 1024 244<38 718>
LayerCount: 2
Fore
SplineSet
32 1268 m 1
 77 1270 127 1271 177 1271 c 0
 277 1271 378 1268 446 1268 c 0
 487 1268 526 1268 565 1268 c 0
 610 1268 675 1268 742 1268 c 1
 666 1353 605 1445 574 1563 c 1
 792 1650 l 1
 830 1501 930 1349 1088 1208 c 1
 1088 1093 l 1
 944 963 807 802 784 662 c 1
 556 733 l 1
 581 852 644 944 718 1024 c 1
 685 1024 651 1024 619 1024 c 0
 554 1024 493 1024 444 1024 c 0
 401 1024 310 1027 210 1027 c 0
 153 1027 93 1026 38 1023 c 1
 38 1145 l 1
 32 1268 l 1
1035 200 m 1
 990 198 940 197 890 197 c 0
 790 197 689 200 621 200 c 0
 580 200 541 200 502 200 c 0
 457 200 391 201 324 201 c 1
 400 116 462 24 493 -94 c 1
 275 -181 l 1
 237 -32 137 120 -21 261 c 1
 -21 376 l 1
 123 506 260 667 283 807 c 1
 511 736 l 1
 486 617 422 525 348 445 c 1
 447 444 549 444 623 444 c 0
 666 444 757 441 857 441 c 0
 914 441 974 442 1029 445 c 1
 1029 323 l 1
 1035 200 l 1
EndSplineSet
Validated: 1
EndChar

StartChar: uni21C6
Encoding: 8646 8646 552
Width: 1060
VWidth: 6
Flags: W
HStem: 200 245<44 724> 1024 244<354 1035>
LayerCount: 2
Fore
SplineSet
1041 1268 m 1
 1035 1145 l 1
 1035 1023 l 1
 980 1026 920 1027 863 1027 c 0
 763 1027 672 1024 629 1024 c 0
 580 1024 518 1024 453 1024 c 0
 420 1024 387 1024 354 1024 c 1
 428 944 492 852 517 733 c 1
 289 662 l 1
 266 802 129 963 -15 1093 c 1
 -15 1208 l 1
 143 1349 243 1501 281 1650 c 1
 499 1563 l 1
 468 1445 406 1353 330 1268 c 1
 397 1268 463 1268 508 1268 c 0
 547 1268 586 1268 627 1268 c 0
 695 1268 796 1271 896 1271 c 0
 946 1271 996 1270 1041 1268 c 1
38 200 m 1
 44 323 l 1
 44 445 l 1
 99 442 159 441 216 441 c 0
 316 441 407 444 450 444 c 0
 524 444 625 444 724 445 c 1
 650 525 587 617 562 736 c 1
 790 807 l 1
 813 667 950 506 1094 376 c 1
 1094 261 l 1
 936 120 836 -32 798 -181 c 1
 580 -94 l 1
 611 24 672 116 748 201 c 1
 681 201 616 200 571 200 c 0
 532 200 493 200 452 200 c 0
 384 200 283 197 183 197 c 0
 133 197 83 198 38 200 c 1
EndSplineSet
Validated: 1
EndChar

StartChar: uni21C9
Encoding: 8649 8649 553
Width: 1060
VWidth: 6
Flags: W
HStem: 203 244<8 689> 1024 245<12 693>
LayerCount: 2
Fore
SplineSet
2 444 m 1
 47 446 97 447 147 447 c 0
 247 447 348 444 416 444 c 0
 457 444 496 444 535 444 c 0
 580 444 645 443 712 443 c 1
 636 528 575 620 544 738 c 1
 569 857 619 944 693 1024 c 1
 594 1025 492 1025 418 1025 c 0
 375 1025 284 1028 184 1028 c 0
 127 1028 67 1027 12 1024 c 1
 12 1146 l 1
 6 1269 l 1
 51 1271 101 1272 151 1272 c 0
 251 1272 352 1269 420 1269 c 0
 461 1269 500 1269 539 1269 c 0
 584 1269 649 1268 716 1268 c 1
 640 1353 579 1445 548 1563 c 1
 766 1650 l 1
 804 1501 904 1349 1062 1208 c 1
 1062 1093 l 1
 948 990 838 867 786 751 c 1
 835 626 926 501 1058 383 c 1
 1058 268 l 1
 914 138 777 -23 754 -163 c 1
 526 -92 l 1
 551 27 615 119 689 199 c 1
 590 200 488 200 414 200 c 0
 371 200 280 203 180 203 c 0
 123 203 63 202 8 199 c 1
 8 321 l 1
 2 444 l 1
EndSplineSet
Validated: 1
EndChar

StartChar: uni21C5
Encoding: 8645 8645 554
Width: 1060
VWidth: 66
Flags: W
HStem: 1313 20G<678 917.5>
VStem: 186 239<-134 1020> 682 239<178 1329.11>
LayerCount: 2
Fore
SplineSet
382 1396 m 1
 512 1252 578 1126 659 922 c 1
 498 821 l 1
 466 897 422 1020 422 1020 c 1
 423 791 425 570 425 288 c 2
 425 138 l 2
 425 23 424 -33 419 -134 c 1
 182 -134 l 1
 186 -72 187 -29 187 26 c 0
 187 73 186 130 186 216 c 2
 186 1031 l 1
 154 985 138 941 74 845 c 1
 -74 969 l 1
 -10 1073 126 1238 267 1396 c 1
 382 1396 l 1
878 -197 m 1
 734 -197 l 1
 639 -74 533 130 449 274 c 1
 590 371 l 1
 654 275 650 213 682 167 c 1
 682 983 l 2
 682 1069 683 1125 683 1172 c 0
 683 1227 682 1270 678 1332 c 1
 915 1333 l 1
 920 1232 921 1176 921 1061 c 2
 921 911 l 2
 921 629 919 407 918 178 c 1
 918 178 970 269 1002 345 c 1
 1170 241 l 1
 1098 145 1008 -53 878 -197 c 1
EndSplineSet
Validated: 1
EndChar

StartChar: uni21C8
Encoding: 8648 8648 555
Width: 1060
VWidth: 66
Flags: W
VStem: 186 239<-134 1020> 682 239<-133.108 1018>
LayerCount: 2
Fore
SplineSet
878 1393 m 1
 1008 1249 1098 1051 1170 955 c 1
 1002 851 l 1
 970 927 918 1018 918 1018 c 1
 919 789 921 567 921 285 c 2
 921 135 l 2
 921 20 920 -36 915 -137 c 1
 678 -136 l 1
 682 -74 683 -31 683 24 c 0
 683 71 682 127 682 213 c 2
 682 1029 l 1
 629 985 615 891 600 821 c 1
 498 821 l 1
 470 894 444 1002 422 1020 c 1
 423 791 425 570 425 288 c 2
 425 138 l 2
 425 23 424 -33 419 -134 c 1
 182 -134 l 1
 186 -72 187 -29 187 26 c 0
 187 73 186 130 186 216 c 2
 186 1031 l 1
 154 985 138 941 74 845 c 1
 -74 969 l 1
 -10 1073 95 1238 236 1396 c 1
 382 1396 l 1
 451 1319 519 1227 561 1122 c 1
 594 1212 649 1308 749 1393 c 1
 878 1393 l 1
EndSplineSet
Validated: 1
EndChar

StartChar: uni21CA
Encoding: 8650 8650 556
Width: 1060
VWidth: 66
Flags: W
HStem: 1311 20G<182 421.5 678 917.5>
VStem: 186 239<176 1327.11> 682 239<178 1329.11>
LayerCount: 2
Fore
SplineSet
878 -197 m 1
 763 -197 l 1
 657 -106 598 -3 564 92 c 1
 525 -20 456 -117 382 -199 c 1
 267 -199 l 1
 126 -41 -10 123 -74 227 c 1
 74 351 l 1
 138 255 154 211 186 165 c 1
 186 981 l 2
 186 1067 187 1123 187 1170 c 0
 187 1225 186 1268 182 1330 c 1
 419 1331 l 1
 424 1230 425 1174 425 1059 c 2
 425 909 l 2
 425 627 423 405 422 176 c 1
 422 176 466 299 498 375 c 1
 590 371 l 1
 654 275 650 213 682 167 c 1
 682 983 l 2
 682 1069 683 1125 683 1172 c 0
 683 1227 682 1270 678 1332 c 1
 915 1333 l 1
 920 1232 921 1176 921 1061 c 2
 921 911 l 2
 921 629 919 407 918 178 c 1
 918 178 970 269 1002 345 c 1
 1170 241 l 1
 1098 145 1008 -53 878 -197 c 1
EndSplineSet
Validated: 1
EndChar

StartChar: uni21C7
Encoding: 8647 8647 557
Width: 1060
VWidth: 6
Flags: W
HStem: 200 244<348 1029> 1028 244<344 1025>
LayerCount: 2
Fore
SplineSet
1035 444 m 1
 1029 321 l 1
 1029 199 l 1
 974 202 914 203 857 203 c 0
 757 203 666 200 623 200 c 0
 549 200 447 200 348 199 c 1
 422 119 486 27 511 -92 c 1
 283 -163 l 1
 260 -23 123 138 -21 268 c 1
 -21 383 l 1
 111 501 202 626 251 751 c 1
 199 867 89 990 -25 1093 c 1
 -25 1208 l 1
 133 1349 233 1501 271 1650 c 1
 489 1563 l 1
 458 1445 397 1353 321 1268 c 1
 388 1268 453 1269 498 1269 c 0
 537 1269 576 1269 617 1269 c 0
 685 1269 786 1272 886 1272 c 0
 936 1272 986 1271 1031 1269 c 1
 1025 1146 l 1
 1025 1024 l 1
 970 1027 910 1028 853 1028 c 0
 753 1028 662 1025 619 1025 c 0
 545 1025 443 1025 344 1024 c 1
 418 944 468 857 493 738 c 1
 462 620 401 528 325 443 c 1
 392 443 457 444 502 444 c 0
 541 444 580 444 621 444 c 0
 689 444 790 447 890 447 c 0
 940 447 990 446 1035 444 c 1
EndSplineSet
Validated: 1
EndChar

StartChar: guilsinglleft
Encoding: 8249 8249 558
Width: 1060
VWidth: 6
Flags: W
VStem: 227 532
LayerCount: 2
Fore
SplineSet
227 576 m 1
 371 706 508 867 531 1007 c 1
 759 936 l 1
 719 747 583 624 458 515 c 1
 586 397 696 278 741 106 c 1
 523 19 l 1
 485 168 385 320 227 461 c 1
 227 576 l 1
EndSplineSet
Validated: 1
EndChar

StartChar: guilsinglright
Encoding: 8250 8250 559
Width: 1060
VWidth: 6
Flags: W
VStem: 294 532
LayerCount: 2
Fore
SplineSet
826 454 m 1
 682 324 545 163 522 23 c 1
 294 94 l 1
 334 283 470 406 595 515 c 1
 467 633 357 752 312 924 c 1
 530 1011 l 1
 568 862 668 710 826 569 c 1
 826 454 l 1
EndSplineSet
Validated: 1
EndChar

StartChar: uni203D
Encoding: 8253 8253 561
Width: 1060
VWidth: 0
Flags: W
HStem: 0 270<360 710> 1356 20G<377 692>
VStem: 43 259<862.261 1081.25> 360 350<0 270> 393 272<431 618.883> 412 240<431.688 599.625 854 1115.55> 783 251<915.241 1082.86>
LayerCount: 2
Fore
SplineSet
661 1133 m 1xe6
 655 1051 652 970 652 889 c 0
 652 877 652 866 652 854 c 1
 721 895 783 934 783 994 c 0
 783 1056 729 1107 661 1133 c 1xe6
383 1326 m 1
 381 1343 379 1359 377 1376 c 1
 692 1376 l 1
 689 1361 686 1347 684 1332 c 1
 880 1294 1034 1175 1034 991 c 0
 1034 821 864 743 775 685 c 0
 713 644 665 567 665 479 c 2
 665 430 l 1
 393 431 l 1
 393 475 l 2xea
 393 504 396 532 403 559 c 1
 409 651 412 742 412 834 c 0
 412 929 409 1025 402 1120 c 1
 347 1094 303 1053 302 995 c 0
 302 956 327 918 348 892 c 1
 130 743 l 1
 84 807 43 876 43 967 c 0
 43 1166 204 1283 383 1326 c 1
360 270 m 1xf2
 710 270 l 1
 710 0 l 1
 360 0 l 1
 360 270 l 1xf2
EndSplineSet
Validated: 1
EndChar

StartChar: uni2047
Encoding: 8263 8263 562
Width: 1060
VWidth: 0
Flags: W
HStem: 0 270<102 454 546 898> 1153 192<208.138 368.211 655.627 816.88>
VStem: 102 352<0 270> 137 272<431 666.875> 391 251<881.117 1110.22> 546 352<0 270> 585 272<431 666.875> 839 251<881.117 1134.88>
LayerCount: 2
Fore
SplineSet
-25 1221 m 1xc8
 62 1309 186 1345 289 1345 c 0
 387 1345 462 1326 517 1290 c 1
 588 1328 667 1345 737 1345 c 0
 994 1345 1090 1217 1090 991 c 0xc9
 1090 821 1005 755 918 685 c 0
 860 638 857 567 857 479 c 2
 857 430 l 1
 585 431 l 1
 585 475 l 2xc2
 585 621 634 734 703 795 c 0
 785 868 839 907 839 994 c 0
 839 1086 814 1153 747 1153 c 0
 710 1153 672 1128 635 1089 c 1
 640 1059 642 1026 642 991 c 0xc9
 642 821 557 755 470 685 c 0
 412 638 409 567 409 479 c 2
 409 430 l 1
 137 431 l 1
 137 475 l 2xd0
 137 621 186 734 255 795 c 0
 337 868 391 907 391 994 c 0
 391 1086 366 1153 299 1153 c 0
 235 1153 166 1077 110 985 c 1
 -25 1221 l 1xc8
102 270 m 1xe0
 454 270 l 1
 454 0 l 1
 102 0 l 1
 102 270 l 1xe0
546 270 m 1xc4
 898 270 l 1
 898 0 l 1
 546 0 l 1
 546 270 l 1xc4
EndSplineSet
Validated: 1
EndChar

StartChar: uni2048
Encoding: 8264 8264 563
Width: 1060
VWidth: 0
Flags: W
HStem: 0 270<102 454 679 1029> 1153 192<208.138 368.88> 1356 20G<696 1011>
VStem: 102 352<0 270> 137 272<431 666.875> 391 251<881.117 1134.88> 679 350<0 270> 696 315<558.848 1376> 712 283<464 1280.94>
LayerCount: 2
Fore
SplineSet
-25 1221 m 1xe4
 62 1309 186 1345 289 1345 c 0
 546 1345 642 1217 642 991 c 0xe4
 642 821 557 755 470 685 c 0
 412 638 409 567 409 479 c 2
 409 430 l 1
 137 431 l 1
 137 475 l 2xe8
 137 621 186 734 255 795 c 0
 337 868 391 907 391 994 c 0
 391 1086 366 1153 299 1153 c 0
 235 1153 166 1077 110 985 c 1
 -25 1221 l 1xe4
102 270 m 1xf0
 454 270 l 1
 454 0 l 1
 102 0 l 1
 102 270 l 1xf0
679 270 m 1xe2
 1029 270 l 1
 1029 0 l 1
 679 0 l 1
 679 270 l 1xe2
1011 1376 m 1xe1
 995 464 l 1
 712 462 l 1xe080
 696 1376 l 1
 1011 1376 l 1xe1
EndSplineSet
Validated: 1
EndChar

StartChar: uni2049
Encoding: 8265 8265 564
Width: 1060
VWidth: 0
Flags: W
HStem: 0 270<65 415 534 886> 1153 192<640.138 800.88> 1356 20G<82 397>
VStem: 65 350<0 270> 82 315<558.848 1376> 98 283<464 1280.94> 534 352<0 270> 569 272<431 666.875> 823 251<881.117 1134.88>
LayerCount: 2
Fore
SplineSet
407 1221 m 1xe080
 494 1309 618 1345 721 1345 c 0
 978 1345 1074 1217 1074 991 c 0xe080
 1074 821 989 755 902 685 c 0
 844 638 841 567 841 479 c 2
 841 430 l 1
 569 431 l 1
 569 475 l 2xe1
 569 621 618 734 687 795 c 0
 769 868 823 907 823 994 c 0
 823 1086 798 1153 731 1153 c 0
 667 1153 598 1077 542 985 c 1
 407 1221 l 1xe080
534 270 m 1xe2
 886 270 l 1
 886 0 l 1
 534 0 l 1
 534 270 l 1xe2
65 270 m 1xf0
 415 270 l 1
 415 0 l 1
 65 0 l 1
 65 270 l 1xf0
397 1376 m 1xe8
 381 464 l 1
 98 462 l 1xe4
 82 1376 l 1
 397 1376 l 1xe8
EndSplineSet
Validated: 1
EndChar

StartChar: uniE0A0
Encoding: 57504 57504 567
Width: 1060
Flags: W
VStem: 140 276<-364 202.322 703 1596> 707 166<673.969 1222>
LayerCount: 2
Fore
SplineSet
416 -364 m 1
 140 -364 l 1
 140 0 l 2
 140 119 166 217 219 292 c 1
 255 345 311 396 388 446 c 2
 540 545 l 2
 600 584 643 630 668 684 c 0
 694 736 707 806 707 893 c 2
 707 1222 l 1
 498 1222 l 1
 790 1564 l 1
 1082 1222 l 1
 873 1222 l 1
 873 837 l 2
 873 709 855 611 820 542 c 0
 784 474 730 417 659 370 c 1
 584 320 l 2
 522 279 479 238 456 196 c 0
 429 149 416 83 416 0 c 2
 416 -364 l 1
416 703 m 1
 140 525 l 1
 140 1596 l 1
 416 1596 l 1
 416 703 l 1
EndSplineSet
Validated: 1
EndChar

StartChar: uniE0A1
Encoding: 57505 57505 568
Width: 1060
Flags: W
HStem: 748 132<230 582>
VStem: 76 154<880 1648> 392 158<-233 85.552> 784 158<373.093 667> 804 138<80 387.507>
LayerCount: 2
Fore
SplineSet
582 880 m 1xe0
 582 748 l 1
 76 748 l 1
 76 1648 l 1
 230 1648 l 1
 230 880 l 1
 582 880 l 1xe0
784 667 m 1xf0
 942 667 l 1xf0
 942 -233 l 1
 776 -233 l 1
 530 352 l 1
 550 -38 l 1
 550 -233 l 1
 392 -233 l 1
 392 667 l 1
 558 667 l 1
 804 80 l 1xe8
 784 509 l 1
 784 667 l 1xf0
EndSplineSet
Validated: 1
EndChar

StartChar: uniE0A2
Encoding: 57506 57506 569
Width: 1060
Flags: W
HStem: 0 236<464 576> 745 187<433.175 606.825> 1472 130<401.37 643.096>
VStem: 42 422<236 544.963> 42 354<524.414 707.825> 185 161<932 1415.8> 576 424<236 544.963> 644 356<524.414 707.825> 696 161<932 1418.87>
LayerCount: 2
Fore
SplineSet
208 0 m 2xe1
 97 0 42 47 42 141 c 2
 42 781 l 2xe9
 42 882 89 932 185 932 c 1
 185 1287 l 2
 185 1378 218 1454 284 1515 c 0
 348 1573 427 1602 521 1602 c 256
 615 1602 695 1573 758 1515 c 0
 824 1454 857 1378 857 1287 c 2
 857 932 l 1xe480
 953 932 1000 882 1000 781 c 2
 1000 141 l 2
 1000 47 945 0 834 0 c 2
 208 0 l 2xe1
521 1472 m 256
 468 1472 427 1455 394 1422 c 0
 363 1389 346 1344 346 1287 c 2
 346 932 l 1
 696 932 l 1
 696 1287 l 2xe480
 696 1344 679 1389 649 1422 c 0
 615 1455 574 1472 521 1472 c 256
576 236 m 1xf2
 576 510 l 1xf2
 621 533 644 570 644 621 c 0
 644 655 632 684 608 709 c 0
 583 733 554 745 520 745 c 256
 486 745 457 733 432 709 c 0
 408 684 396 655 396 621 c 0xe9
 396 570 419 533 464 510 c 1
 464 236 l 1
 576 236 l 1xf2
EndSplineSet
Validated: 1
EndChar

StartChar: uniE0B0
Encoding: 57520 57520 570
Width: 1060
VWidth: 1918
Flags: W
LayerCount: 2
Fore
SplineSet
-78 1820 m 1
 -19 1820 l 1
 1040 658 l 1
 -20 -504 l 1
 -78 -504 l 1
 -78 1820 l 1
EndSplineSet
Validated: 1
EndChar

StartChar: uniE0B1
Encoding: 57521 57521 571
Width: 1060
VWidth: 1918
Flags: W
LayerCount: 2
Fore
SplineSet
-57 1682 m 1
 39 1777 l 1
 1060 658 l 1
 39 -461 l 1
 -57 -366 l 1
 875 658 l 1
 -57 1682 l 1
EndSplineSet
Validated: 1
EndChar

StartChar: uniE0B2
Encoding: 57522 57522 572
Width: 1060
VWidth: 1918
Flags: W
LayerCount: 2
Fore
SplineSet
1138 -505 m 1
 1080 -505 l 1
 20 658 l 1
 1080 1820 l 1
 1138 1820 l 1
 1138 -505 l 1
EndSplineSet
Validated: 1
EndChar

StartChar: uniE0B3
Encoding: 57523 57523 573
Width: 1060
VWidth: 1918
Flags: W
LayerCount: 2
Fore
SplineSet
185 658 m 1
 1117 -366 l 1
 1021 -461 l 1
 0 658 l 1
 1021 1777 l 1
 1117 1682 l 1
 185 658 l 1
EndSplineSet
Validated: 1
EndChar

StartChar: block
Encoding: 9608 9608 574
Width: 1060
VWidth: 1918
Flags: W
VStem: -20 1100<-505 1820>
LayerCount: 2
Fore
SplineSet
-20 1820 m 1
 1080 1820 l 1
 1080 -505 l 1
 -20 -505 l 1
 -20 1820 l 1
EndSplineSet
Validated: 1
EndChar

StartChar: uni0180
Encoding: 384 384 575
Width: 1060
VWidth: -2
Flags: W
HStem: -7 180<513.995 692.895> 813 200<488.383 682.479> 1116 204<0 166 419 632>
VStem: 174 245<274.508 742.95 933.082 1116 1320 1401.83> 750 255<235.51 731.081>
LayerCount: 2
Fore
SplineSet
750 478 m 0
 750 741 677 813 585 813 c 0
 513 813 452 738 419 683 c 1
 419 349 l 1
 470 247 541 173 602 173 c 0
 710 173 750 288 750 478 c 0
1005 459 m 0
 1005 152 887 -7 636 -7 c 0
 512 -7 433 40 395 93 c 1
 395 51 351 -13 351 -13 c 1
 155 7 l 1
 165 73 174 160 174 243 c 0
 174 251 174 259 174 267 c 0
 174 504 173 842 173 1116 c 5
 0 1116 l 5
 0 1320 l 5
 166 1320 l 5
 164 1350 161 1378 158 1403 c 1
 405 1412 l 1
 408 1384 411 1353 413 1320 c 5
 632 1320 l 5
 632 1116 l 5
 419 1116 l 5
 417 1046 411 996 395 930 c 1
 432 958 506 1013 620 1013 c 0
 892 1013 1005 831 1005 459 c 0
EndSplineSet
Validated: 1
EndChar

StartChar: SF110000
Encoding: 9474 9474 576
Width: 1060
VWidth: 0
Flags: W
VStem: 448 165<-505 1820>
LayerCount: 2
Fore
SplineSet
613 1820 m 1
 613 -505 l 1
 448 -505 l 1
 448 1820 l 1
 613 1820 l 1
EndSplineSet
Validated: 1
EndChar

StartChar: uni2503
Encoding: 9475 9475 577
Width: 1060
VWidth: 0
Flags: W
VStem: 400 260<-505 1820>
LayerCount: 2
Fore
SplineSet
660 1820 m 1
 660 -505 l 1
 400 -505 l 1
 400 1820 l 1
 660 1820 l 1
EndSplineSet
Validated: 1
EndChar

StartChar: uni2506
Encoding: 9478 9478 578
Width: 1060
VWidth: 0
Flags: W
VStem: 448 165<-398 23 346 766 1089 1510>
LayerCount: 2
Fore
SplineSet
613 23 m 1
 613 -398 l 1
 448 -398 l 1
 448 23 l 1
 613 23 l 1
613 766 m 1
 613 346 l 1
 448 346 l 1
 448 766 l 1
 613 766 l 1
613 1510 m 1
 613 1089 l 1
 448 1089 l 1
 448 1510 l 1
 613 1510 l 1
EndSplineSet
Validated: 1
EndChar

StartChar: uni2507
Encoding: 9479 9479 579
Width: 1060
VWidth: 0
Flags: W
HStem: -398 421<400 660> 346 421<400 660> 1089 421<400 660>
VStem: 400 260<-398 23 346 767 1089 1510>
LayerCount: 2
Fore
SplineSet
660 23 m 1
 660 -398 l 1
 400 -398 l 1
 400 23 l 1
 660 23 l 1
660 767 m 1
 660 346 l 1
 400 346 l 1
 400 767 l 1
 660 767 l 1
660 1510 m 1
 660 1089 l 1
 400 1089 l 1
 400 1510 l 1
 660 1510 l 1
EndSplineSet
Validated: 1
EndChar

StartChar: uni250A
Encoding: 9482 9482 580
Width: 1060
VWidth: 0
Flags: W
HStem: -398 316<448 613> 160 315<448 613> 717 316<448 613> 1275 316<448 613>
VStem: 448 165<-398 -82 160 475 717 1033 1275 1591>
LayerCount: 2
Fore
SplineSet
613 -82 m 1
 613 -398 l 1
 448 -398 l 1
 448 -82 l 1
 613 -82 l 1
613 475 m 1
 613 160 l 1
 448 160 l 1
 448 475 l 1
 613 475 l 1
613 1033 m 1
 613 717 l 1
 448 717 l 1
 448 1033 l 1
 613 1033 l 1
613 1591 m 1
 613 1275 l 1
 448 1275 l 1
 448 1591 l 1
 613 1591 l 1
EndSplineSet
Validated: 1
EndChar

StartChar: uni250B
Encoding: 9483 9483 581
Width: 1060
VWidth: 0
Flags: W
HStem: -398 316<400 660> 160 316<400 660> 717 316<400 660> 1275 316<400 660>
VStem: 400 260<-398 -82 160 476 717 1033 1275 1591>
LayerCount: 2
Fore
SplineSet
660 -82 m 1
 660 -398 l 1
 400 -398 l 1
 400 -82 l 1
 660 -82 l 1
660 476 m 1
 660 160 l 1
 400 160 l 1
 400 476 l 1
 660 476 l 1
660 1033 m 1
 660 717 l 1
 400 717 l 1
 400 1033 l 1
 660 1033 l 1
660 1591 m 1
 660 1275 l 1
 400 1275 l 1
 400 1591 l 1
 660 1591 l 1
EndSplineSet
Validated: 1
EndChar

StartChar: uni23B8
Encoding: 9144 9144 582
Width: 1060
VWidth: 0
Flags: W
VStem: 0 165<-505 1820>
LayerCount: 2
Fore
SplineSet
165 1820 m 1
 165 -505 l 1
 0 -505 l 1
 0 1820 l 1
 165 1820 l 1
EndSplineSet
Validated: 1
EndChar

StartChar: uni23B9
Encoding: 9145 9145 583
Width: 1060
VWidth: 0
Flags: W
VStem: 895 165<-505 1820>
LayerCount: 2
Fore
SplineSet
1060 1820 m 1
 1060 -505 l 1
 895 -505 l 1
 895 1820 l 1
 1060 1820 l 1
EndSplineSet
Validated: 1
EndChar

StartChar: uni2504
Encoding: 9476 9476 584
Width: 1060
VWidth: 0
Flags: W
HStem: 438 166<-20 151 279 445 572 738 866 1080>
VStem: -20 171<438 604> 279 166<438 604> 572 166<438 604> 866 214<438 604>
LayerCount: 2
Fore
SplineSet
151 604 m 1
 151 438 l 1
 -20 438 l 1
 -20 604 l 1
 151 604 l 1
866 604 m 1
 1080 604 l 1
 1080 438 l 1
 866 438 l 1
 866 604 l 1
738 604 m 1
 738 438 l 1
 572 438 l 1
 572 604 l 1
 738 604 l 1
445 604 m 1
 445 438 l 1
 279 438 l 1
 279 604 l 1
 445 604 l 1
EndSplineSet
Validated: 1
EndChar

StartChar: uni2505
Encoding: 9477 9477 585
Width: 1060
VWidth: 0
Flags: W
HStem: 390 260<-20 151 279 445 572 738 866 1080>
VStem: -20 171<390 650> 279 166<390 650> 572 166<390 650> 866 214<390 650>
LayerCount: 2
Fore
SplineSet
151 650 m 1
 151 390 l 1
 -20 390 l 1
 -20 650 l 1
 151 650 l 1
866 650 m 1
 1080 650 l 1
 1080 390 l 1
 866 390 l 1
 866 650 l 1
738 650 m 1
 738 390 l 1
 572 390 l 1
 572 650 l 1
 738 650 l 1
445 650 m 1
 445 390 l 1
 279 390 l 1
 279 650 l 1
 445 650 l 1
EndSplineSet
Validated: 1
EndChar

StartChar: uni2508
Encoding: 9480 9480 586
Width: 1060
VWidth: 0
Flags: W
HStem: 438 166<-20 110 231 351 472 592 713 833 954 1080>
VStem: -20 130<438 604> 231 120<438 604> 472 120<438 604> 713 120<438 604> 954 126<438 604>
LayerCount: 2
Fore
SplineSet
954 438 m 1
 954 604 l 1
 1080 604 l 1
 1080 438 l 1
 954 438 l 1
713 438 m 1
 713 604 l 1
 833 604 l 1
 833 438 l 1
 713 438 l 1
592 438 m 1
 472 438 l 1
 472 604 l 1
 592 604 l 1
 592 438 l 1
231 438 m 1
 231 604 l 1
 351 604 l 1
 351 438 l 1
 231 438 l 1
110 438 m 1
 -20 438 l 1
 -20 604 l 1
 110 604 l 1
 110 438 l 1
EndSplineSet
Validated: 1
EndChar

StartChar: uni2509
Encoding: 9481 9481 587
Width: 1060
VWidth: 0
Flags: W
HStem: 390 260<-20 110 231 351 472 592 713 833 954 1080>
VStem: -20 130<390 650> 231 120<390 650> 472 120<390 650> 713 120<390 650> 954 126<390 650>
LayerCount: 2
Fore
SplineSet
110 390 m 1
 -20 390 l 1
 -20 650 l 1
 110 650 l 1
 110 390 l 1
351 390 m 1
 231 390 l 1
 231 650 l 1
 351 650 l 1
 351 390 l 1
472 390 m 1
 472 650 l 1
 592 650 l 1
 592 390 l 1
 472 390 l 1
833 390 m 1
 713 390 l 1
 713 650 l 1
 833 650 l 1
 833 390 l 1
954 390 m 1
 954 650 l 1
 1080 650 l 1
 1080 390 l 1
 954 390 l 1
EndSplineSet
Validated: 1
EndChar

StartChar: SF010000
Encoding: 9484 9484 588
Width: 1060
VWidth: 0
Flags: W
HStem: 438 165<613 1080>
VStem: 448 165<-505 438>
LayerCount: 2
Fore
SplineSet
448 603 m 1
 1080 603 l 1
 1080 438 l 1
 613 438 l 1
 613 -505 l 1
 448 -505 l 1
 448 603 l 1
EndSplineSet
Validated: 1
EndChar

